<?xml version="1.0" standalone="no"?>
<!DOCTYPE svg PUBLIC "-//W3C//DTD SVG 1.1//EN" "http://www.w3.org/Graphics/SVG/1.1/DTD/svg11.dtd" >
<svg xmlns="http://www.w3.org/2000/svg" xmlns:xlink="http://www.w3.org/1999/xlink" version="1.1">
<metadata></metadata>
<defs>
<font id="hacjiuza_dirtyregular" horiz-adv-x="0" >
<font-face units-per-em="2048" ascent="1638" descent="-410" />
<missing-glyph horiz-adv-x="339" />
<glyph />
<glyph unicode="&#xd;" />
<glyph unicode=" "  horiz-adv-x="339" />
<glyph unicode="&#x09;" horiz-adv-x="339" />
<glyph unicode="&#xa0;" horiz-adv-x="339" />
<glyph unicode="!" horiz-adv-x="430" d="M253 1116q115 -113 115 -301l-26 -302h-25l13 -9v-10q-56 -433 -102 -433h-13l-13 10h-12l25 56q-140 469 -140 659l25 151h13v-19h13v10l-13 9v9q51 131 140 170zM266 965v-37l25 -19l39 28l-39 28h-25zM241 607v-9h25v9h-25zM164 523v-19h13v19h-13zM228 -33 q85 0 114 -104l13 -9l-51 -113l-51 28h-12l-13 -9h-13l13 -10v-28h-38q-31 0 -90 113l26 19l13 -10h25l38 29v19l-38 56zM215 -71v-28h13l25 19l-12 9h-26zM253 -99v-19q26 0 26 -28h25l13 28l-13 10h-13l-12 -10h-13v19h-13zM241 -184v-9l25 -19l25 19l-12 9h-38z" />
<glyph unicode="&#x22;" horiz-adv-x="271" d="M200 994q39 -57 39 -101v-30q0 -51 -53 -106h-4l4 27q-13 99 -30 144v5q7 0 26 39l4 -4h9v13l-4 4v5l4 4h5zM59 985q62 -39 62 -92v-39q0 -53 -18 -53l5 -4q-22 -46 -40 -53l5 49q0 33 -35 87h8v9h-4l-4 -4h-5q-13 16 -13 30q10 0 13 22l22 -4v4l-4 26zM173 941v-13l9 -8 h4v21h-13zM51 915v-26h4q18 9 18 22l-5 13h-9zM103 902l-9 -13v-4l5 -5v-4l13 4v13z" />
<glyph unicode="#" />
<glyph unicode="$" />
<glyph unicode="%" />
<glyph unicode="&#x26;" horiz-adv-x="1025" d="M516 1093h64v-9q-82 0 -82 -27l9 -46q-45 -23 -45 -81q0 -102 109 -209h9v28h18l9 -37q104 0 136 145q-61 191 -163 191l9 27l-9 9h9q91 0 172 -172l9 -55q0 -88 -109 -172l9 -9v-9l-9 -27q153 -118 200 -209q40 0 54 -99l73 -145l-9 -9v-10l18 -54v-109 q0 -190 -290 -272h-136v9q0 21 145 46q54 59 54 99v37q0 77 -54 109l-18 -46h-9v18h-19v-18l9 -9v-9q-81 -63 -145 -63h-81q-129 0 -227 45q0 -36 -18 -36l-18 18l18 27q-163 110 -163 254q0 209 199 326q0 27 28 27h9v18h-28v28q28 0 28 18l9 -9h27q-45 134 -45 217v46h18 v9l-9 36q68 163 235 163zM380 993v-36l9 9h9l10 -9l9 9v9l-19 18h-18zM353 984v-27h9l9 27h-18zM317 948v-18l45 -9h9v9l-36 18h-18zM1051 848q78 0 136 -90v-18l-36 18l-36 -64v-27l36 -45v-9h-64l-9 9h-9l-9 -9l-90 127h-10q-50 -49 -54 -91h-18l-9 27q47 172 172 172z M997 776v-9h18v9h-18zM335 749v-9h18v9h-18zM435 730l9 -36h9v27l-9 9h-9zM326 613h45l-18 18h-9zM897 640l-18 -100l9 -36v-45l-36 9v9l9 154zM652 558q0 -27 -36 -27l-9 9q2 -27 72 -63v9l-9 9v9h9q-11 54 -27 54zM480 549v-18h9v18h-9zM235 295q0 -127 182 -199l9 54h9 l27 -27v-18h-18v-18l109 -18q80 0 117 45q-90 157 -199 263l-27 -109h-18l-18 18l9 27q0 38 -37 73l9 27l-9 9l28 18l-19 55h-18q-136 -90 -136 -200zM698 468l9 -28h45v28l-18 18h-9zM353 377h18v-18h-18v18zM643 350l-18 -18v-37h18l27 18q-13 37 -27 37zM190 323l-9 -28 l9 -9h27v18l-18 19h-9zM734 295l-9 -9v-9h27zM118 286v-18h9v18h-9zM598 268v-18h9v18h-9zM616 259v-9h18v9h-18zM888 223l18 -18h9l18 18l-9 27h-9zM417 250h9q20 0 27 -45l-27 -18q0 36 -18 36zM217 196l-9 -37l27 9l-9 28h-9zM244 123v-18h9v18h-9zM788 69v-9h18v9h-18z M235 -103l28 -10v-36l-19 -18q-36 18 -36 54zM643 -248v-10h18v10h-18zM253 -339l19 -27v-18l-19 -19h-9l-27 28v9zM417 -647l9 -9v-18h-28v9zM299 -693h36v-27l-18 -18h-27zM308 -946q36 -49 36 -82l-91 -45l-18 27v18q0 50 73 82zM362 -1300l55 -9l-9 -9v-9l-10 9h-9 l-27 -9v27zM362 -1436h9v-18h-9v18z" />
<glyph unicode="'" horiz-adv-x="219" d="M89 995q62 -39 62 -92v-39q0 -53 -18 -53l5 -4q-22 -46 -40 -53l5 49q0 33 -35 87h8v9h-4l-4 -4h-5q-13 16 -13 30q10 0 13 22l22 -4v4l-4 26zM81 925v-26h4q18 9 18 22l-5 13h-9zM133 912l-9 -13v-4l5 -5v-4l13 4v13z" />
<glyph unicode="(" horiz-adv-x="444" d="M344 1081v-15l-6 -7l6 -7v-15q-24 0 -52 -44q0 14 -20 14q30 74 72 74zM252 1015l20 -8l-6 -7v-15h26l-20 -59h-6l-7 8h-7l-13 -23h27q0 -44 -46 -44v-15l19 -7v15h13q-26 -109 -32 -295h-13v-15h13v-59l-7 -22l7 -37v-29l6 -229l-6 -22l6 -7h-13v-8h13l7 8 q51 -354 111 -354l26 -37v-15h-13q-130 84 -190 184l7 8v7q-39 0 -111 162l-20 81h13v8q-26 0 -26 147v67l20 29l-20 44q13 113 46 236q19 0 19 -22l20 22l-13 15h-7l-6 -7h-7v7q0 37 112 214l32 52l7 -8h6l13 15l-6 7zM207 934h13v14zM194 867h13v15zM154 757v-8h13v8h-13z M154 742l13 -15v15h-13zM135 727v-15h6v15h-6zM200 675v-14l13 14h-13zM128 484l7 -30h13l13 15v7l-7 8v7zM82 484v-8h13v8h-13zM95 454v-15h7v15h-7zM30 439h7v-14h-7v14zM115 410v-15h7v15h-7zM167 270v-7h14v7h-14zM154 100v-14h7v14h-7zM226 27v-15h7v15h-7z" />
<glyph unicode=")" horiz-adv-x="460" d="M72 1070q98 -19 231 -217l-115 -15q-41 189 -116 189q-22 17 -22 36l7 7h15zM325 817q88 -156 94 -283l-7 -7v-7q22 0 22 -80v-15h-29v-14q29 0 29 -15v-29q-22 0 -22 -14q0 -15 22 -15v-14l-210 -22v145q0 179 -22 355zM246 606v-7l14 -14l22 14l-7 22h-15zM246 534v-7 h14v7h-14zM238 505v-14h8v14h-8zM246 375l21 -22h15l14 14v37h-21zM434 310q0 -236 -174 -406q-36 -70 -188 -159h-15v14q116 113 131 261q21 74 36 275zM246 -31v-7h14v7h-14z" />
<glyph unicode="*" />
<glyph unicode="+" />
<glyph unicode="," horiz-adv-x="294" d="M175 211q0 -62 99 -135q-29 -3 -86 -73h-13l7 -22q-13 -34 -25 -34q-3 38 -62 112l13 12l-6 5h-7l-24 -5l-31 33q117 27 117 101l6 6h12zM188 121l12 -11v11h-12z" />
<glyph unicode="-" />
<glyph unicode="." horiz-adv-x="166" d="M108 151q21 0 63 -63v-13l-38 19v-6l-6 6h-6q-34 -13 -38 -31l50 -38l7 6h18q-22 -44 -50 -44l-19 6l-6 -6q0 19 -13 19l-19 -6l13 18q0 19 -38 19l-6 32v12h13v7l-13 19q0 12 31 12v25z" />
<glyph unicode="/" />
<glyph unicode="0" horiz-adv-x="442" d="M253 760h13q118 0 177 -241l-6 -38h6q13 0 13 -31v-114q0 -196 -139 -355l-57 -13h-26q-12 0 -12 19l-26 -12q-38 6 -38 19v6h26v19q0 11 -32 19v13l-13 158l7 6v7q-15 0 -45 443q79 95 152 95zM234 735v-19h7v19h-7zM234 652q-38 -80 -38 -228q22 -380 70 -380l25 108 q-31 253 -44 500h-13zM82 633h7l44 -449v-7h-6v13h-19l-13 -13l6 -6l-6 -6l6 -7h26v13h6l6 -76q-12 0 -12 19h-7v-13q26 -32 26 -50v-45l6 -6v-6h-19q0 12 -25 12l12 19v19l-19 19h-31q-70 171 -70 304q0 124 82 266zM367 557v-19l13 -12h6l19 19v6l-6 6v7l6 6h-6v-6l-6 6 h-13zM298 494v-6h12v6h-12zM70 462v-6h12v6h-12zM13 304q9 -25 19 -25l12 12v19zM25 298h13v-13zM63 291v-12h7v12h-7zM317 184v-19h12v19h-12zM108 177h12l-12 -12v12zM380 158v-12h13zM76 114v-13l13 13h-13zM253 25l-19 -31l26 -13l25 6v32zM253 13h7v-13h-7v13z" />
<glyph unicode="1" horiz-adv-x="331" d="M278 831h7l6 -33l-26 -397l20 -324q46 0 46 -66l-7 -20h-185l-79 -7l-7 73h7l52 13v47l-6 244l13 14v6l-13 20v205q0 10 -27 20l-72 -7l-7 20l126 27q10 -27 20 -27h13v14l-7 33l40 26l7 -7q0 34 39 34l-6 6v13zM251 778v-13h7v13h-7zM225 659v-13h7v13h-7zM185 646v-7 h14v7h-14zM185 487v-13h20l-13 13h-7zM232 480v-13h6v13h-6zM218 394l14 -13v13h-14zM258 209q-11 -26 -26 -26l6 -7v-7l-6 -6v-7h13l26 47l-6 6h-7zM245 117v-7h13v7h-13z" />
<glyph unicode="2" horiz-adv-x="597" d="M357 793q239 -27 239 -218v-33q0 -42 -47 -152v-7l13 -112l-26 -34h-7q-33 17 -33 53l7 27l-7 33l7 7h-7l-20 -7v13h-13l7 -6v-14q0 -13 -20 -13v-7l7 -6v-7l-20 -13h-7q0 31 -26 40l-7 -7v20h-13v-27q20 0 20 -13v-6q-27 0 -27 -20l7 -7l-7 -33v-20l7 -33l-7 -33l7 -59 l-7 -7h20l-7 -7v-13h7q0 17 93 27q0 9 79 26l-20 20l7 33h13q5 -40 13 -40q0 -68 -39 -73l6 -6v-13l-6 -7v-7l-7 7h-7q-48 -79 -125 -79h-67l-13 39h-20v-13l14 -20v-6h-7q-53 0 -53 39v13l-7 -6l-19 13q-22 -7 -27 -26q-99 50 -99 86l6 6h-6l-7 -6q-11 33 -33 33l-20 -7 l-13 13l7 40l6 -7h7l-7 7v7q45 99 73 99l-7 7v13q20 0 20 26l60 60v-7l-7 -20l20 20l-13 13l66 47l7 -7h6l27 66v27q26 0 39 26l-6 7v6l26 7v13q-20 0 -20 14l27 13l7 -7q0 33 26 33v13q-20 106 -159 106l-92 -33v40l26 7l7 -7q0 41 178 46zM318 773v-13h13zM423 767l-6 -7 v-6l6 -7h14v7zM490 720l6 -6h7v20zM112 714l14 -13h6l7 6h7l6 -6v-7l-26 -26v-7l92 -66l7 -27l-7 -6h14v-7q-12 -53 -27 -53l-86 73l13 13v7q-20 0 -20 -20l-52 40q26 99 52 99zM93 668l-7 -7v-7l7 -6h6l7 6v7l-7 7h-6zM79 628v-13h7v13h-7zM417 615h13v13zM146 621v-6h13v6 h-13zM390 595v-7h14v20zM172 601l-7 -19h7l7 6v13h-7zM132 575v-7h14v7h-14zM450 568v-6h13v6h-13zM66 568l106 -72v-7h-20q-86 32 -86 79zM562 562v-14h14v14h-14zM390 555l-13 -20v-6h13l7 26h-7zM318 476v-14h13l26 47v6h-6zM443 515v-13h7v13h-7zM357 456h14v13z M298 456v-13h13v13h-13zM324 436h13v13zM437 449v-6l13 -14h13v7l-13 13h-13zM371 436v-13l19 -7l-6 20h-13zM503 416v-13h7v13h-7zM377 390v-7h13v7h-13zM179 337v-14l13 14h-13zM318 323v-13h13v13h-13zM417 304l13 -14h-13v14zM132 277v-6h7l20 6v13h-13zM245 290v-6h13 v6h-13zM172 284v-7h13v7h-13zM185 237l-6 7h-14q0 -20 -33 -20q0 -20 -26 -39l6 -7v-7l-6 -26q56 -46 172 -46h20v-14h6l7 27l-13 13v13h26l-13 20v40q0 13 20 13v7h-7l-20 -7v7q2 26 14 26l-7 7v6l7 27q-108 -26 -133 -47zM437 290h6l7 -6h7l-20 -27l-7 7zM126 257l-7 -20 h7l20 7l-14 13h-6zM443 244l7 -7v-13h-20v7zM357 224v-13h14zM351 204v-13h6v13h-6zM73 191v-13h13v13h-13zM20 112h6q0 -13 20 -13v-20l-6 -7l13 -40v-59h-13l-7 33l-13 -13q0 -20 20 -20v-7h-20q-20 7 -20 40l7 6l-7 20zM344 105v-13h7v13h-7zM205 72l20 -7l7 7v7l-7 6h-7 zM159 72v-13h13v13h-13zM318 72v-13h6v13h-6zM483 72v-20h13l-6 20h-7zM331 65v-13h6v13h-6zM265 59v-13l20 -7h6v7zM430 39l13 -13h14v13l-14 13zM13 46l20 -20l7 20h-27zM377 39v-20l13 -13l7 6v14l-7 6v7l7 7zM185 39v-7h14v7h-14zM404 -1v-13h6v13h-6zM423 -107h7v-13 h-7v13zM377 -126h7v-14l-13 -13l-7 7v6zM377 -272l13 -27v-6q-8 -27 -59 -27v27h13l-7 6v7q7 20 40 20zM397 -464h13v-7h-13v7zM417 -464h13v-7h-13v7z" />
<glyph unicode="3" horiz-adv-x="515" d="M291 802q63 0 152 -73q73 -92 73 -166q0 -97 -165 -238q152 -61 152 -165v-13l-20 13h-20q9 -40 20 -40h7l6 7h7v-14l-13 -13l6 -20q0 -30 -73 -79l-6 7h-7v-7l7 -7q-134 -53 -238 -53h-40q-95 0 -139 186v6q36 113 112 113h14q26 -13 26 -40l-26 -106q32 -92 92 -92 q119 21 119 105q27 0 27 27q0 33 -13 33l-20 -7v7q0 73 -146 119l-33 7l-6 -7h-14q-34 0 -39 20v7q192 37 192 72q45 19 86 133l6 53q-22 185 -152 185q-93 -13 -93 -86l86 -146l14 -39q-17 -52 -40 -60h-46q-100 0 -100 165q0 159 100 159q65 47 145 47zM86 557l13 -13v13 h-13zM371 477v-13h13zM251 299v-13l14 -14h6v27h-20zM344 61l-7 -7v-27l14 -13h6q15 0 20 33zM251 -39v-6h20l7 6v7z" />
<glyph unicode="4" horiz-adv-x="510" d="M311 825h7l6 -6l7 6h33l7 -6l6 6h7l6 -6l7 6l33 -6h40v-7q-3 -99 -13 -99l6 -7v-6l-13 -166l7 -6l-14 -245h33l7 7h7l6 -7v-13l-6 -7v-7q20 0 20 -13v-13q0 -14 -80 -33l-7 -99v-27l53 13l14 -66l-7 -6h-53l-33 -7v13q-80 -26 -152 -26q0 -60 -27 -60v-20l27 -6l-7 -33 l13 -14l-19 -19l6 -20l-20 -14v14h-19v-14h19v-13q-34 0 -53 33l7 7v7l-7 26h7l-7 7v6l7 20q-13 0 -13 20l13 40v6l-7 27l7 20h-7l14 39v33l-7 7l7 7v13q0 18 -47 86v13h-13l-112 -7l-7 7q42 106 60 106l26 -7l20 33v14l-13 20q12 63 145 297h7l-7 7l53 106h7v-13h13l-13 19 q0 20 20 20l-7 7v6zM344 806v-20h7v20h-7zM404 792v-13h6v13h-6zM331 746v-7l20 -6v13h-20zM423 726l14 -13h6v13h-20zM397 720v-14h7v14h-7zM298 653q-53 -157 -159 -350l73 -13l6 6h7q49 -5 66 -20l20 20l-13 20v33l6 -7h27v14l-13 13h-7l-7 -7h-6v47l6 6v7l-6 6l6 7h7 l13 -13q13 0 13 20l-6 20l-27 -20v178l7 7l-7 26h-6zM337 634v-14h7v14h-7zM337 607v-13h7v13h-7zM371 587h13v13zM417 594v-13h6v13h-6zM324 581l-6 -7v-7h6l7 7v7h-7zM384 561v-13h6v13h-6zM185 548v-7h14v7h-14zM324 309v-6h13v6h-13zM40 243l13 -13h7v13h-20zM238 243 l13 -13v13h-13zM285 157l-7 20q-10 0 -20 -26l7 -7h6l14 13v-6l-27 -34v7l7 7v6l-7 7h-7l-13 -40v-33l13 -13h27l59 13l-6 46v14l6 6l-13 47zM278 91l13 -13h-13v13z" />
<glyph unicode="5" horiz-adv-x="557" d="M56 822l86 -46q47 0 47 -27l20 7l152 -26l106 19l6 -6h13v13h7l20 -7l-7 7v7l33 13v-13h7q0 26 13 26l27 -20q-32 -112 -47 -119l-19 7q0 -13 19 -13l-39 -47l-7 7h-13v-7h13q-100 -73 -185 -73h-20q-73 14 -179 53v-6l-13 -99l13 -20l60 13l6 -7h7v7l-7 7l126 13 q146 0 146 -66h6l14 13q63 -64 72 -139v-40q0 -212 -284 -304h-40q-71 0 -145 92v7h13v13h-13v-13q-60 60 -60 106l7 7l-7 33q16 139 112 139h47q61 0 73 -86q0 -38 -53 -80l-7 7h-13q0 -33 -47 -33q0 -14 -33 -14q0 -19 -19 -19v-7l19 -26q0 26 14 26q0 -35 92 -53 q40 0 126 53l7 -7l6 7v7l-6 6q39 23 39 106v7q0 129 -132 165l-66 13q-28 0 -126 -46l-20 53v126q0 178 33 284zM268 697h7l13 13h-7zM314 710l-6 -7v-6h20zM381 710v-7h13v7h-13zM341 697v-7h13v7h-13zM420 697v-7l13 -13l7 6v14h-20zM235 690v-7h13v7h-13zM334 630v-13h7 v13h-7zM89 597v-13h14v13h-14zM56 591v-14h14v14h-14zM275 591v-14h6v14h-6zM189 584v-7h13v7h-13zM374 584v-13h13zM30 452v-14h6v14h-6zM242 452v-14h19l-13 14h-6zM367 366v-14h14zM169 286v-6h13v6h-13zM63 233v-6l7 -7h13v7zM50 161l20 -14v27h-7zM407 94v-13h20v13 h-20zM96 61l7 -6h6v20zM169 41v-13h13v13h-13zM175 2v-13l14 13h-14zM162 -5v-13h7v13h-7z" />
<glyph unicode="6" horiz-adv-x="523" d="M318 732q53 -4 53 -26l6 7h7q27 -10 39 -34h-19v-6l19 -7v13l20 -26l-112 -40q-10 27 -20 27h-66q0 -80 -53 -80q0 -9 -99 -39v6l-20 20q35 103 139 159q59 26 106 26zM265 693v-14l6 -6v-7l-6 -6h13v-7q33 3 33 20l7 -7h6v7h-6l13 33l-7 7h-39zM159 640v-20h6l7 20h-13z M179 633v-13l20 7v6h-20zM450 640l7 -7l-7 -33l7 -20h-7l7 -6v-7q0 -28 -27 -53l-7 7l-33 -7l-26 13v7h13l-13 13l-7 -7l-26 60zM410 567v-13h7v13h-7zM232 560v-86h105q129 0 186 -231v-73q-28 -271 -225 -271h-40q-175 0 -245 218l-6 46h6q-13 26 -13 73v93q0 39 26 79h-6 q25 99 73 99q0 11 139 53zM410 540v-13h7v13h-7zM60 514h13v-7h-13v7zM218 454v-6l7 -7h7v7l-7 6h-7zM179 421v-13h13zM258 402v-14h7v14h-7zM397 395l-7 -7v-6h7l7 6v7h-7zM238 375v-7q33 -238 33 -324l40 -39q22 0 26 105q-17 252 -59 252zM357 355v-6h14v6h-14zM344 316 v-7l7 -7h6v7l-6 7h-7zM476 302v-13h7v13h-7zM20 269v-13l13 -13l7 6v20h-20zM79 210v-7l14 -13l13 20l-13 13zM371 177v-14h6v14h-6zM112 157v-7l14 -13l13 13v20h-13zM450 157v-14h7v14h-7zM106 130v-6h13v6h-13zM152 -55h13v13z" />
<glyph unicode="7" horiz-adv-x="521" d="M460 814q46 -4 73 -73l-27 -4v-1q0 -12 37 -36l5 -100l-28 -90h-7v6q0 20 -11 22l-2 -20h-6l-71 20l-14 1l3 33q-27 -14 -59 -14q-7 0 -15 1l-166 74q2 18 18 18h3v1q0 9 -24 21l1 13l-7 1l-33 -4l-3 -26l12 -21l-27 -4l-6 7q-2 -20 -43 -36h-7q-24 130 -24 173v9l19 58 l13 -1l6 -7q13 -2 28 -63h6l122 22l-1 -13l21 12l26 -3l137 -98v-7l27 5l-13 80l3 40zM445 715l13 -1l1 13zM61 736l-1 -20l14 12v6zM92 706l-15 -18l19 -15l13 -1l2 26zM303 688l-1 -13l14 12zM353 650l-2 -19l6 -8h7v6l-5 21h-6zM80 641l-2 -13l14 -1l1 13zM475 606 l-1 -13l13 -1zM362 603l-1 -13l19 -2l-12 14zM415 598l-1 -6l13 -1l1 6zM505 564l-15 -12v-7h6l21 5l1 13zM507 511l-1 -7q-2 -21 -100 -157q-53 -148 -59 -221l-6 7l-7 1l6 -7l-5 -53l-7 -6v-7l-6 8l-20 1l-1 -13q18 -2 18 -13v-2l-31 -50l-6 7l-19 2l-2 -14l6 -7v-6 q-23 -16 -43 -16h-5l-53 5q-66 5 -75 126l20 -2q-22 23 -22 49v6l8 19l-6 1q6 77 108 176l57 42l7 -1l-8 -6v-6l19 -9l2 20l-13 1q81 48 130 128zM424 478l-1 -13l6 -1l2 13zM337 399l12 -14l2 13zM230 316l-1 -14h7l1 13zM265 253l-2 -20l14 12l1 7zM309 156l20 -2l1 13 l-6 1zM163 149l-1 -7l26 -9l-6 8v6l8 6l-7 1zM168 129l-2 -14h7l1 13zM178 101l-1 -13l13 -1zM118 93l-1 -13l6 -1l2 13zM248 62l-1 -13l6 -1l2 13zM259 34l6 -7l7 -1l1 20zM218 18l-2 -13l7 -1l1 13z" />
<glyph unicode="8" horiz-adv-x="538" d="M215 840l13 -13v13h27q155 0 209 -114l6 -40v-61q-10 -85 -33 -87h-7q0 -33 60 -87q41 -60 41 -128v-81q0 -159 -188 -228q0 -48 -14 -74v-13h7l-7 -68v-53l7 -27l-7 -20l7 -41l-20 -13h-20l-27 148l20 107l-7 27l7 7v6h-14l-13 -73l7 -21q-5 -40 -14 -40l7 -34v-60 l-20 -20q-34 36 -34 101l7 100v41q-185 0 -215 248v20q0 105 87 256q-60 85 -60 114v47q0 133 188 161zM302 739v-33l21 -87q-7 -27 -27 -27q0 -32 60 -41q20 23 34 94q-31 101 -67 101zM228 672v-13q5 -67 41 -67q0 49 13 67l-13 13l6 47h-20q-27 -11 -27 -47zM161 706v-14 h14v14h-14zM67 605v-13l14 13h-14zM94 578v-13h7l33 7v6l-6 7l6 7v13h-13zM376 545v-14l7 -20h13v7l-13 27h-7zM309 477v-26q7 -21 40 -21h7l20 21v20l-20 20h-33zM410 457v-20l13 -13h20v20l-13 13h-20zM114 451v-14h7v14h-7zM262 444v-7l13 -13h7v13zM175 437 q-76 -83 -81 -161v-61l14 -60l-7 -7l54 -47l80 -27v7l-20 188l7 7l-7 67v67q0 11 -40 27zM470 397v-7h20l-6 20zM249 397v-7q6 -216 26 -296l-6 -6v-14h27v20l-7 48h7q-21 48 -21 134v7l-6 6l6 7v7l-6 40l6 34zM316 343v-13l7 -74l-7 -7v-7l20 -154q67 6 67 47l-7 20l7 60 q0 53 -87 128zM464 289v-13h6v13h-6zM410 256v-14h7v14h-7zM222 21v-14h6v14h-6z" />
<glyph unicode="9" horiz-adv-x="461" d="M217 750q35 0 123 -45v-11h-11v-11h11v11h12l28 -17v-5h-79l-5 5l-6 -5h-22l-23 5l-22 -5l-6 5v6l-5 -6h-146q60 63 118 67l16 -11h6q0 17 11 17zM228 716v-5h12v5h-12zM167 705v-5h11v5h-11zM55 666h67l28 -6v6l6 -6h44l-16 -134q11 -95 33 -95q17 3 17 45v140l-11 44 h67l6 -5h5l6 5v-16h11v11h73q17 0 33 -62l-16 11h-17v-28h5l23 6q28 0 28 -73v-61l-6 -23l6 -22q0 -34 -28 -34l5 -5v-6l6 6h11l-11 -68h-22v12h-12l-11 -34v-22l11 -28l6 5h6v-5l-12 -17l-16 5l5 -5v-6l-5 -17l11 -11q-46 -101 -107 -101v6h-11l11 -17l-78 -11 q-103 0 -151 90q-17 27 -17 72v12q13 78 73 78h22q30 0 39 -22l-5 -6l5 -6v-5q0 -33 -56 -90q10 -61 62 -61q57 0 106 72h6l-6 6v6q40 88 40 162v28q-61 -39 -129 -39q-132 0 -179 173l-6 68q0 38 45 78zM77 610v-11h6v11h-6zM374 588v-12h6v12h-6zM290 537l6 -5h22l6 16 l-17 23q-17 -6 -17 -34zM167 560v-6h11v6h-11zM352 543v-11h5v11h-5zM307 526v-11h11v11h-11zM413 509l-5 -5v-6l11 -11l5 5v6zM335 487v-6l11 -11l11 11v17h-11zM32 492v-5h12v5h-12zM296 481l11 -11h5l17 17l-5 5h-17zM408 481v-11h11v11h-11zM144 464l17 -33h6v5l-6 6v6 l6 16l-6 6h-5l-6 -6h-6zM380 464l11 -11v11h-11zM240 459v-11h5v11h-5zM402 420v-6h22v17h-11zM105 425v-11h6v11h-6zM156 425v-11h11zM329 414v-22h17l11 11l-11 11h-17zM105 392v-6h11v6h-11zM279 386v-11h17l-12 11h-5zM352 375h11v11zM408 364v-12h5v12h-5zM329 330v-6 h11v6h-11zM363 324v-5h33v11h-5zM307 229l11 -11v11h-11zM329 190v-11h11v11h-11zM346 179v-11l11 11h-11zM256 112v-6h12v6h-12z" />
<glyph unicode=":" horiz-adv-x="219" d="M113 500q58 -30 58 -63q0 -28 -32 -68l-26 5l-15 -10q-11 0 -11 16l-5 -6h-5q-23 0 -37 74q0 52 73 52zM71 442v-10h6v10h-6zM129 437l10 -10v10h-10zM113 411v-21h11l5 16l-5 5h-11zM103 291h5q40 0 63 -63q-10 -68 -53 -68h-20q-50 0 -58 89q16 42 63 42zM108 191v-15 l10 -11h6l15 16v5l-5 5v6l5 5h-5v-5l-5 5h-11z" />
<glyph unicode=";" horiz-adv-x="286" d="M158 545q34 0 79 -67q-21 -85 -43 -85h-12l6 6v6l-18 18h-18q-17 0 -19 -30h-6q-30 18 -30 42l6 19h-19v30q0 49 74 61zM158 490h12v12zM164 325l30 -61v-6l-24 19h-6v-13h-6l-6 7h-7q0 -13 -18 -13q0 -10 31 -18l6 -24l-6 -6v-13h6l6 6l6 -6h12l18 19v12l-12 18v12 l49 -48q-73 -61 -73 -92h-18l6 6v25q-31 0 -55 42l24 12l-6 7l6 30l-6 6v6l-18 -12l12 -24q-12 0 -12 -19h-6l-37 31v12q73 0 98 85h6zM139 234v-12h13v12h-13z" />
<glyph unicode="&#x3c;" />
<glyph unicode="=" />
<glyph unicode="&#x3e;" />
<glyph unicode="?" horiz-adv-x="633" d="M262 993q110 0 261 -84v-8l-16 -23v-23q14 -29 84 -61l8 -46v-15q0 -161 -138 -246q-78 -51 -230 -99l-45 -31q19 -161 68 -161h54q77 0 77 92l15 -15v-23q0 -71 -115 -84q-130 0 -130 199q0 150 207 245q69 54 69 123q0 199 -245 199q-62 -45 -62 -69q20 -4 39 -69 q40 -3 76 -107v-46q0 -62 -61 -62h-46q-115 28 -115 215q0 126 176 191zM530 794v-15l16 15h-16zM155 687l8 -23h38v23l-15 15h-8zM446 625v-15h8v15h-8zM461 610v-15l16 15h-16zM316 480l15 -16h8l15 16l-8 23h-7zM262 112q84 -32 84 -153q0 -86 -107 -92q-84 23 -84 46 l8 8q-31 0 -31 46v53q0 78 130 92zM2492 596v-8h-4v8h4z" />
<glyph unicode="@" />
<glyph unicode="A" horiz-adv-x="765" d="M279 775l6 1q212 -150 306 -196l7 -6l1 -12q-191 -140 -191 -161l1 -6l6 1l196 162q9 0 20 -23q-40 -3 -47 -148l2 -24l7 -6q-11 -61 -11 -124q0 -31 3 -63q12 -132 73 -132h5q62 5 83 80l17 13l1 -6v-5q0 -45 -70 -158l-21 -176q-90 13 -192 128l-1 6l-28 -21 q-28 9 -32 21l1 55l-76 -91l-17 131l-1 6l40 21l-3 42l3 31h-5q-13 0 -14 10l-1 12l17 7l-4 115l7 -6l6 1l-8 17v14q0 76 10 77l-7 18l-6 -7h-5l-1 6l6 66h-6q-8 0 -28 46h-5q-19 0 -32 14l5 7v6q-11 22 -19 22h-1l-34 -99l-6 -1l-12 66q17 1 17 17v2l5 7v6l-15 34l-1 12 l6 -5l30 3v3q0 14 16 16l-1 12q-14 31 -56 31q-6 0 -13 -1q76 80 76 102v1zM299 681l1 -12h6l-1 12h-6zM157 584l11 -53l4 -48l-3 -36l7 -6l-2 -42l14 -162l-174 -147l-9 29l-5 60l6 6l-7 6l-3 30l19 -11l12 1l6 7h6q-11 23 -20 23l-18 -2l1 -12h-6l-1 12q-1 17 -1 33 q0 151 123 290q25 27 40 28v-6zM214 493l12 -78q-6 -48 -19 -49l-2 17q-3 36 -3 60q0 49 12 50zM430 289l1 -12h6l-1 12h-6zM114 249l1 -6l12 1l-1 6zM190 207l2 -23l-10 -19l1 -6l11 1l12 -138l9 -23l-6 -7l20 -88l-6 -7l1 -6l11 -53l1 -18l-24 -2q-6 -1 -12 -1 q-123 0 -172 250l-2 18l158 122h6zM236 31q25 -19 80 -23l24 -131q-42 -40 -69 -42h-6l-3 35l-9 30h6l-16 53l5 7v6zM66 -26l1 -12h6l-1 12h-6z" />
<glyph unicode="B" horiz-adv-x="731" d="M98 -41l-4 -45l6 -7l-7 -6l8 -58l13 -73l-19 -70l4 -27l-11 -37l-1 -7q14 -45 25 -46l-7 -6l-1 -13l6 -7l-7 -6l-1 -7l4 -13l-6 1l10 -34l-10 -2l23 -79l-10 -38l-2 -20l28 -37l-7 -6l-7 1l4 -33q-5 -53 -55 -53h-9l2 13q-24 2 -24 24v4l8 19l6 -7l13 -1l2 26h-6l-7 -6 l-7 1l1 13l7 6l-20 43l11 57l-25 47l19 34l-6 7l1 6l7 6l-6 7l2 26l8 -1l-4 33l-13 33l12 44l-6 1l7 6l2 26l-7 72l3 33l9 25q-9 113 -23 157l68 -24q0 -1 -1 -2zM165 -170q-47 58 -182 153l-5 20h2q43 0 90 156l26 148v39q0 157 -15 158l8 26l-34 284l146 -209l1 20 q-142 213 -142 247v1q1 9 1 17q0 86 -82 179l-6 1l14 12q0 -12 74 -52q39 -82 97 -87q116 186 183 186h4q23 23 127 35l77 -20l-15 -18l-1 -7l13 -1l-6 7l1 7l7 5h7q57 -35 57 -92q0 -5 -1 -11q-15 -29 -29 -30h-6l7 6v17q0 28 -14 50l7 6l1 6q-72 39 -101 42h-9 q-76 0 -145 -105l-31 -141q-2 -25 -2 -53q0 -90 25 -204l26 4l19 -14q56 13 159 97l19 -2l1 7l-13 1v6l30 37l19 -8l1 13l-13 1l5 58l14 12l32 -3l15 -60l-6 7l-7 1l-7 -6l-6 7l-14 -12l6 -7v-6l-7 -6l4 -20l7 -1l1 13l-6 7l27 11l19 -8v-7l-20 -5l-6 7l-9 -19h7l7 6l12 -14 l20 4l46 -141l-7 -6l-1 -13l7 6l7 -1q21 -82 21 -126q0 -7 -1 -13l-4 -52l-12 -64l6 -1l-17 -44l7 -1q-37 -117 -100 -239l-13 1l-120 193v7q38 128 44 205l4 118l-101 -31l9 -53l-3 -26q-35 -36 -37 -55l6 -7l-1 -7l-8 -19l5 -20l-8 -19v-72l-19 -70l-6 7l-13 1l-1 -6 l13 -1v-7l-16 -103q14 -22 14 -55v-12h6l91 214l110 -160l-14 -18l13 -1l-1 -7l7 6l7 -1l11 -14v-6l-67 -92l-6 -65q15 -2 24 -29l-22 -24l21 -61l-42 -35v6l30 37l-6 7l-7 1l-29 -31l6 -7l-19 2l-20 67l17 51l1 7q-14 33 -49 37q-49 -26 -52 -68l-13 1q-32 3 -32 15v1 q-32 -9 -63 -58l-68 24q-9 27 -20 28zM268 926l-7 -5l-1 -7l6 -7l13 -1l1 6zM586 827v-7l13 -1v6zM592 813l-1 -6l12 -15l7 6l1 7zM545 726l-1 -13q39 5 41 22zM584 722l-1 -13l14 12zM610 720l-1 -7l13 -1l1 7zM619 673l-1 -6l13 -1l1 6zM667 551l-1 -13h6l1 13h-6z M546 516l13 -1l1 13zM247 536q55 -87 55 -114v-2l-13 -300l-1 -7l-6 1l1 13h-6l-2 -19l18 -15l38 56l-6 7l10 45l2 19l-6 7l7 6l2 26l-4 99l10 45l-86 132zM672 387l-1 -19l14 12l-6 7h-7zM631 365l-1 -13l13 -1zM512 205l-1 -13l7 -1l1 13zM599 145l-1 -6l13 -2l2 20z M185 57l-1 -13q26 -2 44 -23l19 -2l22 18l1 19l-30 29q-33 -2 -35 -30zM355 -23l-1 -7l20 -2l-5 21zM466 -26l-1 -7l13 -1l1 6zM483 -54l12 -14l1 13zM285 -155l-2 -13h7l1 13h-6z" />
<glyph unicode="C" horiz-adv-x="690" d="M492 819l12 -12l-6 -18q32 0 60 -60h-18v-6l12 -12l18 12q2 -22 24 -36l-6 -30v-6l30 6q42 -54 72 -120q-150 -122 -150 -132h-12l-156 240h-6q-87 -108 -120 -324v-66q0 -61 30 -126l-36 18l6 30v6h-12l-12 -12v-6l12 -18l-72 -6l-6 6l-18 -84l48 36l6 -6l6 6v6h-18v6 l30 6l30 -18v12l18 -6l24 6q60 -30 60 -84h6v24l-6 6h6q50 -42 132 -42l186 60l6 -6v-6l-6 -18l-6 6h-6l6 -6v-6q0 -15 -240 -246q0 -18 -12 -18l-6 42l6 6q-12 0 -24 54h-6v-6l18 -60h-6l18 -48q-18 -6 -18 -36v-6l6 -6l-6 -6v-48l-6 -24l12 -72l-18 -30l6 -6v-6l-18 -138 l24 -36v-6l-12 -54l36 -60l-6 -18l6 -6h-12l18 -18q-6 -54 -24 -54q-32 0 -42 24l6 48l-36 90h6q0 18 -18 18v36l6 30l-24 6v24q54 0 54 72l6 66h-6l6 6v30l-12 108l6 36q-39 68 -78 96q0 15 -90 66q-2 33 -54 108l-12 30h6l-48 78l-12 42h6l24 18v6q-24 0 -24 24l-6 -6h-12 q-14 0 -30 78h12v6q-30 0 -30 78q0 121 216 324v-12h18q12 0 12 36l120 36l-6 -6v-18h12l12 12q0 12 -18 12v6l66 12l12 -12h6v12l-6 30zM444 717v-12q4 -60 48 -60v18q0 12 -36 12v6q13 30 42 30v12l-6 6v6q-48 -6 -48 -18zM402 705v-18h6v18h-6zM516 699l-12 -18v-6l6 -6 v-6l18 6v18zM324 687v-18l6 -6v-6h-12v-30h24v24l-6 6v6h12v12l-12 12h-12zM378 687v-24q24 0 24 -24h6v30l-6 -6h-6q0 24 -12 24h-6zM510 591v-6l6 -6h6v6l-6 6h-6zM240 579v-24h12l-6 24h-6zM462 567v-12h6v12h-6zM552 501v-6l24 -6v12h-24zM528 495l6 -24h6v24h-12z M102 393v-12h6v12h-6zM84 351v-6h12v6h-12zM138 273v-12l12 -12l6 6v18h-18zM96 231l-6 -18h18v6zM192 219v-6l12 -12l12 18l-12 12zM120 183v-6l12 -12h6v6l-12 12h-6zM78 135v-12h6v12h-6zM294 45v-6l6 -6h6v6l-6 6h-6zM348 21v-24l6 6h6l-6 18h-6zM492 15v-6h12v6h-12z M258 -21h12v12zM354 -15v-6l18 -72h12l-24 72h12v6h-18zM414 -51v-12h12zM138 -75l12 -12v-6l-12 12v6zM372 -99l12 -12v12h-12zM270 -111v-6l12 -12l6 18h-18zM174 -141v-6l-12 -12v6zM108 -147h6q-9 -54 -24 -54h-12l-12 12v12q0 9 42 30zM378 -315v-12h6v12h-6zM372 -747 v-12h12z" />
<glyph unicode="D" horiz-adv-x="828" d="M366 1239q102 0 102 -84l-6 -6h-12q0 30 -12 30l6 6v12h-6v-12l-18 12h-54l-42 -30l6 -6v-6l-18 -78l60 -96q86 -75 228 -144q228 -206 228 -516h-6l6 -18q0 -101 -54 -246h-12l-228 462h-6q-10 0 -18 -30h6l6 6l222 -444q-65 -165 -258 -318q-36 -56 -36 -78l-6 6h-6 l6 -6l-30 -138h-6q0 145 -132 300q-69 57 -198 138q-10 27 -36 42l-12 -12l-30 12l48 78h6l6 -30l-6 -24l6 -6h6q0 19 24 42v12l-12 12h-12l-6 -6h-6v6q96 216 96 276l6 -6h12v6h-12l6 6v6l-6 6h-6l6 60v48l6 126l-6 30q9 24 18 24l48 -54q0 30 30 30l6 -6v6q0 12 -18 12 q-6 34 -48 90q0 22 -36 72l-24 84l12 24l-18 18v48q0 129 54 180l132 -264l-12 -12v-6h6l6 6h6q56 -120 84 -150h6v6q0 18 -42 96l18 6v18l-12 12l-18 -12l-48 96h6q-103 175 -108 210q73 66 162 66zM240 1143l-6 -6v-6l12 -12l6 6v6zM366 945l6 -6h6v18zM252 909l-6 -6v-24 h18l-6 -6v-6l12 -12h12v24q-18 0 -18 18zM414 855l-6 -6v-30h12l6 -6l6 6v12l6 18h-6zM222 783h12v12zM618 783v-12h12zM216 765v-12h6v12h-6zM462 765v-12h12v12h-12zM270 747v-12l12 -12l6 6v18h-18zM246 735v-12l-6 6h-12v-6l24 -12h6v12zM516 729v-12h18l-12 12h-6z M282 699v-6h12v6h-12zM432 687v-12h12l6 6h6l-6 18h-6zM468 693v-6l12 -12h6v24zM510 675v-12h12zM708 675v-6h12v6h-12zM408 645v-18h12v18h-12zM684 639l12 -12h6v12h-18zM270 609l12 -12h6v12h-18zM540 609v-12h6v12h-6zM204 603v-6h12v6h-12zM300 603q0 -30 -24 -30v-6 q20 -25 96 -48q-16 54 -66 84h-6zM528 573v-12h12v12h-12zM480 549v-12l12 12h-12zM618 549v-6h12v6h-12zM444 531v-6h12v6h-12zM162 477v-6h12v6h-12zM414 435v-30q0 -32 -24 -42l-18 18v12l6 6v6l-36 -18v-6q0 -129 -48 -342l-6 6h-12l-12 -12v-6l12 -12l6 6h6 q0 -100 120 -186l-6 -6v-6l12 -12l30 6v18l-6 -6h-12q84 303 84 438q0 96 -60 186zM246 435h12v12zM648 417v-6h12v6h-12zM792 405v-6l6 -6h6v6l-6 6h-6zM192 387v-12h6v12h-6zM300 375v-6l12 12v6zM546 363v-12h6v12h-6zM222 345l12 -12l6 6v-12l-6 -18h12l6 6h6 q-14 42 -24 42zM390 351h12l6 -30v-12l-12 -12l-24 30zM282 315h12v12zM240 297v-12l18 -6v6l-12 12h-6zM402 267l24 -30l-30 -30l-18 12q16 48 24 48zM186 237l-6 -6v-12h6l6 18h-6zM126 225v-12h6v12h-6zM144 189v-12l12 -18q27 12 30 24l-18 18h-12zM396 195h12l12 -12 q0 -31 -18 -36h-6l-12 12v24zM594 171v-12h12zM618 135v-12h12v12h-12zM138 129v-6h12v6h-12zM180 99h12v12zM384 117h18l12 -12l-18 -18l-12 12v18zM228 93v-6l12 -12v6zM126 81l-6 -6v-24h24l6 18zM216 51v-12h12v12h-12zM150 39l-6 -6v-18h18v12zM174 33v-12h12v12h-12z M114 27v-12h6v12h-6zM192 -15v-12h6v12h-6zM228 -27v-12h6v12h-6zM264 -27v-6h12v6h-12zM162 -33v-12h6v12h-6zM222 -63v-18l12 12l-6 6h-6zM510 -69v-12h6v12h-6zM240 -75v-12h6v12h-6zM486 -81v-12h6v12h-6zM564 -87v-6h12v6h-12zM390 -87h6v-12h-6v12zM258 -117v-6l18 -6 v6l-6 6h-12zM312 -129v-6h12v6h-12zM264 -159l18 -18h12l12 12v30h-18zM504 -165v-12h6v12h-6zM228 -177l24 -18l-12 -36h-18l-18 18v12zM366 -213v-12h6v12h-6zM288 -417h12v-12h-12v12zM378 -453h6l6 -18l-6 -6h-18v12zM288 -489h12l12 -12v-12l-18 -18h-24v6q6 36 18 36z M276 -723h6q18 0 30 -54v-6q-30 -42 -78 -42l-12 12v36q0 34 54 54zM360 -729h6v-12h-6v12zM342 -1035l6 -6h6l18 6l6 -6v-12h-48v6z" />
<glyph unicode="E" horiz-adv-x="770" d="M318 927h13v-6h-13v6zM681 849h19l72 -259l-331 -233h-6v13h-13v-13l6 -6v-7q-92 -65 -110 -65l-6 7q0 -26 -13 -26l-7 6h-6v-6l19 -20l-6 -6h-7l-19 13q0 -13 -26 -13v-7q19 0 19 -12v-13l-19 -7q13 -32 39 -32q0 -18 39 -39v-7l6 7q71 -7 84 -20q0 13 20 13l19 -13 l-6 -19h13l6 26l-6 6h32q0 -19 13 -19h6q0 38 72 52q110 63 110 142l19 13l13 -32q-37 -123 -71 -123l6 -20l-45 -77l-6 6h-20v-6l20 -7l-20 -39l-6 7h-7l-26 -26h13q0 19 13 19h7q-46 -80 -59 -84v13h-13v-13l7 -6v-7h-13l6 -6l-6 -20l-7 7h-6v-7l6 -6l-25 -7l6 -6v-13h-13 v13l-19 -13l-7 6h-6l6 7v13h-6l-7 -7l-6 7h-7l-19 -20v-6h6l20 6l-20 -32h-6l-7 6h-6l-7 -32q0 -32 33 -32v-7h-20v-13q26 0 26 -26h20l-7 -32h-6l-7 6h-6v-6q13 0 13 -20l-7 -97h-6l-39 13h-13l-6 -6h-7l-6 78l6 19q-13 0 -13 -19l-97 77l6 7v6l-13 13v-13q-40 31 -45 65 h13v19l-58 52v13h13v7q-11 26 -26 26v6l19 32l7 -6h6l13 13v13h-19l-20 -13l-13 45v52l7 32l-7 -6h-6v117l-7 6l7 6l-7 46v45h7v-13l13 13q-20 0 -20 13v13l7 7l-7 6v7l7 19l-7 6v7l7 6v7l-7 6l7 33v13h-7q0 113 52 149q88 68 143 90l19 -6l-6 6v7q21 13 175 32 q114 22 194 110zM648 785v-13h13v13h-13zM1201 757h18v-6h-18v6zM1453 721h6v-18h-6v18zM648 700v-13h7l6 7h7l6 -7v7l-6 6h-20zM383 674h6l13 13h-6zM435 674l19 -13v26h-6zM325 668v-7h13v7h-13zM260 655v-13h6v13h-6zM325 648v-12h6v12h-6zM668 642v-6h13v6h-13zM305 636 v-13h7v13h-7zM234 623v-13h6v13h-6zM396 623v-20h13l-7 20h-6zM454 616l7 -6v-13l-7 6h-6q0 -13 -110 -26l-85 -84v13h-13v-13h13v-13h-32v-13h6l20 7q-17 -25 -26 -149h13q0 28 52 58v-7q26 0 26 33q72 46 220 175v6h-45l-13 13l6 7v6l-6 7h-7l-6 -7h-7zM700 623v-13l13 13 h-13zM247 616v-13h6v13h-6zM512 616v-13l13 13h-13zM182 610v-13l20 -7h6v7zM603 571v-13h7v13h-7zM169 564v-13h7v13h-7zM137 558v-7h13v7h-13zM551 558v-13h13v13h-13zM143 538v-13h13v13h-13zM234 525v-13h19v13h-19zM558 519v-13l13 13h-13zM545 512v-12h6v12h-6z M202 506v-13h13zM454 506v-13l13 13h-13zM78 493v-6l-12 -13v6zM-317 480h13v-13zM189 461q12 -30 26 -33h6l-13 20l7 6v7l-13 13zM435 461h6l13 13h-6zM-485 474h6v-13h-6v13zM59 474l19 -20v-19l-6 -7l6 -6v-33l-12 -13l12 -84l-6 -6v-7l6 -26l-6 -19l6 -26l-6 7h-6v-13 h12v-20l-6 -6v-7q-19 0 -19 20h-7l-6 -7h-7v13l13 20v12q0 13 -19 13l6 20l-6 32v20l6 6l-6 7v6zM-420 467h6v-13h-6v13zM849 467h13v-6l-13 -13v19zM-219 461h6v-13h-6v13zM124 435v-7h13l6 20h-6zM415 448v-13h13v13h-13zM474 448v-7h13v7h-13zM169 435l-6 -20l32 -19v13 q-19 0 -19 13l13 13h-20zM143 428v-6h13v6h-13zM351 428v-13h12zM325 396v-20l13 -12l25 12v33h-25zM137 396v-13h13zM195 389v-13h13v13h-13zM-83 376h6v-12h-6v12zM182 364v-7h13v7h-13zM577 370h7l13 -13v-26h-20l-13 13v13zM143 357v-6l13 -13l7 6v13h-20zM318 344v-13 h7v13h-7zM292 292l7 7l32 -7l13 13v7l-6 6v7l6 6h-6q-46 -10 -46 -39zM882 338h6l13 -13v-7l-13 -13h-6l-13 13v7zM448 331l6 -6v-13l-19 -7v13zM635 331h13v-6h-13v6zM-155 318h13l-13 -13v13zM156 312v-7h13v7h-13zM59 305v-13h7v13h-7zM746 305h13v-13h-13v13zM-6 299h20 v-7h-20v7zM156 279v-13h7v13h-7zM202 279q0 -13 -26 -13l6 -6v-7h-13v-13h13q0 20 13 20l7 -7v-6h-13l13 -13l38 45h-19v-13zM137 273v-7h13v7h-13zM448 279l13 -19l-20 -20l-13 20v13zM655 279l6 -6v-7l-13 -13l-6 7v6zM-51 273h13v-7h-13v7zM-19 273l13 -13h-13v13z M247 260v-7h13v7h-13zM499 266h13v-19h-13v19zM-77 247v-20h-6l-13 13l6 7h13zM150 240v-6q9 -26 19 -26h7v13zM759 247h6q19 0 26 -52l-7 -6h-38l-7 32zM-32 234h13l-13 -13v13zM234 221v-6h13v6h-13zM273 215h19v-13h-6zM195 189v-7l13 -13h7v33h-7zM370 208h13l13 -13 l-7 -6h-6l-13 13v6zM130 189l7 -7l-20 -52l20 -6l26 19v7q-20 0 -20 26l7 6l-7 7h-13zM966 195h6v-13h-6v13zM40 182q13 0 13 -19l6 6h7l6 -6v-7l-13 -13q26 0 26 -52v-6h-13v-6h13l-7 -7l7 -32v-20h-13l-39 136zM383 169h6l13 -13h-19v13zM-472 163h6l-13 -13h-6zM351 156 h12v-19h-12v19zM1056 143h7v-13h-7v13zM1089 137l-20 -20l-6 7v6l6 7h20zM-19 124h13v-7h-13v7zM202 117v-13h6v13h-6zM590 117l13 -13v13h-13zM-278 117h13v-6h-13v6zM383 104v-13h13v13h-13zM681 104l13 -13h-13v13zM713 104l20 -6v-19h-20v25zM759 104l13 -13v-6h-13v19z M202 91v-12h6v12h-6zM325 91v-6h13v6h-13zM176 85v-13h13v13h-13zM124 79v-7h13v7h-13zM143 79v-13h13zM247 79v-13h13zM273 72v-13h6v13h-6zM312 66v-13l19 19zM357 66v-7h13v7h-13zM376 53v-13l13 13h-13zM396 53v-7h19v7h-19zM901 59h7v-13h-7v13zM344 46v-13h13zM454 46 l-13 -19q0 -13 20 -13l19 6v20zM512 40v-13h13l7 19zM668 53l6 -7v-6l-6 -7h-7l-6 7v6l6 7h7zM234 40v-13h6v13h-6zM532 20h13v13zM351 27v-13h12v13h-12zM1165 85v-12h-12zM383 20v-13h6v13h-6zM292 1v-7h13l-6 -6v-7h6l13 13h-13l7 7v13h-7zM331 14v-13h7v13h-7zM-330 14 v-13h-13zM422 7v-13h6v13h-6zM448 7v-26q19 0 19 -13h13v13h-13l7 7v6l-13 13h-13zM189 1v-13h13zM499 1l7 -20h6v13l-6 7h-7zM383 -6v-26h19v7l-6 19h-13zM700 1h13v-7h-13v7zM40 -12h13l19 -20v-13l-6 -6v-6l-7 6h-13v-13h-6q-10 0 -20 26l7 6l-7 7zM422 -19v-13h13z M292 -25v-7h13v7h-13zM351 -25v-13h12v13h-12zM221 -32v-6l13 -13v19h-13zM525 -32v-13l13 13h-13zM985 -25h13v-7h-13v7zM266 -38l-6 -7v-6l6 -6h7l6 6v6l-6 7h-7zM396 -38v-7h13v7h-13zM344 -51v-19l7 -20h-7l-26 -6l7 -33l6 7l7 -7h13l6 7h6q0 -20 13 -20h7v7 q0 16 -26 19v7h19q0 13 -25 13v6l12 13h7v-13h13zM441 -51v-13h7l13 13h-20zM286 -57v-13h13v13h-13zM467 -57v-13l13 13h-13zM260 -64v-13h13v13h-13zM325 -64v-13h13v13h-13zM389 -64v-13h13v-6l-19 -26v-13h19q7 39 20 39h6l-13 -20h13l7 -6l6 6l-6 20l6 6h-6l-7 -6 q0 19 -13 19h-6v-13h-7v13h-13zM-194 -64h13v-13h-13v13zM1102 -64h13v-6h-13v6zM668 -70h6v-13h-6v13zM-25 -83h13v-13h-13v13zM454 -90v-6l20 -7h6v7l-19 6h-7zM914 -83v-13h-13zM202 -96v-13h6v13h-6zM279 -96v-13h7v13h-7zM448 -103v-13h13zM299 -109l13 -13v13h-13z M344 -103h7l-13 -13h-7zM279 -116l7 -6v-13l-7 -7v-6h7l13 13l-7 19h-13zM215 -129v-6h12v6h-12zM234 -129v-13l13 13h-13zM305 -129q10 -26 20 -26h6v7l-19 19h-7zM202 -155v-13h6v13h-6zM240 -155v-6l7 -20h6l13 13l-6 7h-7l-6 -7v13h-7zM273 -155v-13h6v13h-6zM305 -193 v-7l46 -19l19 19l-7 45q-42 0 -58 -38zM467 -155h7v-13h-7v13zM1108 -168v-6l-13 -13v6zM234 -193l-13 -20v-6h19l-6 6v7l6 6v7h-6zM292 -213v-19h13v6zM351 -226v-6l6 -7l-6 -6v-20h19l6 39l-6 7zM286 -239v-26l13 13zM104 -239h7l6 -32h-13v32zM325 -258v-20h6l13 13v7 h-19zM370 -278v-13h6v13h-6zM72 -304v-13l-6 -19h-20v6zM104 -304h13l7 -32v-26l-20 20v38zM396 -317v-13h13zM389 -355v-13h13v13h-13zM629 -362h13v-6h-13v6zM363 -375v-6l13 -13v19h-13zM590 -472h13l13 -13l-13 -13h-13v26zM532 -485h6l13 -13l-6 -6h-13v19zM635 -543 l20 -26l-26 -13l-13 19zM532 -595h19l13 -13v-13l-13 -13l-19 20v19zM467 -608l26 -6v-13h-6l-7 6l-26 -13v7zM260 -621h13v-13h-13v13zM461 -887h13v-6h-13v6z" />
<glyph unicode="F" horiz-adv-x="459" d="M1036 1415h6v-12h-6v12zM1006 1379h12v-6h-12v6zM1060 1271h12v-12zM1048 1265h6v-12h-6v12zM610 1247q38 0 90 -42l-24 -12l-66 48v-12h-30l-6 -6h-6v6q0 14 42 18zM1054 1223l12 -12v-6h-18zM700 1205q28 0 36 -186q0 -237 -162 -324l-48 -6h-12q-132 0 -234 150 q-12 58 -60 132l-6 18l-6 -6h-12q-36 14 -36 36h-12q-18 0 -24 -102q5 -221 138 -282l48 -6l174 24l12 -72l-96 -36q-48 -187 -84 -450q-33 -118 -54 -132l6 -30l-42 -198h-6q0 30 -30 30v-24q0 -12 30 -12q-10 -114 -30 -114l6 -42v-24l-12 -114l-6 6h-6l6 -6v-6l-6 -30 h-12l-12 60l12 18l-12 18v132h6v-12h24v24h-30v12h6l-6 60v306l6 6v6h-12v12q-17 486 -96 486q0 12 -24 12l-96 -12l-12 66q105 0 120 72v246l6 24l-6 6q24 205 114 234l6 -6q0 14 42 18l78 -12l-6 -6v-6l6 -6h6v12q84 -43 138 -156q45 -42 60 -42v-6l-6 -6v-6h12v12l72 -12 q144 22 144 180l-18 60h6zM352 1187h12v-6h-12v6zM220 1163v-12l12 -12l12 12v24h-12zM1006 1157h6v-12h-6v12zM178 1133v-24h12l12 12v12h-24zM232 1133v-6l6 -6h6v6l-6 6h-6zM316 1091l12 -12h6v24h-6zM190 1085l12 -12h18v6l-18 18zM250 1091v-24h18v12l-12 12h-6z M-302 1079v-6l-12 -12v6zM-86 1079h12v-6h-12v6zM106 1055v-12l30 -12h6v12l-6 30h-12zM262 1061v-12h18l-12 12h-6zM88 1049v-12h6v12h-6zM304 1043v-18l12 -12h6v30h-18zM52 1013v-12h12l12 12l-12 12zM70 977v-24h18v12l-12 12h-6zM850 983h6v-12h-6v12zM280 959v-18h12 l12 12v6l-12 12zM988 977h6v-18h-6v18zM640 917v-12h6v12h-6zM982 917h12v-6h-12v6zM928 869h6v-12h-6v12zM514 779v-6h12v6h-12zM-284 767h6v-12h-6v12zM-56 761h6v-12h-6v12zM244 761h6v-12h-6v12zM802 629v-12h-18v6zM670 623h12v-18l-12 12v6zM1072 581h6v-12h-6v12z M730 569l12 -12l-6 -6h-18v6zM10 479l12 -12l-6 -6h-6v18zM364 215h12v-12h-12v12zM-308 185v-12h-12zM460 161l12 -12v-6l-12 12v6zM448 155h6v-12h-6v12zM796 155v-12h-12zM940 101h6v-12h-6v12zM160 77v-6h18l-6 18zM262 83v-6h12v6h-12zM-332 83h6v-12h-6v12zM256 35 v-12h18v12h-18zM-128 23h18v-18q-12 0 -12 -18l-6 -6h-6l-18 6v6l24 24v6zM682 -1l12 -12h-12v12zM232 -43v-12h12zM262 -109h6l12 -12h-18v12zM-836 -115h6l-12 -12h-6zM946 -271h12v-6h-12v6zM172 -307v-12h6v12h-6zM886 -313h6v-12h-6v12zM-260 -319h6v-12h-6v12z" />
<glyph unicode="G" horiz-adv-x="726" d="M432 913h6q19 -5 84 -144q83 -72 180 -90v-18q-102 -17 -102 -102l-6 -6h-6l6 -6v-6l-6 -24l-6 6h-24v-24h18l6 6h6v-12l-6 -6v-6l12 -12v-24l-186 -78v108q0 75 -132 192q-60 -196 -60 -282l-6 6h-6l6 -24q0 -108 -30 -108l-132 -54l6 6v6h-12v-6l6 -6v-6l-42 -18l-6 60 q0 368 162 456q288 96 288 162l-18 48v6zM516 655l6 -6h24l6 18l-18 24q-18 -6 -18 -36zM564 601v-6l12 -12l12 12v18h-12zM522 595l12 -12h6l18 18l-6 6h-18zM78 493v-18l12 12v6h-12zM504 493v-12h18l-12 12h-6zM618 433l6 -6v-6l-6 -6v-6q13 -20 24 -126l-6 -18 q14 0 24 -42h-6l36 -108l-6 -6h6l6 6l24 -162l-6 -18l12 -36v-36l-12 -42l6 -18q-29 -147 -96 -228q-91 -89 -132 -96l-6 6v-6l6 -6q-114 -42 -174 -42h-54q-157 0 -240 228h6l84 42v6l-12 12h-6v-6l6 -6v-6h-12v12l-66 -18v6l12 48l18 -12l6 18l-6 30q30 -12 30 -24h12v18 q-30 4 -30 18l6 6h6l6 -6v6l-6 6l48 18v-12h6l24 12q31 0 48 -30l-6 -6h6l6 6l12 -54q-15 -114 -108 -114v-6q81 -108 150 -108l-6 -6v-24h6l24 30q94 0 192 96h-6l18 48q-18 127 -78 378v6q-70 -68 -132 -108l-6 6q0 -22 -84 -36v6l-6 -6h-6q-104 0 -144 186l-6 84h6 l192 84v-6l-6 -24h12v-12q0 -91 36 -120q60 0 114 78q34 45 48 180zM126 355l-12 -30h12l12 12v18h-12zM558 313l12 -12v12h-12zM78 295v-18h12v18h-12zM96 295v-6q12 0 12 -18h6v18zM600 259v-12l12 12h-12zM558 199l6 -18l12 12v6h-18zM582 163h12v12zM606 169v-12h6v12 h-6zM546 133h12v12zM222 139v-12h12zM426 121v-6h12v18zM654 133v-24h18v12l-12 12h-6zM342 109v-6l12 -12l12 12l-6 18h-6zM138 109v-6h12v6h-12zM612 85v-6l12 12v6zM642 79l6 -30l6 6h6l12 -12l6 42l-6 6h-18zM174 85v-12h6v12h-6zM72 67v-12h6v12h-6zM132 67v-12h6v12 h-6zM612 55v-6l6 -18l-6 -6h12v12h6l-6 18h-12zM522 43v-12h6v12h-6zM264 37v-18h6v18h-6zM78 25v-6l6 -36l6 6h6q-8 36 -18 36zM456 19l6 -18l12 12v6h-18zM96 13v-12h12v12h-12zM162 7l-6 -6v-12q3 -12 30 -24l-6 6v6l6 6q-4 18 -24 24zM648 -29l6 -6h6l6 6v18zM438 -17 l12 -12v12h-12zM582 -17l6 -18l12 12v6h-18zM114 -35v-12h6v12h-6zM150 -35v-12l12 12h-12zM222 -47l-6 -18l6 6h6l6 -6h6l6 6v6l-6 6h-18zM456 -65l6 -6h6l6 6v12h-6zM486 -101v-12h6v12h-6zM648 -119v-36q36 12 36 24v6l-6 6v6l6 6h-6v-6l-6 6h-12zM582 -113v-12h12v12 h-12zM462 -143v-12h6v12h-6zM114 -233v-12h6v12h-6zM516 -287v-12h6v12h-6zM72 -299h18v-6h-18v6zM540 -317v-6h12v18zM156 -323h12v12zM180 -323v-12h6v12h-6zM42 -341v-12l12 -12l6 6v6l-12 12h-6zM42 -371l12 -12h6v12h-18zM90 -395v-12l18 6v6h-18zM492 -407h12v12z M594 -407l18 -6v18h-6zM534 -407v-6h12v6h-12zM540 -449v-6h12v6h-12zM174 -467v-12h6v12h-6zM366 -485h12v12zM324 -551v-6l18 6v12h-6zM354 -545v-6h12v6h-12z" />
<glyph unicode="H" horiz-adv-x="870" d="M512 1224l24 -12l-6 -6v-24h18l18 12v-48h-6q0 24 -84 48v6q-132 -46 -132 -120q-11 0 -12 -60v-42l6 -60h-6l24 -90l-6 -18h6q44 -119 120 -234v-6h12l-6 6v6h12v-42q-36 0 -36 -18q24 -58 24 -108l-6 -6v-6l6 -6q-20 0 -24 -90q-36 -39 -60 -288l54 -162l-6 -6l6 -6 q-87 -46 -102 -84l-6 6h-12v-6h12v-6q-42 -113 -60 -114l6 -6v-6l-24 -18h-6v18l6 6v6q-18 0 -18 18q-54 134 -78 162q-52 77 -126 156v6h18q0 -18 36 -30q0 20 24 36l-6 18h-6l-42 -6q87 107 132 306v72h12v6h-12v66l6 24l-6 24l6 6l-18 162h12l-66 114l-6 6h12v6l-12 12 v-18q-16 0 -78 96q-35 28 -72 36q0 20 -42 36l-12 18l6 6h12l72 -18h12q31 0 96 60l90 90q171 114 300 114zM602 1152q24 0 30 -72l-6 -18h-6v18l6 6l-6 6h-6l-6 -6l-12 36zM290 996v-18h6v18h-6zM116 930v-18l12 12v6h-12zM194 906v-12l12 -12l6 6l-6 18h-12zM296 876h12 v12zM158 852v-24h18v24h-18zM710 846q115 -126 132 -228l-12 -12v-6l12 -12l6 6q18 -62 24 -156h-12v-18h12v-6q0 -536 -144 -702q-6 36 -18 36l-12 -12l12 -12l6 6v-12l-6 -18h12q-14 -37 -60 -84l-6 6q0 -51 -168 -180h-6v12h12v6h-12q186 214 186 432l-6 114h6l-18 126 h18v6q0 18 -24 54h6q-23 103 -30 288l-6 18q24 0 24 18q-36 28 -36 156q48 50 48 72l6 -6h18l18 18v6q0 12 -18 12q17 72 36 72zM200 804l12 -12h12v12l-12 12zM200 768v-12h6v12h-6zM326 768l6 -18h6v12l-6 6h-6zM710 750v-12h6v12h-6zM308 732l18 -24l18 24l-12 12h-6z M740 690v-12l30 -12h6v12l-6 30h-12zM638 690l12 -12v24zM290 690v-24h18v24h-18zM722 684v-12h6v12h-6zM332 660l-6 -6v-24h18v18zM686 648v-12h12l12 12l-12 12zM284 654v-12h12v12h-12zM770 642v-36h6q24 12 24 30l-6 18h-12zM296 630l-6 -6v-6l18 6v6h-12zM572 636v-18 l-12 12l6 6h6zM218 618v-18l12 -12h6l6 6h6l-6 24h-24zM650 612v-18l6 -6v-6h-12v-30h24v24l-6 6v6h12v12l-12 12h-12zM704 612v-24h18v12l-12 12h-6zM374 606v-24h12v-6l-6 -6l6 -18h6l6 30q-12 0 -12 18l-6 6h-6zM296 600l-6 -6v-12h6l12 12l-6 6h-6zM536 594l6 -6h18l6 6 h6l6 -24h-6l6 -6v-36q-25 -7 -30 -54l6 -24l-24 -12l6 60v96zM212 570v-12h12zM302 570v-18h12v18h-12zM338 570l-6 -18l12 -12h-12v-6h12l18 24l-12 12h-12zM452 564v-12h6v12h-6zM380 546l6 -18h6v18h-12zM716 534l-6 -6v-6l12 -12l6 6v6zM416 516h12v12zM416 510v-6 l12 -12v18h-12zM446 486v-12h6v12h-6zM788 474l12 -12l6 6v18h-6zM266 480v-12h-6l6 -18h6l18 12l-6 18h-18zM830 474v-6l12 -12v18h-12zM356 462v-18h12v18h-12zM392 420v-6h12v6h-12zM746 408l12 -12v12h-12zM776 372l-6 -24l18 6l-6 18h-6zM842 336l6 -6h6v18zM728 300 l-6 -6v-24h18l-6 -6v-6l12 -12h12v24q-18 0 -18 18zM782 294l-6 -6v-12h6l12 12l-6 6h-6zM332 288l12 -12v12h-12zM302 282l12 -12v12h-12zM374 282l-6 -24l18 -12l12 24l-18 12h-6zM836 252l6 -18l18 6v18l-12 12q-12 0 -12 -18zM308 252l-6 -18h18v6zM326 198v-6h6l12 12 v6h-6zM296 198v-30h12l12 12v6l-12 12h-12zM698 174h12v12zM338 180v-12h6v12h-6zM320 168v-12h12zM350 156v-12l12 -12l12 12l-12 12h-12zM692 156v-12h6v12h-6zM746 138v-12l12 -12l6 6v18h-18zM722 126v-12l-6 6h-12v-6l24 -12h6v12zM170 108v-6h12v6h-12zM758 90v-6h12 v6h-12zM218 30l-12 -12l-6 6v-6l6 -6h6l18 6zM164 24v-12h12v12h-12zM182 6v-6h24v6h-24zM746 0l12 -12h6v12h-18zM170 -24l6 -18h12l-6 18h-12zM140 -30l6 -18h12v6l-12 12h-6zM398 -30v-12h12zM278 -36v-12h12zM266 -60v-12h12zM170 -66v-12h12v12h-12zM386 -78v-12h6v12 h-6zM668 -222v-12h6v12h-6zM296 -288v-12h6v12h-6zM602 -384v-12h6v12h-6zM470 -552v-6q0 -25 -60 -48z" />
<glyph unicode="I" horiz-adv-x="428" d="M186 1191h30q53 0 66 -84v-48q-24 -108 -42 -108l-12 18l6 6v6h-6l-6 -6h-6q0 24 -30 24v12h-6v-12q-12 0 -12 30l-6 6h-12q0 -24 -12 -24q-24 22 -24 48l6 -6h6q30 8 30 18t-30 18q-8 -30 -18 -30v54q12 78 78 78zM156 1173v-12h6v12h-6zM186 1113v-12l30 -12h6v12 l-6 30h-12zM168 1107v-12h6v12h-6zM216 1065v-36h6q24 12 24 30l-6 18h-12zM246 1023l-6 -6v-6h6l6 6v6h-6zM168 987h12v-12zM180 975h6v-12h-6v12zM186 945h12v-6h-12v6zM192 915h6l12 -12l-18 -18l-12 18zM198 867l30 -54h-12l6 -6v-6h-12v-6l18 -18l6 24h6 q93 -171 150 -234l6 -24q-70 0 -90 -228v-42q0 -294 96 -294v-6q-28 -48 -144 -174l-48 -84h-18q0 36 -54 102q-14 -36 -24 -36l-6 6v30q24 0 24 24q-66 185 -66 384q8 186 18 186l-6 18l6 18h-6l6 6q-12 114 -84 114l72 78q0 18 18 18h6v6l-18 6q16 44 42 54q7 56 24 60 l18 -18q6 18 36 18l-6 -6v-6h6l6 6v6l-12 12v12l6 6v6h-12v-12l-6 6h-6v-12l-6 6h-6l-6 -6v6q23 46 42 54zM162 453v-12h6v12h-6zM90 417v-12h12v12h-12zM108 381v-12h6v12h-6zM90 375v-12h6v12h-6zM144 297v-6h6l12 12v6h-6zM120 -255l12 -12v-24l-30 -24h-6q12 60 24 60z M198 -297l18 -12l-6 -36h-12l-6 30zM156 -339l6 -6v-6l-6 -6h-6l-6 6v6l6 6h6zM114 -345h12v-6h-12v6zM198 -357h12v-12h-12v12zM114 -369h18v-12h-18v12zM132 -387l12 -12v-12h-12l-12 12zM138 -471h6v-24h-18v12zM156 -551l12 -12h-12v12zM198 -569v-12h-12zM162 -531h6 v-12l-12 -12h-6v12zM150 -627h6l12 -12v-12q0 -10 -30 -18l-6 6v18zM174 -747h18v-12h-6z" />
<glyph unicode="J" horiz-adv-x="462" d="M210 1171q18 0 18 -18l6 6q60 -17 60 -138q0 -37 -54 -168h-12q-36 24 -36 48l6 6h-6l-6 -6q-48 94 -48 156v54q0 54 72 60zM156 1135v-18h18l12 12v6l-12 12h-6zM234 811q62 -171 108 -210q-18 -85 -114 -330h-12v-12h12v-6h-18l6 -18q-16 -66 -36 -66l12 -12l-60 -168 h-6q0 83 -30 282h18q0 12 -24 12v36h12l-72 180l-6 -6h-6v12q17 0 60 42h6l-6 6v6q122 152 144 252h12zM366 607q18 -10 96 -120q-96 -100 -96 -186l6 -90v-36q0 -367 -48 -546l-6 -36l6 -18l-6 -6q16 0 42 -126h-6l-66 42q-37 0 -222 -156q-55 -36 -96 -36h-54l-6 6h-6 q11 56 72 108q168 234 168 468l12 78l-6 6h6l-6 6v6q55 210 78 210l-6 6v12h12v18l6 30l6 -6h6v18l-6 6zM72 451v-12h6v12h-6zM198 433v-12h6v12h-6zM198 415v-18q5 -72 18 -72v6l-12 84h-6zM234 343l-6 -6v-12h12l-6 6v6l6 6h-6zM150 331v-12l18 12l6 -6v12h-6zM282 337 v-12h6v12h-6zM210 313v-12h12v12h-12zM168 277v-6l12 -12l6 6v6l-6 6h-12zM264 271v-18h6l12 12l-6 6h-12zM156 259v-6l12 -12v18h-12zM120 235v-24h12v24h-12zM144 235v-12h6v12h-6zM174 223v-6h12v6h-12zM150 205v-6h12v6h-12zM162 139v-12h12zM264 31h12v12zM282 -395v-6 l6 -6h18v6zM204 -431v-12l12 -12h6v24h-18zM162 -449v-6l12 -12h12v18h-24zM108 -479l-6 -6v-6h6l6 6v6h-6zM126 -479v-18h18v6l-12 12h-6zM150 -521v-12h12v12h-12zM-102 -665q0 -54 -78 -54q-36 12 -36 24q86 30 114 30z" />
<glyph unicode="K" horiz-adv-x="710" d="M638 1323h12v-12h-12v12zM296 1239h6v-18h-6v18zM710 1209h12v-6h-12v6zM596 1173h12v-12h-12v12zM578 1167h12v-12h-12v12zM560 1161l6 -6v-6l-6 -6h-30q0 10 30 18zM416 1143q42 0 108 -42v-12l-54 -6l-6 6h-6l-156 -42v-6l-6 6h-6l-126 -24h-6v6l150 90q42 24 108 24z M98 1083h6l18 -18l-18 -12h-6l-12 12v6zM542 1077v-24h-12l-24 12v6zM-34 1059h6l12 -12h-18v12zM482 1059h12v-12zM386 1047v-6q-16 -36 -24 -102l6 -48v-6l-12 -18l12 -18v-30l-18 6l-18 -6v-6l18 -18l24 18v-6l6 -252l-6 -54h6l186 162h12l90 -192l-120 -168h6l12 12 l18 -6v-18l-6 -6v-6q33 -30 60 -30v-18h-6l-18 12q42 -28 54 -342q28 -141 90 -216l42 -36q-87 -87 -96 -138l-6 6h-6l6 -6v-6q-30 -58 -42 -144h-6q-38 110 -84 180l6 6h-6l-6 -6q-42 72 -54 72l-96 132q42 49 42 138v36q17 0 54 36h-6l-48 -30q0 96 -24 96l6 6v6 q-60 194 -96 210l-6 -84l12 -12q0 -30 -12 -30l6 -72l30 12q30 -8 30 -42v-18q0 -10 -42 -24l-6 18h-6v-6q11 -72 18 -72l-54 -78h6q23 44 48 54l36 -12l-60 -138h-6v12h-12v-6l6 -6v-6h-6l6 -6v-6q-3 -24 -18 -24q0 -69 -30 -78l-60 72q0 30 12 30l-6 6v6l12 24l-6 6h-6 l-6 -6v-6l6 -6v-6l-6 -6h-6l-6 6h-6v-6l18 -18l-6 -6h-6v-12l-60 60v6l-6 -6l-96 60q-25 0 -96 84h66q18 0 18 -24h6v12l-6 18h6q48 46 78 270h6l-6 6v12l6 6v6l-12 12v12q12 0 12 18h6v-12h6v12l-6 6q24 0 24 18v18l-18 30l6 126h-6l-6 -6h-6l-6 6v24q0 12 18 12 q-29 276 -42 276q-18 0 -18 12v6h6l6 -6h6v6l-60 138h6l18 6v6q0 31 -18 36h-30v-12h-6l-30 30q63 0 228 36zM494 1035h12v-6h-12v6zM98 1017h12v-12h-12v12zM698 1017h24q10 0 24 -42l-18 -6q-30 11 -30 48zM-40 1005l36 -6v-12h-30zM518 1005h18v-12h-6zM-64 969h12v-6 h-12v6zM302 963v-6l12 -12l12 12l-6 6h-18zM386 951h12v-12zM284 915l12 -12l6 6v6h-18zM-4 909h6v-12h-6v12zM116 897l-12 -24v-12l18 -18v12h18v-6l-6 -18h6l24 -6l18 30v12q-12 30 -42 30h-24zM404 891h6v-18h-6v18zM650 891h12v-6h-12v6zM-178 867h12v-6h-12v6z M1070 855h12v-12l6 6h18l-6 -18h-18l-12 12v12zM398 843h12l12 -12l-12 -12h-18zM782 843h6v-12h-6v12zM452 825l18 -6l-12 -12h-6v18zM692 813h12v-6h-12v6zM50 807l18 -6v-24l-30 -6l-6 6v18q0 12 18 12zM914 771l6 -6v-12l-12 -12h-12l-12 12v12zM62 765h6v-12h-6v12z M662 765h6v-12h-6v12zM548 753h6v-12h-6v12zM62 747l24 -18v-12l-12 -12h-6l-36 12q0 16 30 30zM830 747l12 -18l-18 -12l-12 12v12zM488 735l12 -30h-18l-6 24l6 6h6zM-172 711h12v-6h-12v6zM-70 705h6v-12h-6v12zM254 687v-6h12v6h-12zM566 693h12v-12zM446 687h12l12 -12 v-6l-18 -18l-24 12zM938 687h6l12 -12v-6l-12 -12h-12l-12 12zM836 681v-18h-6l-12 12l6 6h12zM56 669h6l12 -12v-6h-18v18zM668 669l18 -6v-6h-18v12zM806 639h6v-12h-6v12zM950 621l18 -6v-18l-18 -18h-6l-18 18q4 18 24 24zM728 615v-12h-12zM-34 603l42 -12v-12h-12v-12 h12v12l18 -18q-29 -24 -60 -24q0 12 -18 12l-6 6v12q0 36 24 36zM-232 585h18l12 -12l-12 -12h-18v24zM452 579h12v-6h-12v6zM698 579l48 -30l-6 -6v-42l-54 -6q-42 9 -42 42q18 42 54 42zM1184 573h12v-12zM98 555l24 -18v-18q0 -10 -30 -18q-24 20 -24 36zM392 537l12 -12 l-6 -6h-6v18zM44 519h12l18 -18v-18l-18 -18h-12l-18 18v18zM-154 501h12v-12h-12v12zM104 501h18v-6l-18 -6v12zM-28 465q44 0 48 -18q-8 -42 -42 -42q-24 9 -24 18v24zM-154 459h12v-12zM-226 453h6v-12h-6v12zM-124 447h6l12 -12v-6h-6l-12 12v6zM-268 441h12v-6h-12v6z M362 303h6q45 0 48 30h12v-18q54 15 66 36q-26 78 -36 78l-48 -78q-14 0 -48 -48zM692 423h12v-6h-12v6zM932 417h6v-12h-18zM356 381h12v12zM794 393h6v-12h-6v12zM884 381h6l-12 -12h-6zM152 369l-6 -6v-6h6l6 6v6h-6zM656 375l6 -6v-6l-6 -6h-12v6zM614 333h6l60 -6 q-16 -48 -42 -48h-12l-18 18v6zM686 333h12v-12zM164 315v-12l6 -6h6l-6 18h-6zM164 291v-12h6v12h-6zM530 213l12 -12v12h-12zM62 207l12 -12h-12v12zM38 189q30 -8 30 -18v-12q0 -9 -24 -18v12h-6l6 6v6zM56 171v-12h6v12h-6zM86 171h6v-12h-6v12zM98 165h6v-18h-6v18z M128 159v-24h-6v12h-6v-12l18 -12l6 30l-6 6h-6zM248 87v-24h6v24h-6zM356 81h12v-6h-12v6zM392 57h12v-6h-12v6zM302 33l12 -12h12l-12 12h-12zM134 3h12v12zM110 -21v-12h6v12h-6zM788 -15h6v-12h-6v12zM-154 -21h12v-12h-12v12zM800 -21h6v-12h-6v12zM278 -51l-6 -6v-6h6 l6 6v6h-6zM242 -87h12v12zM-256 -81l12 -12h-12v12zM230 -93l-6 -18v-6h6v12l18 -12l24 12l-12 12l-12 -12h-12v12h-6zM-64 -99l6 -6v-6h-18zM182 -117v-6h12v6h-12zM-148 -123h6v-12h-6v12zM188 -135v-12h12v12h-12zM50 -165v-12l18 -6v12zM272 -165v-18h6v18h-6zM98 -171 v-12h6v12h-6zM212 -177v-6h12v6h-12zM188 -183l-6 -6v-6h6l6 6v6h-6zM-160 -183h12l-12 -12v12zM218 -219l-6 -6v-12h6l6 18h-6zM230 -225v-6h18v6h-18zM188 -231v-12h6v12h-6zM554 -231v-6h12v6h-12zM266 -243v-6h12v6h-12zM296 -243v-6h12v6h-12zM260 -255v-6l6 -6h6v6 l-6 6h-6zM284 -255v-12h6v12h-6zM-94 -267h6v-12h-6v12zM230 -291v-12h6v12h-6zM260 -291l18 -18v6l-12 12h-6zM716 -309v-18h6v18h-6zM284 -333v-12h6v12h-6zM446 -357v-30l-12 12v6zM626 -375v-12h12v12h-12zM362 -387h6v-12h-6v12zM602 -483v-12h6v12h-6z" />
<glyph unicode="L" horiz-adv-x="324" d="M230 1037h6l12 -24l-6 -6h6l6 6v6l-6 6l6 6h6l6 -18l6 6h6v-24h6v12l6 -6h6l6 18h12v-18h-12v-6q42 -6 42 -18q-35 0 -78 -120l-24 -18v-18h18q-30 -144 -30 -240v-288l6 -24l-6 -6q36 -235 72 -330l-102 18l-6 -6l-132 18q4 48 18 48l-6 18q8 42 24 42q-18 23 -18 168 l6 6l-6 6v156l-6 66l6 18l-6 30h6q-12 20 -24 192q-38 198 -108 282h6q95 -60 114 -60h6q34 0 156 102zM278 1031l18 -18v-6l-18 18v6zM260 995v-6h12v18zM170 929v-12l12 12h-12zM176 893v-18l12 -12h6l18 18v6l-6 6v6l6 6h-6v-6l-6 6h-12zM236 881v-12h6v12h-6zM200 827 l-6 -6v-6l6 -6h6l6 6v6l-6 6h-6zM74 677v-12l12 -12h6v6zM188 671l12 -12l12 12l-6 6zM188 635v-18h12v18h-12zM212 593v-12h6v12h-6zM158 557v-12h12v12h-12zM194 521v-12h12v12h-12zM212 521v-12h12zM110 419v-6h12v6h-12zM182 419v-6h12v6h-12zM206 383v-6h12v6h-12z M86 359h12v12zM164 317v-12h12v12h-12zM200 143v-12l12 12h-12zM236 71v-18h12v18h-12zM104 17v-6h12v6h-12zM206 11l12 -12v12h-12zM56 -55q106 -24 252 -24q0 -12 24 -12v-48q-24 -3 -24 -18v-18q18 -62 18 -132l-12 -12v-54l18 -42l-18 -12q-24 0 -24 72v168h-6l-36 -78 l12 -126q-12 0 -12 -24h-12v-24l6 -6v-6h-6l6 54v-6l6 -74v-6l6 -24l-6 -24v-48l-6 -24l26 -14h-6l6 -6l-6 -30l12 -84h-6l6 -6v-24l-12 -12h-24q0 24 -48 24l-24 30q0 20 42 24v18l-12 18q28 20 28 38q0 9 -6 18l12 132l-12 38h-6l6 6q-6 7 -24 24l18 18l-12 24h6 q-17 100 -90 186q-66 31 -66 42l-6 -6h-18l-30 6zM68 -115l18 -18h12l12 12v30h-18zM212 -127v-18h18v18h-18zM110 -157v-6h12v6h-12zM230 -175v-6h12v6h-12zM236 -295v-12h6v12h-6zM410 -433h18v-6l-12 -12l-6 6v12z" />
<glyph unicode="M" horiz-adv-x="1147" d="M550 794q78 -26 138 -114l24 -78q0 -112 -36 -264v-156q0 -54 24 -162h-6l6 -18l-120 -180l-24 -6q-22 56 -192 186q-78 -85 -114 -198q-12 0 -12 18h-12l-18 -12q-20 40 -96 126v6q18 0 18 12v6l-18 18h-6q-12 0 -12 -24l-84 66l6 6h-6v-6l-24 18l6 6l-18 6v6 q50 11 102 138l6 30l-6 18h6q-36 216 -60 276l6 6v66q0 36 -24 36v6l150 156q88 -18 186 -210q103 80 210 216zM946 788h18q22 -13 84 -120l96 -120q-81 -54 -84 -240v-12q0 -12 -24 -12l-6 -6v-12h18l6 6h6v-120q0 -64 30 -126l60 12v-6l6 -6v-6q-35 -58 -72 -72 q0 -22 -54 -60q-80 -84 -96 -84q-198 96 -198 300q0 85 18 198q-12 36 -12 174q0 114 24 114q180 117 180 198zM76 506v-12l12 -12l6 6v18h-18zM130 452v-6l12 -12l12 18l-12 12zM322 458v-264q0 -96 30 -162q42 65 42 156v60q0 85 -54 210h-18zM58 416v-12l12 12h-12z M160 404v-6l12 -12l12 12v18h-12zM1048 416v-12h6v12h-6zM154 380v-6h12v6h-12zM196 212h12v12zM100 152v-12h12zM106 134l12 -12v12h-12zM22 62l-6 6h-6l-12 -12v-12h6q18 0 18 18h6q0 -20 42 -30l6 6v72h-6q-48 -8 -48 -48zM232 92h12v12zM76 20v-12h6v12h-6zM1000 -4v-12 h12v12h-12zM1000 -106l12 -12v12h-12zM898 -166l18 -6l6 6v6l-6 6h-6zM244 -196v-6q0 -12 -18 -12h-6v6z" />
<glyph unicode="N" horiz-adv-x="786" d="M216 859q59 0 90 -106q9 -2 66 -138l-6 -6q20 0 42 -68l-6 -7q19 -2 102 -200q192 -390 192 -412l-96 -137q-36 0 -102 94q-96 161 -96 555v25l-6 44l6 6h-6l-6 -6q0 25 -18 25h-6l-18 -56l6 -6v-50l-6 -57l12 -31l-6 -6q18 -231 42 -312l-54 -38l-6 7q0 -21 -48 -57 l-12 -12v-6l-6 6h-12l-12 -13q0 -12 18 -12l-24 -81h-12v12q0 97 -162 169l-60 50q51 13 84 75l30 181h6l-30 206l-30 118h12v7q-78 6 -78 18q208 176 210 219h6zM240 834v-12h18v12h-18zM288 840q90 -82 90 -143l-6 -7q17 0 30 -68h6q25 12 72 62h12l-6 6v7l84 100 q12 -60 54 -132l-6 -6h12l30 -50q-24 0 -24 -12l6 -31l6 6h6l12 -13l6 32l102 -44l6 -25q-72 -50 -72 -188l-6 -6l6 -25l-6 -6q6 -114 30 -225l-18 -18h6l18 12q22 -62 48 -62v-19q-16 0 -78 -50l-96 225l6 18h-12v-12h-6l-78 175l6 18h-6q-17 2 -78 150l-36 75l6 7h-6 l-6 -7zM600 690v-12h6v12h-6zM48 653v-13h6v13h-6zM138 653v-31h6l12 12zM606 603v-6l12 12v6zM168 566l6 -19h12v6l-12 13h-6zM516 559v-12l18 6v13zM144 559l-6 -6v-6h18zM90 534h12v13zM204 541v-13h12v13h-12zM468 509v-6h12v6h-12zM726 503v-12h12v12h-12zM108 466v-19 h48l6 37l-6 7zM222 472v-6h12v6h-12zM588 472v-6h12v6h-12zM702 447v-13l12 13h-12zM594 441v-13h12zM126 409h12v13zM672 409v-12l-6 6h-12l-12 -12v-19l12 -13h6l18 19v6l-6 7l6 6v12h-6zM330 347l12 -13v13h-12zM246 285v-7l12 -12h18l12 12l-18 19zM690 272v-12h12z M234 266v-13h6v13h-6zM198 247v-12l12 12h-12zM504 235v-13h6v13h-6zM174 216v-13h6v13h-6zM426 197v-12h6v12h-6zM276 160l-6 -19l6 -6h6l6 6v19h-12zM534 141v-13h6v13h-6zM108 116v-6l12 -13l18 13l-6 18h-12zM342 122v-12h6v12h-6zM450 122v-12h6v12h-6zM534 122v-12h6 v12h-6zM330 72v-6h12v6h-12zM108 54v-7h12v7h-12zM246 47l12 -12v12h-12zM102 29v-13h6v13h-6zM84 4v-13h6v13h-6zM216 -9l6 -6h6l6 19h-6zM252 4v-13h6v13h-6zM330 -3v-12h6v12h-6zM744 -3v-12h6v12h-6z" />
<glyph unicode="O" horiz-adv-x="693" d="M495 916h7q164 -86 164 -426l14 -302q0 -151 -199 -233q-85 -115 -96 -199h-7l-76 103q-165 75 -329 75v7q96 139 96 165q21 88 21 192v144q0 79 -41 241v6q0 49 96 49q302 56 302 109q48 36 48 69zM508 834v-14l7 -7h7l-7 21h-7zM330 696v-7l7 -6h7v6l-7 7h-7zM337 628 q-48 -105 -48 -179l13 -274l-20 -117l103 -48q48 97 48 268v34q0 34 34 34h7v21l-14 14h-7l-6 -7h-7v75l-7 7v7q41 0 41 14v7l-14 13h-13l-7 -7h-7q-23 81 -89 138h-7zM453 573v-21l21 -7l21 7v35h-28zM598 477v-7h13v7h-13zM577 436l-7 -7v-7l7 -7h14v7zM543 360l7 -21h27 v14l-14 14h-7l-6 -7h-7zM577 182l14 -14h7l13 14l-7 20h-6zM646 147v-13h7v13h-7zM502 65v-7h13v7h-13z" />
<glyph unicode="P" horiz-adv-x="834" d="M240 1004q36 -12 36 -66l-60 48q-63 -18 -90 -54v-54q0 -46 162 -144q42 -54 42 -90h96l6 -6h6l-6 -210v-114l-6 -6l6 -6l-6 -42v-120l-6 -24l6 -24v-24l-6 -42h6l-60 -288h6l-18 -96l-6 6h-18l-6 -18l30 -12l-36 -204h-6v12h-6l-18 -6v6l-42 234l24 18v12q-36 0 -36 60 l6 6l6 -6h12v12q-24 0 -24 12l-24 186h6l-6 66l-6 -6h-6q0 12 -36 24q0 -18 -12 -18l-6 6h-6l-18 -18l6 -72v-18l6 -6l-6 -6v-90l18 -66l-12 -66l6 -36v-6h-6v12h-12l12 -18v-6l-6 -6l6 -6v-18l-6 -30l12 -12h6l-12 -66q10 0 18 -30l-6 -36l6 -30h-12v-6q15 0 18 -30l-6 -36 v-18l12 -18l-12 -12l6 -24h-12v-6h12q0 -48 -54 -48v12q-24 0 -24 24l6 18l6 -6h12l12 12v12h-18l-6 -6h-6v12l6 6l-6 24l6 66l-12 30l6 36v12h12l-12 30h18v12h-18v18l6 18l-6 30v30l12 12l-12 18l6 6v18l-6 6l12 24l-18 78v24l6 24l-18 186v42h-6q-16 -3 -30 -54l30 -72 h-6l-36 36l6 6q-24 0 -24 54v24q0 44 36 84l-6 6v24h36q75 48 114 48h48v102l-12 12q0 -10 -42 -24q-14 -42 -24 -42h-12l-6 30l42 42l18 6v18l-12 18v6l6 6l18 6v6q0 40 -120 126q-54 84 -54 156v54q0 220 156 282zM732 788q102 -135 102 -336q-19 -408 -126 -408l-30 -24 l-30 6h-18q-12 0 -12 -24h-12v12h-12v-6q0 -18 30 -18l-66 -54v12h-12v-12h12l-18 -18l-12 12v-24l-6 6h-12q0 -12 18 -12l-18 -18h-6l-66 90v6l6 192v6h6q1 -25 78 -96q138 225 138 420q-6 96 -18 96l-186 -90v6l6 132q69 8 258 144h6zM330 590v-12h6v12h-6zM66 584v-12h12 zM150 542v-12h6v12h-6zM690 512v-24l12 -12h6v24l-12 12h-6zM258 416v-18l12 12l-6 6h-6zM690 386v-18l12 12v6h-12zM768 362v-12l12 -12l6 6l-6 18h-12zM732 308v-24h18v24h-18zM774 260l12 -12h12v12l-12 12zM276 260v-12h12zM702 260v-18h12v6zM774 224v-12h6v12h-6z M654 194v-12h6v12h-6zM282 176v-6h12v6h-12zM702 128q18 0 18 -30h12l-6 6v6l12 12v12l-18 18q-9 0 -18 -24zM588 134l6 -18h12v6l-12 12h-6zM756 134v-12h18l-12 12h-6zM258 116l12 -12h6l-12 12h-6zM588 110v-12h6v12h-6zM624 110v-6h12v6h-12zM738 98v-12h6v12h-6z M498 80l12 -12v12h-12zM666 80l18 -36h12v6l-24 30h-6zM348 74q9 -24 18 -24l6 6v6l-18 12h-6zM204 68v-12h12v12h-12zM618 68v-18h18v6l-12 12h-6zM276 44v-12l12 12h-12zM330 38v-12l24 -6v12l-6 6v6zM498 32l12 -12h6v12h-18zM156 8l12 -12v-6l-6 -6v-6l-18 6v12zM306 -4 v-6h12v6h-12zM360 -10v-12h12v12h-12zM444 -10v-12h6v12h-6zM468 -16v-12h12zM156 -28h18l12 -12v-12l-12 -12l-18 18v18zM552 -34v-6h12v6h-12zM492 -40l-6 -6v-12l12 -12l12 12zM276 -82l12 -12h12v12l-12 12zM192 -70h12v-18l-12 12v6zM384 -82v-12h12v12h-12zM258 -118 l18 -18v6l-12 12h-6zM102 -136v-12h12zM174 -154h6l12 -12v-12l-12 -12q-24 9 -24 18zM342 -166v-6l12 -12l6 6h6v-12h12v6q0 12 -36 18zM294 -184l-6 -6v-6h18zM342 -202v-6l18 -18v6zM312 -214v-12l12 -12h6v24h-18zM90 -226v-12q15 0 30 -18h6v12l-30 18h-6zM90 -256v-6 l6 -6h6v6l-6 6h-6zM312 -256v-6h12v6h-12zM336 -262v-12h6v12h-6zM294 -292l-6 -6v-6h6l-6 -6v-12l18 -18l12 12zM216 -292v-12h-12zM246 -316h12l-12 -12v12zM210 -340h6l12 -12v-6l-12 -12h-18v18zM270 -352v-24h24v12l-12 12h-12zM102 -412l-6 -6v-6l18 6v6h-12z M264 -412v-12h6v12h-6zM300 -436v-6l12 -12l6 6v6l-6 6h-12zM108 -466v-6l12 -12h6l6 18l-6 -6h-6l-6 6h-6zM210 -478l18 -24v-18q0 -15 -54 -24l-6 6v30q18 30 42 30zM138 -484h6v-12h-6v12zM294 -490v-12h6l-6 -6v-6l12 -12h6l12 12l-6 18h-6l-6 -6h-6v12h-6zM120 -514v-6 h12v6h-12zM120 -556l12 -12l6 6v6h-18zM108 -622v-6h24v6l-12 12zM132 -652v-12l12 12h-12zM246 -664l6 -6v6l18 -6l-12 -12h-12l-12 12l6 6h6zM120 -676v-12h6v12h-6zM246 -736v-12h-12z" />
<glyph unicode="Q" horiz-adv-x="726" d="M354 836h12q0 -12 54 -66l-12 -12h-12l-6 6h-6l6 -18h6q24 10 24 24q46 -46 132 -72q72 0 90 -36q24 0 24 -24h6v12l-6 6q24 0 24 24h6l12 -12l-18 -24h6l6 18h12v-6q-20 -36 -36 -36l6 -6l-6 -42v-18h-12l-6 6h-6l-6 -24q36 0 36 -54v-60q-18 0 -18 -30v-6q0 -12 18 -12 l6 -6v-144q-7 -330 -24 -330l6 -6v-6l-6 -66q-15 0 -18 24l-6 -6q-150 100 -150 120v18l-30 -12q0 13 -96 72l-12 18h12v6h-6l-18 -6q-271 211 -318 234v36q0 282 84 354q107 54 138 54l6 -6q0 18 30 18l48 48v-12h6v6l-6 18l6 6h6v-18h6l6 24h-12zM408 728v-12h18l-12 12 h-6zM336 722v-12h6v12h-6zM408 698v-18h12v18h-12zM534 692v-18h12v18h-12zM138 680v-6l12 -12l6 6v12h-18zM336 674v-6h12v6h-12zM708 680h18v-12l-18 6v6zM474 668v-12h12v12h-12zM606 662v-6l18 -6v18zM228 644l12 -12h6l-12 12h-6zM642 638q0 -18 -18 -18q0 -12 18 -12 l6 -6v-6l-6 -6l6 -6h6l18 48h-6v-6zM414 626v-12h12zM246 602v-12l12 12h-12zM192 596v-6h12v6h-12zM324 590v-6l-12 -144l-6 6h-12q0 -12 18 -12q0 -30 -12 -30l6 -6v-6l-6 -162q0 -140 78 -174l18 -18h12v6l-6 6v6q44 0 78 42l42 -30l6 6v-12h24v18l-12 12l-6 -6h-6 q0 10 -42 18l6 6l-6 18l6 126l-6 216l42 30v24l-30 6l-6 -6h-6zM492 584l-6 -6v-6l18 -6v6zM96 578v-12h12zM582 572v-18h6l12 12zM462 560l12 -12l30 6v6h-42zM528 542l6 -6h18l6 6h6l-6 18h-12zM138 542v-6l12 -12h6zM558 530l12 -12v12h-12zM630 500l12 -12v12h-12z M570 416v-12h6v12h-6zM564 368l-36 -42q14 -29 36 -42q48 16 48 30v30q0 12 -48 24zM630 344v-6h12v6h-12zM672 302v-6h12v6h-12zM0 290l426 -318l-6 -18h18v-6q-127 -96 -174 -96l-84 -6q-60 11 -60 24h12v6h-6l-6 -6h-6q-114 77 -114 330v90zM588 266v-12h6v12h-6z M600 236v-6h12v6h-12zM210 224v-6h12v6h-12zM660 212v-6h12v6h-12zM540 182v-12l12 -12h6v12l-12 12h-6zM672 158v-12h6v12h-6zM570 128l12 -12l12 12v12h-12zM642 128v-6h12v6h-12zM180 116v-12h6v12h-6zM132 86v-12h6v12h-6zM228 68v-12h6v12h-6zM660 44v-12h12v12h-12z M432 20v-12h6v12h-6zM642 8v-6l6 -6h6v6l-6 6h-6zM594 2v-12h12v12h-12zM486 -10v-12h6v12h-6zM432 -34h12v-12zM204 -64v-6h12v6h-12zM468 -64h6l168 -120q-8 -96 -18 -96l6 -6v-6q-28 -270 -42 -270l-18 -6v6l-12 18l6 6v12q-19 0 -42 120q-54 204 -54 342zM120 -82v-6h12 v6h-12zM222 -82v-24h12v6l-6 18h-6zM516 -130l6 -18h18l12 12l-12 12zM540 -166v-12h12v12h-12zM498 -184v-18h6l12 12zM528 -208l-6 -6v-6l18 -6l6 18h-6l-6 -6zM576 -352v-12l12 12h-12zM552 -412l12 -12h6l-12 12h-6zM576 -418v-6l18 -6v12h-18z" />
<glyph unicode="R" horiz-adv-x="666" d="M392 887h6v-19h-6v19zM172 848q63 0 175 -143h6l20 7l-7 6v7l13 13h6q0 -20 13 -20q1 22 65 91h7q153 -138 233 -285l-130 -149l-188 155q-19 -48 -19 -136l13 -253h-6l25 -129h-103l-7 6l-19 -13l-52 13l-7 -6h-6q-13 0 -20 39h-12l-7 -7h-6l-7 7v-7h7l-7 -26h-6l-46 7 l13 65l-6 26q39 0 39 155v123l-13 130q-11 0 -33 -52h-6q-13 0 -13 39h-7q4 26 46 45v7q-37 45 -78 45v-19l6 -39l-13 -39q13 0 13 -39h7l-7 -39l7 -142l19 6l-13 39l26 13l-6 32l19 13h7l26 -26q0 -60 -52 -84q0 -13 -20 -13l-6 -19l6 -46q-9 -26 -19 -26h-7l-19 13l6 26 l-6 20l6 26l-6 39l6 6v6l-6 7v6l6 20l-6 26l6 39q-13 220 -26 220h-6v26q121 84 182 188zM366 790h7v-13h-7v13zM398 764h7v-13h-7v13zM210 712v-13h13v13h-13zM204 310v-19l13 13v6h-13zM321 304l-7 -20h20v20h-13zM347 291v-13l13 13h-13zM42 284v-13h6v13h-6zM243 265 v-13h6v13h-6zM340 258v-6h13v6h-13zM100 219l13 -13v-6h-13l-13 13l7 6h6zM107 167h6l13 -13l-6 -19h-13l-13 13v6zM223 128v-12h7v12h-7zM366 109l-13 -13v-6h13l7 6v13h-7zM191 64v-7h13v7h-13zM599 38h7v-7q0 -47 -143 -142v13l7 6v7h-7q0 -44 -71 -72l-13 13l-6 -6v-7h6 q-2 -26 -123 -78l-13 20h13v13h-13v-13l-26 13l6 6v20h-13v-20h-6q0 16 -45 33l6 6v20l-19 -13v13h-7l-6 -7h-7q-47 42 -123 71v7q21 0 78 39l-7 6v7q20 0 20 13l6 -7l33 7h45q45 -2 45 -13l7 6h78l6 -6l7 6h6l91 -6h6l20 -13l6 6l7 -6q72 13 142 65zM152 -21l-6 -19l-7 6 h-19v-6l6 -7v-6q17 0 33 32h-7zM398 -21l13 -13v13h-13zM204 -27v-13h6v13h-6zM373 -27v-7l6 -6h6v6l-6 7h-6zM269 -34v-13h6v13h-6zM249 -40v-13h13zM392 -47v-13l19 20zM191 -47l-7 -6v-7l7 -6h6l7 6v7l-7 6h-6zM347 -47v-6h13v6h-13zM165 -53v-13h13v13h-13zM100 -60v-13 h7v13h-7zM314 -60l-6 -6v-7h6l7 7v6h-7zM340 -66v-7h13l-6 -6v-13h6l7 7h6l-6 6v6l6 7v6h-6zM288 -66v-19l7 -7h13v7q-13 0 -13 19h-7zM411 -85v-7h13v7h-13zM113 -92v-19l13 13v6h-13zM159 -92l-7 -6v-13l13 -13l13 13h-13l7 6v7l-7 6h-6zM223 -92l13 -13v13h-13zM275 -98 q3 -18 33 -26l6 6l7 -6v13l-20 6v-6zM379 -98l-6 -7v-6h6l6 6l7 -6v-7h-13v-6h6l20 6v13zM418 -98l-7 -7v-6h7l6 6v7h-6zM217 -105v-6q4 -24 45 -46l20 13l-7 20l-6 -7h-7l-13 13v-6l13 -13l-6 -7h-7l-26 39h-6zM139 -111l7 -20h6v13l-6 7h-7zM353 -111v-7h13v7h-13z M178 -131l-6 -26h6l6 7v19h-6zM301 -137v-13l13 -13h13l-6 32zM204 -144v-6h13v6h-13zM204 -157l-13 -19h13l6 19h-6zM230 -183q19 5 26 26q-21 -6 -26 -26zM256 -170v-13h6v13h-6zM178 -235h19v-19h-19v19zM243 -267h19v-26h-6l-13 13v13zM191 -293l13 -19v-7 q0 -15 -32 -19l-7 6v20q0 9 26 19zM249 -319h7v-13h-7v13zM172 -481q32 -12 32 -52q0 -22 -71 -39l-7 7v45q0 12 46 39zM236 -487h13v-13h-13v13zM217 -664h6l7 -6l6 6h7l13 -13v-6h-39v19zM217 -761h6v-13h-6v13z" />
<glyph unicode="S" horiz-adv-x="792" d="M403 957q14 1 28 1q159 0 242 -169l-18 -14l-7 -1q-21 80 -80 115q-82 50 -154 50q-8 0 -16 -1l-38 -4q-99 -8 -105 -111v-6l-12 -2l-10 44v4q0 65 170 94zM410 798l13 1l4 -50q43 -94 87 -94h4l1 -7q-15 -25 -147 -140q-52 78 -53 97h-7q-16 -2 -22 -111l18 -56 l-154 -141h-6q-77 153 -81 197l-1 6q-1 10 -1 19q0 145 205 210q88 7 140 69zM699 779q86 -109 91 -171l5 -57v-6q0 -53 -85 -116q47 -100 51 -142l9 -102q1 -10 1 -20q0 -159 -227 -312l-6 -7q-2 20 -22 36l-6 -7h-6l-20 5q-21 -23 -21 -44v-3q11 -24 21 -24l6 1l37 16 l1 -13q-10 -1 -10 -24v-9h-6l-149 95l13 1l-1 13l-18 -14q-258 86 -303 114l-53 14l-2 26q42 3 160 141l48 36l7 -6l6 1l-1 6l-38 80l147 134v6q100 -118 232 -118q13 0 27 1q62 18 100 91v7l-44 -11q-17 -1 -32 -1q-136 0 -207 108l6 1l142 133q39 -12 69 -12q8 0 15 1 q62 24 62 88q0 6 -1 13l-16 37zM280 685l1 -13l13 1l-2 13zM333 658l14 -12l6 1l-1 12zM392 637l1 -13l13 2l-1 12zM762 644l1 -13l6 1l-1 13zM555 600l13 1l-1 13zM272 556v-6l13 1l-1 7zM614 586v-6l13 1l-1 6zM90 521v-6l13 1v6zM534 547l2 -19l6 1l-1 19zM658 450 l20 -11l17 20l-1 13q-36 -7 -36 -21v-1zM157 336l1 -13l13 1l-1 13zM249 165l-13 -1l-7 6l-6 -1l1 -12q4 -52 181 -99l96 -11l-5 -7v-6h7l18 8l39 -3l6 1l18 84l-5 57q-9 103 -129 103q-13 0 -27 -1q-125 -11 -174 -118zM739 246l1 -12l13 1l-1 13zM50 33l1 -13l6 1l-1 13z M121 20l1 -6l12 1v6zM603 49l1 -6l14 -11l11 20l-14 11zM286 28l1 -6l12 1v6zM382 30l1 -13l6 1l-1 13zM717 59l1 -6l14 -11l-1 6zM531 5l1 -13l11 14zM639 2l1 -7l14 -11l11 13l-1 19l-13 -1zM628 -12l1 -13l7 -6l12 1v7l-14 11h-6zM565 -24l1 -13l13 1zM344 -50l1 -12 l12 13zM491 -50l1 -12h6l-1 13z" />
<glyph unicode="T" horiz-adv-x="402" d="M275 1059h13v-53h-13l13 -20v-40h-13v-26h13v-192h-6v13h-7q-17 0 -27 -47h14q0 17 26 20q7 -28 33 -46l47 7h39l7 -7l93 13l7 -6v-7q0 -55 -120 -80l-6 -33v-40h13l6 -112l-19 -14h-20v153l6 46h-53v-26l14 -252l-27 -40v-13l7 -7v-6h-7l7 -20l6 -173l-6 -6v-7l13 -99 l-7 -27v-26q0 -27 53 -100l-20 -6v-7l20 -7v20h7v-26h46l27 -20l-33 -53l6 -7l-39 -73l6 -6v-7l-20 -66l-6 6h-7l7 7v7l-14 13h-46l-7 -27q-19 0 -19 20h-47q0 20 -20 20l-6 7v6q0 22 46 27v13l-53 73h13v7q0 33 -20 33l7 7v6h-7l-6 -6h-7v6l-7 -6h-13q-13 53 -33 53l7 6v7 q-61 65 -73 119l6 -7h7v20h-7l-6 -6h-7l-13 53q20 0 20 26l-27 14l-6 119q20 229 59 464q-34 20 -66 20h-40l-13 59q68 6 186 120q19 0 53 112h33v7l-13 20q0 35 39 60v26h-13zM255 993v-7l7 -7h6v7l-6 7h-7zM255 966l-7 -6v-7l7 -7h13v7zM248 933v-13h14v13h-14zM222 893 l7 -20h26v14l-13 13h-7l-6 -7h-7zM229 834l-14 -20v-7l7 -7v-6l20 6v20zM149 721v-7h13v7h-13zM43 668v-7l7 -6h13v6zM374 648v-7l14 -13v7zM454 641l13 -13v13h-13zM248 622v-14h7l7 7h6l7 -7v7l-7 7h-20zM182 608v-6h13v6h-13zM288 595q0 -33 -20 -33v-7h14l6 -86h7 q0 60 20 60v13h-14v53h-13zM76 496l7 -7h6v20zM149 476v-14h13v14h-13zM156 436v-13l13 13h-13zM142 429v-13h7v13h-7zM69 363v-7h14v7h-14zM368 370l20 -14l6 7l20 -80l-20 -13q-26 0 -26 80v20zM229 290v-20h13v7zM63 283v-13h13v13h-13zM500 264h20v-7l-13 -13l-7 6v14z M109 237v-7h13v7h-13zM175 191v-7h14v7h-14zM282 184v-93l6 -66h-13v-7q20 0 20 -66h6v46l-6 7l6 7l-13 172h-6zM89 157v-13h14v13h-14zM189 138v-7l13 -13v6l-7 7l7 7h-13zM122 91q7 -46 20 -46h14l6 26q-20 0 -20 20h-20zM89 38v-20l14 -13h6l7 33h-27zM1176 45h20v-7h-20 v7zM189 25l13 -13v13h-13zM43 18h7v-13h-7v13zM242 5v-13h13zM268 -15v-13h14v13h-14zM129 -75h13v14zM222 -75v-13l26 -6v19h-26zM162 -88l-13 -20h13l7 20h-7zM122 -128v-13l14 13h-14zM268 -128l14 -13v13h-14zM162 -167l-6 -27l19 -6l7 6v13l-13 14h-7zM315 -174 q10 -26 20 -26v19zM282 -207h19v13h-6zM229 -200v-14h13zM169 -227v-13l13 13h-13zM202 -234l13 -26l20 7v13l-13 13zM328 -227v-13l-7 -7l14 -13h6l7 7v13l-13 13h-7zM242 -234v-13h6v13h-6zM301 -240v-7h14v7h-14zM255 -260v-20l13 -13l7 6h7q-5 20 -27 27zM394 -273 l13 -14h27l-27 27zM295 -273l13 -14v14h-13zM361 -287l-7 -6v-7l14 -13h6v13zM282 -293v-14h6v14h-6zM242 -300v-13h6v13h-6zM315 -307v-13h6v13h-6zM315 -333v-27h20v7zM335 -333v-7h13v7h-13zM321 -366v-13l14 13h-14zM308 -386l13 -13v13h-13zM282 -413v-13l13 13h-13z M348 -419v-13h13v13h-13zM361 -512v-46q-11 0 -26 39zM799 -532h6v-13h-6v13zM732 -671h7v-13h-7v13zM1137 -698v-13h-14zM938 -797h13v-7h-13v7zM944 -903v-7l-13 -13v7z" />
<glyph unicode="U" horiz-adv-x="684" d="M1217 903h6v-12h-6v12zM1187 867h12v-6h-12v6zM191 855q110 0 144 -258l-12 -12l12 -12l-42 -384v-6q0 -90 126 -114v24q2 30 12 30l-6 18l6 90l-6 6l6 30v156q0 160 -36 216v6q42 0 132 126l18 60h6q18 0 54 -120l72 -84q-48 -37 -48 -486l-6 -72q12 0 12 -18l6 -6h60 v-12q-98 -105 -138 -186h-6q-54 0 -138 108q0 18 -12 18q-51 -21 -162 -114h-6l-30 60q-58 48 -84 48l6 6q-34 47 -78 84l-18 42h60l6 6h6l-6 6v6q24 39 24 90v6q0 78 -30 216l6 -6h12v30q0 12 -30 12q0 60 -72 114v6h-6v-12h-6l-12 36l84 78l-6 6v6l90 150l6 6h30z M1241 759h12v-12zM1229 753h6v-12h-6v12zM101 723h12v12zM1235 711l12 -12v-6h-18zM143 675v-12h6v12h-6zM185 657v-6l12 -12l18 12l-6 18h-12zM71 663l-6 -6v-18h18v12zM95 657v-12h12v12h-12zM35 651v-12h6v12h-6zM1187 645h6v-12h-6v12zM23 633v-12h6v12h-6zM113 609v-12 h6v12h-6zM347 615h12v-6l-6 -18h-6v24zM185 597v-6h12v6h-12zM83 591v-12h6v12h-6zM179 573v-12h6v12h-6zM-121 567v-6l-12 -12v6zM161 549v-12h6v12h-6zM185 465l18 -18h12l12 12v30h-18zM119 483l12 -12v12h-12zM1031 471h6v-12h-6v12zM1169 465h6v-18h-6v18zM125 405v-12 l12 12h-12zM1163 405h12v-6h-12v6zM797 357h12v-6h-12v6zM1109 357h6v-12h-6v12zM-103 255h6v-12h-6v12zM743 213h12v-6h-12v6zM353 207l6 -6v-6h-18zM755 201h6v-18h-6v18zM491 153v-12h6v12h-6zM647 129h6v-12h-6v12zM983 117v-12h-18v6zM-1 111h6v-18h-6v18zM851 111h12 v-18l-12 12v6zM-745 646h6v-18h-6v18zM5 87l12 -12v-6l-12 12v6zM1253 69h6v-12h-6v12zM911 57l12 -12l-6 -6h-18v6zM95 -9h12v-12zM35 -27h12v-12zM545 -297h12v-12h-12v12zM-127 -327v-12h-12zM641 -351l12 -12v-6l-12 12v6zM629 -357h6v-12h-6v12zM977 -357v-12h-12z M1121 -411h6v-12h-6v12zM-151 -429h6v-12h-6v12zM53 -489h18v-18q-12 0 -12 -18l-6 -6h-6l-18 6v6l24 24v6zM863 -513l12 -12h-12v12zM335 -519l12 -12v-6h-12v18zM443 -621h6l12 -12h-18v12zM-655 2h6l-12 -12h-6zM1127 -94h12v-6h-12v6zM1067 -136h6v-12h-6v12zM-79 -142 h6v-12h-6v12z" />
<glyph unicode="V" horiz-adv-x="591" d="M183 960h6v-12h-6v12zM111 942v-12l-24 -102l18 -54v-342h-6q-22 72 -42 72h-6q0 -30 -12 -30h-12v24l6 30q-30 0 -30 24l24 24q-18 28 -120 90l-12 60q0 80 144 186zM141 750l102 -102v18q12 0 12 -24h6l6 6q24 0 24 -30l162 132h18l48 -48v-6h-18l-6 6h-6l-36 -42 l18 -36h24q42 0 42 36h6q36 -64 48 -204q-21 -360 -84 -360q-94 -124 -132 -216q-6 -48 -24 -48l-60 90l-126 84v48l-12 126l18 18v12q-24 0 -30 96h6l-12 54l6 6v6l-18 198h6l-6 6l12 72l-6 18l6 18l-6 6l6 30v12l-6 6v6l6 6h6zM513 600v-12h6v12h-6zM261 558v-132 q0 -288 54 -288l36 -24h6q48 247 48 318l12 18l-54 96q-46 24 -72 24h-18zM525 570v-6h12v6h-12zM465 498l6 -6h12v18h-6zM495 462l12 -12l12 12v12h-12zM453 414v-18h24v18l-12 12zM57 408l6 -18q0 -40 -48 -66h-6v12h12l-6 30l18 18l-6 18l6 6h24zM177 402v-12h6v12h-6z M93 282h6v-6l-12 -12h-6v6zM39 240h18v-6l-12 -12h-6v18zM57 210l18 -6v-24h-24l-6 24l6 6h6zM99 120v-6l-6 -18l12 -72l-60 12q0 47 54 84zM129 18h12v-6h-12v6zM105 -102v-18l-12 -12l-6 6v6zM99 -240l18 -30v-6q0 -14 -48 -30l-6 6v36q0 10 36 24zM129 -432h24v-6h-24v6z " />
<glyph unicode="W" horiz-adv-x="1036" d="M130 942q40 -16 48 -36h-12l-60 18q-26 -18 -48 -18v-12h6l6 6h6q0 -90 72 -114q162 -53 162 -150l6 -6v-6q-11 -60 -24 -60h-24l-30 6l12 -12h48q-30 -135 -30 -210v-54q0 -64 30 -126l-6 -18l6 -6h6l6 6l42 -54v-6h12q48 27 48 198v42l6 6l-6 6v18q0 78 -12 108h18 l-12 12l-6 -6l-30 96h6l204 12v-12h18l-6 6v6l30 6h24l-6 -90v-120l6 -30h-6l6 -18q0 -199 66 -246h12l30 18l-6 6q30 50 30 138l6 -6h12l-12 18v60q0 109 -72 276h6l228 18q90 -134 90 -258q0 -75 -114 -318q-186 -129 -186 -192q-13 0 -18 -54l-6 -6h-12q-14 0 -18 54 l-6 6q0 31 -24 54l6 6v12h-6v-12q-72 90 -162 90h-12v-6q10 -84 18 -84l-6 -6v-6l6 -24l-30 -24q-24 0 -30 84l12 24l-18 30l-54 -30v12h-6l-12 -12v-6h12v-18h-12v12h-12l-6 -42v-60l6 -36l-12 -18l12 -48l-6 -6v-6l6 -24l-6 -6h-6l6 -6v-6l-18 -18l-12 12l-6 -6v-6l18 -6 v-12q-29 0 -42 30v30l-6 54l12 24l-6 54l12 24q0 55 -60 84l6 6v12h-6l-18 -6l-36 36l6 6v6l-6 6h-6l-12 -12q-98 48 -120 48v12q66 67 66 144l-6 6v72q0 139 -132 342h12v6h-6l-18 -6q-12 14 -24 150q10 55 126 156zM874 708l60 -78l-198 -18h-12v6q48 0 150 90zM526 702 q46 0 120 -102l-282 -30l-30 54l174 78h18zM22 648v-12l12 12h-12zM274 600v-18l12 12l-6 6h-6zM436 558v-12h12v12h-12zM544 522v-6h12v6h-12zM796 522v-18l12 12l-6 6h-6zM424 444v-6q24 0 24 -12l-12 -18v-12l6 6h6l6 -6h6l6 6l6 -6v12q-24 23 -24 48zM490 444v-18l12 12 v6h-12zM952 426v-18h6v18h-6zM142 420v-12h6v12h-6zM226 372v-6h12v18zM496 336v-12h12v12h-12zM430 186v-18l12 12v6h-12zM136 180l12 -12v12h-12zM538 180l-6 -18h18v18h-12zM562 168v-12l12 12h-12zM466 144v-12h6v12h-6zM556 138v-6h12v6h-12zM916 72v-12l6 -6h6l-6 18 h-6zM118 66v-12h12zM682 36v-6l18 -24l-6 6v12l6 6v6h-18zM586 30v-6h12v6h-12zM592 18v-12l12 12h-12zM580 0l-12 -12v-6h12l6 6v12h-6zM604 -12v-12h6v12h-6zM688 -24h18v12h-6zM730 -30v-12h6v12h-6zM712 -60l-6 -6v-12h6l12 12l-6 6h-6zM370 -102l12 -12h-12v12z" />
<glyph unicode="X" horiz-adv-x="798" d="M803 721v-6q0 -228 -168 -228q-30 0 -132 -240q175 -312 282 -312l96 24v-6q-18 -49 -120 -114l-48 -60v12h-12l-12 -24h6l12 12h6q-10 -27 -42 -48l-36 42l6 18h-6l-6 -6h-6l-12 18h24v12l-12 12q-12 0 -12 -18q-214 262 -234 336h-6q-105 -63 -162 -276 q-12 -150 -48 -150q0 -19 -30 -36q-24 0 -24 72l-6 6h-12v-12h-12v12h-18l-18 -18l6 -24h-6l6 -6v-6l-6 -24l6 -18h-6l12 -36l-6 -30q0 -100 12 -162l-6 -6v-6l6 -42l-18 -24h-6l-18 12l6 24l-6 18l6 24l-6 36l6 6v6l-6 6v6l6 24l-6 24l-18 -12l6 -6v-6l-18 -18l-12 12 l-6 -6v-6l18 -6v-12q-29 0 -42 30v12l6 6l-12 66l12 24l-6 54l12 24l-6 30h-6l-78 -48h-6l-12 12v6q0 12 18 12l6 6v12l-18 -12v12q0 56 54 120h6l-6 6v6q93 82 216 102q32 0 84 138l84 138q-64 158 -174 288l12 30h-12v-18h-6v12l-6 -6h-6l-12 12l6 6h-6v-6q-18 0 -18 18 l-6 6h-6l-6 -6q0 12 -24 12l6 6v6q-12 0 -12 18q-12 0 -12 -18h-30v18l48 24l6 -6h6q17 66 156 66l54 6q0 -15 24 -18q81 -93 120 -270l30 -102h18q48 83 102 354l12 12l102 -24q59 0 138 60h6zM239 661v-12h6v12h-6zM23 631v-6h12v6h-12zM779 619v-12h6v12h-6zM227 607v-6 h18v12zM95 595v-12h6v12h-6zM623 589v-6h12v6h-12zM209 547v-6h12v6h-12zM203 481l12 -12l6 6v6h-18zM233 397v-12h6v12h-6zM281 391v-12h12v12h-12zM449 103v-6h12v6h-12zM245 79l-12 -18h12l6 18h-6zM203 55v-6h12v6h-12zM215 37v-12l12 12h-12zM227 25l-6 -6v-6h6l6 6v6 h-6zM677 -53v-12l12 12h-12zM107 -59v-12l12 12h-12zM725 -77v-24l12 -12h6l12 12v6l-18 18h-12zM5 -83l-6 -6v-6h6l6 6v6h-6zM665 -95v-6l18 -30h6l6 42l-6 6h-12zM-13 -101v-12h6v12h-6zM71 -101v-6h12v6h-12zM593 -119q0 -18 24 -18v-12h6l6 42l-6 6zM-7 -119v-6h12v6 h-12zM641 -143v-12h6v12h-6zM701 -155v-12h6v12h-6zM-103 -173v-12h6v12h-6zM659 -191l6 -6h6l18 18h-6v-6l-6 6h-6zM59 -197v-6h12v6h-12zM665 -233v-6h12v6h-12zM-97 -251v-12h6v12h-6zM-91 -269v-12l12 12h-12zM5 -293v-30l6 -36l-12 -18l12 -48l-6 -18l6 -6h6l6 18 l-12 138h-6z" />
<glyph unicode="Y" horiz-adv-x="761" d="M245 950v-6q-54 0 -54 -96v-24q0 -53 138 -156q30 -42 30 -114v-18q32 0 252 162q75 -83 102 -162l-6 -6q30 0 54 -180l-18 -132h6q-108 -594 -180 -672q-63 -101 -84 -114l-6 6h-6l-6 -6v-6l12 -12q-99 -107 -162 -132l-30 6q0 12 24 12q0 12 18 12l24 6l6 6v6h-12 q94 98 144 378q24 120 24 228v48q-51 -24 -78 -84q-42 -14 -42 -72l6 -30l-6 -6h-6l6 -18l-6 -66l18 -6v-12q-18 -22 -18 -42v-30l12 -12l-6 -6v-12l12 -12l-12 -36l18 -18q-22 0 -36 -78h-12q0 24 -18 24l-12 -12v-12h12v-6l6 6h12v-12l-12 -12q-60 21 -60 54l-6 42l6 24 l-6 6v6l6 24l-12 18q0 27 18 54v48h-12l6 42l-6 6q10 0 24 42q0 21 -126 168q-18 0 -90 84q90 45 90 126v24q0 118 -36 240l6 -6h6l12 18l-12 12q-12 0 -12 -24h-6q0 32 -102 162q-64 92 -72 156q0 138 258 204h18zM605 650v-12h6v12h-6zM599 602l-36 -42l18 -36h24 q32 0 42 24v30q0 12 -48 24zM665 578v-6h12v6h-12zM383 536v-12h12v12h-12zM623 500v-12h6v12h-6zM635 470v-6h12v6h-12zM353 464v-6l-18 -312q28 -90 114 -90q26 0 42 24l36 6v96q0 94 -54 192l12 12v12l-12 12h-6l-18 -12q-50 66 -96 66zM575 398l6 -6h12v18h-6zM179 392 v-6l12 -12l12 12v18h-12zM707 392v-12h6v12h-6zM605 362l12 -12l12 12v12h-12zM173 368v-6h12v6h-12zM497 350v-12h18l12 12l-12 12h-6zM563 314v-18h24v18l-12 12zM719 320v-6h12v6h-12zM287 302v-12h6v12h-6zM251 254v-12l12 12h-12zM215 200h12v12zM197 104v-12h6v12h-6z M251 80h12v12zM443 -100l18 -18v-6l-18 18v6zM449 -148h12l6 -24h-18v24zM485 -478l-6 -6v-6l12 -12h12v6zM449 -538v-6l12 12v6zM365 -658v-18h6v18h-6zM287 -718l6 -18l-42 -12l12 18l-6 6l30 12v-6z" />
<glyph unicode="Z" horiz-adv-x="579" d="M360 1072h6q45 -15 120 -264q24 -66 24 -108q0 -168 -198 -294v-6l72 -54q149 72 240 72h78q96 -12 96 -96v-6q0 -60 -72 -66l-6 6v-6q-46 0 -90 120l-60 6q-81 0 -168 -54q168 -237 168 -492v-6h-6v12l-18 12q-24 -6 -24 -24h-12q-4 30 -18 30v-12q0 -11 42 -42h18 q12 0 12 18h6v-24q-15 -120 -36 -120h-6l-24 18h-6q-44 0 -48 -54q0 -18 30 -18v-6l6 6h18q-91 -108 -192 -108h-72v6h12v12h-18v-18q-109 0 -216 114q-30 48 -30 84l6 42l-12 96q0 154 300 426q-38 60 -72 60l-138 -36h-24q-36 21 -36 54v30q0 12 78 30v-12h18q0 18 48 18 l42 36v6q24 36 24 102q0 103 -114 222h-6v12q38 48 60 48l126 138zM222 874v-12h6v12h-6zM264 856v-6q0 -12 18 -12v-6h-12v-24h12l18 12l-6 6v6l6 6v6l-6 -6h-12l12 12l-6 18h-12zM174 856v-12h12v12h-12zM192 808v-12h6v12h-6zM342 808l-6 -6v-6h18zM264 796v-6h12v6h-12z M162 790v-12h6v12h-6zM402 790l12 -12v12h-12zM258 772v-12h6v12h-6zM240 748v-12h6v12h-6zM486 742v-12h6v12h-6zM228 700v-12h12v12h-12zM264 664l18 -18h12l12 12v30h-18zM198 682l12 -12v12h-12zM408 658l-6 -6v-6l12 -12l30 6v18l-6 -6h-6zM90 388v-24h18v24h-18z M66 364v-6h12v6h-12zM36 346v-6l12 -12h6v18h-18zM264 328v-6h12v6h-12zM780 328v-12h6v12h-6zM312 256v-12h12v12h-12zM294 250q-219 -202 -270 -324l-24 -108q0 -63 42 -162l6 6h6q30 -36 78 -36h18q148 0 192 354v66q0 96 -42 204h-6zM366 226v-18h12v6zM456 88v-12h12 v12h-12zM354 34v-12h6v12h-6zM474 28v-12h12v12h-12zM462 -200l-6 -18q6 -24 30 -24l12 18q-6 24 -36 24zM426 -254l6 -6h12v18h-6zM498 -248v-6h18v6h-18zM396 -278l-6 -6v-30l24 -6l12 18v18zM462 -302v-6h12v6h-12zM438 -410v-6h12v18z" />
<glyph unicode="[" />
<glyph unicode="\" />
<glyph unicode="]" />
<glyph unicode="^" />
<glyph unicode="_" />
<glyph unicode="`" horiz-adv-x="92" d="M36 866h4q52 -41 52 -80v-56l-16 -20l4 -4h-4l4 -4v-12l-32 -40v8l4 36q-8 43 -52 104q10 0 20 32l4 -4h4l-4 4v4zM64 774l-4 -4v-4l8 -8h4v8z" />
<glyph unicode="a" horiz-adv-x="489" d="M237 650l56 -48q-16 -2 -16 -12l8 -8h4l8 8l-4 12l112 -88v-8l-8 -12h12q0 12 8 12h4l28 -28v-4q-27 0 -44 -100l4 -4v-4l-4 -4v-4l4 -12q-12 -38 -12 -124l-8 -8v-16l8 -20l4 4h4l4 -20l-4 4h-16l-4 -16l4 -4h12q8 0 8 16l8 -8l-4 -4l28 -4h12q28 0 52 52h4l4 -4v-4 q0 -15 -56 -100l-24 -92l4 -12l-8 -12q-81 35 -128 116l-12 36h-4l-72 -76v-12l12 -16l-8 -8l8 -28q-6 -16 -12 -16q-12 1 -24 28l4 20v16q-40 0 -40 -24h-4q0 12 -20 12h-8l-12 -12v-80l8 -40q0 -28 -8 -28l8 -12l-4 -4v-4l4 -80h4l-4 -4l8 -76l-4 -4v-4l4 -4v-4 q-3 -28 -28 -28l-8 24h8v4l-8 28l4 16l-4 28l4 28l-4 4v4l4 12l-4 24l4 4v4l-4 4l4 20v16q0 28 -8 28l4 12l-8 104h4q-1 36 -44 92l-12 48l4 12q-16 0 -16 120v40l4 4v4h-4q16 92 52 144q60 67 104 88q68 62 68 72zM317 570v-8h4v8h-4zM349 546l-4 -16h12v8zM221 538v-8 l4 -4h4l-4 12h-4zM233 522v-4h8v4h-8zM181 502v-8h4v8h-4zM217 494l-64 -152l-12 -104v-24q0 -59 56 -68q48 0 48 44q0 112 36 256zM393 450v-20h12l8 8v4l-8 8h-12zM97 446v-8h4v8h-4zM321 402l4 -4h16l4 12l-12 16q-12 -4 -12 -24zM69 406v-8h8v8h-8zM141 406v-8h8v8h-8z M125 398v-4l8 -8v12h-8zM353 366v-4l8 -8l8 8v12h-8zM325 362l8 -8h4l12 12l-4 4h-12zM81 354v-8h8zM385 350l8 -8v8h-8zM37 314l8 -8v8h-8zM349 314v-16h12l8 8l-8 8h-12zM33 302v-8h8v8h-8zM313 294v-8h12l-8 8h-4zM365 286h8v8zM373 250v-4h20v8zM21 234v-4l8 -8v4z M73 234v-8h4v8h-4zM89 178v-8l4 4h4l12 -12v4l-4 4v4l8 8zM333 182l8 -8v8h-8zM361 146v-8l8 8h-8zM445 134v-4h12l8 8v4h-12zM429 138v-8l8 8h-8zM421 126l8 -8v8h-8zM117 122l-4 -4v-4h4l4 4v4h-4zM365 86v-8h4v8h-4zM409 82l8 -8v8h-8zM397 62v-16h8l4 12l-4 4h-8z M369 30v-4l8 8v4zM389 26l4 -20l4 4h4l8 -8l4 28l-4 4h-12zM93 -18v-4h8v4h-8zM97 -162v-8h4v8h-4zM101 -322l8 -8v8h-8z" />
<glyph unicode="b" horiz-adv-x="447" d="M233 795h32q68 -11 68 -56v-20l-12 -12h-4l4 12q-10 60 -76 60q-55 -16 -76 -56q-20 -39 -20 -104q0 -81 32 -168h12q128 64 128 148v8h28q88 -197 88 -232v-40q0 -68 -24 -144h-4v8h-8v-8h8v-4l-4 -20l-4 4l-16 -8l-4 4h-8v-4h8l-4 -4v-4l4 -4v-4l-8 -8h20 q-45 -108 -92 -108q-27 -20 -44 -20h-12q0 -18 -36 -36q-19 -40 -32 -52l8 -12q-2 -32 -12 -32l4 -20l-12 -20l4 -4v-4l-12 -92l16 -24v-4l-8 -36l24 -40l-4 -12l4 -4h-8l12 -12q-4 -36 -16 -36q-21 0 -28 16l4 32l-24 60h4q0 12 -12 12v24l4 20l-16 4v16q36 0 36 48l4 44 h-4l4 4v20l-8 76l4 20q-41 41 -112 80h-4l-4 -4h-4l-8 28q12 0 24 48q23 0 32 144l-4 48l4 20q-10 0 -12 36h4l4 -4h4l12 4v20h-16l-12 -8q-16 109 -56 272q-37 64 -52 64v4h8q36 -11 76 -60l36 -12v4q65 120 104 120q17 17 64 24zM333 495v-8q16 0 28 -12h12l12 12v12 l-12 12h-20q-8 0 -8 -16h-12zM189 387l12 -292l-4 -4q20 0 36 -24l12 36l12 -8v8h-8q37 92 60 216h-4l4 4v24q0 84 -12 84q-71 -39 -108 -44zM405 371v-8h4v8h-4zM141 323v-4h8v4h-8zM349 303v-16q16 0 16 -12h20q16 7 16 28q-6 16 -28 16q-16 0 -24 -16zM129 299l-4 -4v-4 l4 -4h8v4zM109 255l4 -12h16v8l-8 8h-4l-4 -4h-4zM293 199v-12h4v12h-4zM333 199v-12l8 8l-4 4h-4zM309 175v-4h8v12zM129 151l8 -8h4l8 8l-4 12h-4zM297 135v-4h8v4h-8zM169 131v-8h4v8h-4zM321 131v-4h8v4h-8zM5 99l8 -8v-4l-8 8v4zM137 91l-4 -4v-4h12zM257 75l-8 -20h12 l4 20h-8zM-15 51h4q-6 -36 -16 -36h-8l-8 8v8q0 6 28 20zM181 -13l-8 -16v-4l8 -8h12l4 12q-6 16 -12 16h-4zM161 -349v-8h8z" />
<glyph unicode="c" horiz-adv-x="460" d="M328 672q130 -168 132 -188l-104 -88h-4l-108 160q-84 -128 -84 -256q0 -110 116 -160q20 0 20 -8l148 40h4v-4q-11 -27 -24 -32v12h-4l-8 -8v-4l8 -12l-108 -104h-4q-266 210 -284 232l-24 108q0 84 156 228l76 24l4 -4q0 8 48 28zM144 556v-12h12l8 8v4l-8 8h-4z M28 428v-8h4v8h-4zM80 376v-4l4 -4h4v4l-4 4h-4zM96 292v-8h4v8h-4zM44 212h4l188 -148l-4 -4h4l4 4h4l60 -52q-52 -45 -52 -60h-8q-10 0 -56 52q-102 83 -132 180q-5 0 -12 28zM132 104v-16h12v16h-12zM336 104v-8h8v8h-8zM184 76v-12l8 -8h4l4 16l-4 12h-4zM208 36v-8h8v8 h-8z" />
<glyph unicode="d" horiz-adv-x="544" d="M236 995q60 -10 60 -32h4v-20h-8q0 13 -20 24h-24q-41 0 -48 -76l4 -12h-4q-23 -15 -24 -24l4 -16h8q7 0 16 28h4l48 -60v-8l-4 -4l8 -24h12v12q0 8 -12 8v4h16l4 -16l4 4h4q135 -69 152 -108q104 -125 104 -292q0 -213 -196 -380q-29 0 -56 -124h-4v24q-20 0 -20 8 l-12 36l4 12h-12q-4 28 -52 80q-4 24 -12 24l-12 -4q-56 49 -124 84l-4 12l-4 -4h-4l-36 20v8q23 0 56 64q48 124 56 188l4 4h-8l8 8h8q8 0 8 -12l8 8l16 -8v4l-4 4v4h12v-8h4v8q16 -7 16 -16h4l4 12l-4 4l-4 -4h-8v16h12v-8h8v8l28 -28l4 4h4l4 -4l-4 -4l4 -20v-16l-16 12 q0 -8 -16 -8l-4 -4v-24l8 -8l24 8v-4l-32 -184q0 -48 80 -124l-8 -8l4 -4h4q18 0 64 244q0 56 12 56v20q-13 0 -20 60l-28 52l-20 -12q0 16 -24 20v8h16v-8h4l8 8l-8 8l-4 -4v12l16 8l8 -8h4l-4 16h-4l-20 -4v16h-4l-4 -4h-4l-4 4l-4 -4q-12 11 -12 24h-4v-8l-36 36l4 4h4 l-12 16l-12 -8q-78 87 -84 136l16 -12h4l4 20l-4 20l4 4h-4l-4 -4l-4 20h-12v-32h-8l-8 76v12q0 61 28 112q52 52 116 52zM112 875v-8h8v16zM132 827v-4l8 -8l4 4v16h-4zM196 823v-8h4v8h-4zM120 799v-12h4l8 8l-4 12zM172 771v-8l4 -4v-4h-8v-12h12v8l4 -4h8l12 44l-12 8 h-4zM228 767v-12l8 -8l8 8v12l-8 8zM260 755v-16h8l16 20v4h-8v-8h-4v8h-4zM288 739v-4h8v4h-8zM104 739h4v-12h-4v12zM260 727v-12h12l4 16l-4 4h-4zM216 723l-4 -12l4 -4h8v8zM228 723v-4h8v4h-8zM184 719v-8h8v8h-8zM200 711v-12l8 8v12zM260 707v-8l8 -8l4 4v12h-12z M184 687l4 -4v-4l12 4v12h-8zM216 687v-12h4v12h-4zM332 679v-12h8l8 8v4h-4l-4 -4h-4zM364 679l-4 -4v-4h4l4 4v4h-4zM192 675v-12l8 -8h4l8 8v4l-8 8h-12zM252 671l-4 -4v-4h4l4 4v4h-4zM216 651v-12h4v12h-4zM176 647v-16l8 -8h8v16l-8 8h-8zM344 647v-8h8v8h-8zM280 639 v-8h8v8h-8zM308 639v-8h4v8h-4zM260 631v-8l8 8h-8zM452 623v-4l8 8v4zM296 619l-4 -20q3 -24 8 -24q-4 -16 -16 -16v-16l8 -8q0 20 20 20l4 -4v-4h-8v-12l16 -12v4h-4l4 4v12l-8 12l4 20h-4q0 12 12 12l-12 12v4h-4l-4 -4h-4v20h-8zM312 615v-8h4v8h-4zM244 611l-4 -16 l4 -4h4v20h-4zM124 611h4q0 -11 68 -72v-8h4v8l8 -8h4l44 -20l-4 -4v-4l4 -4v-4l-4 -4h-8v8h-8v-4l4 -12h-8v8l-16 -12v8h-4l-12 -8q-8 0 -8 16h-4v-20h-4l-4 20l-32 -8l-4 4l4 12v4h-4v-8h-12l-20 16v16l4 40l-4 24zM444 599v-4h8v4h-8zM232 595v-8h4v8h-4zM276 587l-4 -4 v-12h4l4 4h4l4 -4q-6 16 -12 16zM372 583v-8h4v8h-4zM144 579l-4 -4v-8h4l4 12h-4zM344 567v-8h8v8h-8zM124 551l4 -16l-4 -12l4 -4h4l4 20v4l-8 8h-4zM144 543l12 -16v20zM408 539v-8h4v8h-4zM292 531v-4h8v4h-8zM340 531v-12h4v12h-4zM216 523v-8q8 0 8 -12h8v8 q-12 0 -12 12h-4zM152 519v-4l4 -4h4v4l-4 4h-4zM160 507v-8h8v8h-8zM408 499q8 -18 16 -20h4l-4 4l4 4v16zM328 491v-4l8 -8l4 4v4zM416 495h8v-8zM340 459v-8h8v8h-8zM276 459l4 -4v-4l-12 -4v4zM264 455l4 -12l-16 -8l-4 4v4zM484 443h8v8zM240 451h4v-12h-4v12zM168 431 l-4 -20v-4h4v8h4v-8h4v4l-4 4v4l4 12h-8zM460 419l4 -4l-4 -4l4 -4h16v8h4l-4 12h-12zM204 423l-4 -4v-4h4l4 4v4h-4zM140 419v-4l4 -4h4v4l-4 4h-4zM120 415v-8l8 8h-8zM192 415v-8h4v8h-4zM468 419h8l-8 -8v8zM116 379l4 -4h4v12zM448 379v-8l8 8h-8zM188 351v-12h8v12h-8 zM152 327h8v8zM168 335v-12h4v12h-4zM208 319v-8h4v8h-4zM140 307l4 -4h4v12zM476 311v-4h8v4h-8zM440 287h16l-4 12zM92 291v-12l8 8v4h-8zM176 251q6 -16 12 -16l8 28l-4 12h-4q-12 -4 -12 -24zM152 271v-8h4v8h-4zM124 231v-4l4 -12l8 8v8h-12zM184 207l4 -4h4l4 4v16z M96 187v-4l12 -12h4l16 16q0 6 -16 12zM396 199v-4h8v4h-8zM164 191v-16l8 8v8h-8zM176 179l8 -8v16zM184 167v-4h8v4h-8zM96 155l4 -4h4v12zM448 159v-4h8v4h-8zM184 155v-24h8v24h-8zM144 139l-4 -20q12 0 12 -16l4 -4h4l8 8v4q0 22 -16 28h-8zM196 91v-8h4v8h-4zM232 87 v-8h4v8h-4zM372 43v-8h4v8h-4zM292 19v-8l8 -8v24zM316 19v-8h4v8h-4zM248 -17v-8h4v8h-4zM272 -65v-16h8v16h-8zM288 -125v-20l-8 -8v20z" />
<glyph unicode="e" horiz-adv-x="444" d="M404 669h4q8 0 12 -24l-4 -4q12 0 12 -28q8 0 8 -24l4 -4l-4 -4l-12 -4v-4l8 -12v-4l-8 -12q0 -17 20 -44q-241 -180 -256 -180h-8l4 -4v-4q-56 -27 -56 -36q27 -60 100 -60h28q100 0 156 84l-4 4v4q5 20 12 20h4q8 0 8 -12q-24 -87 -120 -212h-4v8h-4l-4 -12l-4 4h-8 q0 -8 16 -8v-8q-28 -36 -44 -76h-4l4 -4v-4q-20 -52 -20 -120v-4h-8q-47 56 -112 108q-33 36 -100 192q-20 60 -20 96h4l-4 4v72l4 4v4h-4q17 85 40 104v-12h4v12l-4 12q93 99 136 100v-12h16v12l-4 4v4h12v-8h4v8l-4 4q58 0 152 36l4 -4zM412 617v-4h8v4h-8zM372 613v-4 l12 -8v4zM336 601v-4h8v4h-8zM404 585h12v8h-4zM384 585v-8h4v8h-4zM248 569v-4h8v4h-8zM208 533v-8h4v8h-4zM140 529v-4h8v4h-8zM276 525v-8h4v8h-4zM296 517v-4h8v4h-8zM156 513v-4h8v4h-8zM200 509q0 -16 -28 -16l4 4v4h-8v-4l4 -4q-5 -20 -36 -48h-4l4 -4v-4 q-12 -19 -12 -52v-32l156 124l4 -4h8v4h-8l28 28l-4 4h-44l-60 -4zM84 489v-4h8v4h-8zM320 485v-8h8v8h-8zM88 477v-8l8 -8l12 12v4h-20zM136 477v-4h12v4h-12zM288 457l8 -8h4v8h-12zM44 449v-16l4 4h4l-4 12h-4zM60 441v-4h8v4h-8zM312 433v-4l8 -8h4zM248 429l-4 -16 l12 4l-4 12h-4zM288 421h8v8zM48 425l-4 -4l16 -48h8q-10 44 -16 44v4h8v4h-12zM80 409v-8l8 8h-8zM88 401v-8h8zM260 397v-8h4v8h-4zM60 369l8 -8v8h-8zM64 353v-4l12 -40h-4l8 -24h4v12l-4 16l4 4q-8 0 -16 36h-4zM192 353v-8h8zM184 337v-4h8v4h-8zM132 317l-4 -12h4l8 8 v4h-8zM24 297v-4h8v4h-8zM96 285l4 -12l8 8zM28 277v-8h8zM88 265v-12l8 -40h4v16l-8 36h-4zM8 257v-4h8v4h-8zM64 225v-8h4v8h-4zM152 221v-8l8 8h-8zM100 209l4 -4v-4l-4 -4l4 -4v-8q-16 0 -16 -20l4 -12h8l4 4h4v-8h8v16l-4 4v4h4q-11 36 -16 36zM284 185v-8l8 -8h4 q12 0 12 16q-4 24 -12 24q-12 -4 -12 -24zM312 205v-8h4v8h-4zM184 201v-12l4 -4h4v4l-4 12h-4zM184 169v-4h16v8h-4zM280 157v-8h8v8h-8zM240 129v-8h8zM100 109v-12l8 -8l8 16l-4 12h-4zM276 109v-4h8v4h-8zM236 101v-8h4v8h-4zM212 81v-8l8 -8l4 20v4h-4zM188 49v-4h8v4 h-8zM108 29h4l12 12h-4zM232 29v-8h4v8h-4zM128 -7v-8h4v8h-4z" />
<glyph unicode="f" horiz-adv-x="376" d="M417 991l4 -4h4l4 4q35 -8 68 -32v-8l-20 -4q-20 32 -68 32l-12 -4zM337 983h8v-4h-8v4zM261 959h8v-8h-8v8zM249 955h8v-8h-8v8zM169 951q70 0 140 -128q42 -28 84 -28h12v-4l-100 -160q-104 58 -104 120q-35 76 -88 76q-8 -18 -8 -52v-12q0 -121 80 -176l48 -8l40 4v-4 l-16 -28h4q9 1 32 32l64 12l12 -36l-4 -40q9 0 16 -16l-12 -16l16 -36l-24 -24q-17 0 -32 48l8 32v4q-10 20 -32 20l-12 -24v-16l4 -4l-12 -32h4l-44 -244q-20 -53 -20 -76l4 -12l-4 -20l8 -48l-4 -24v-12l8 -12l-4 -4h-4l4 -20q0 -36 -36 -36q0 9 -16 16q-16 -193 -36 -208 l-8 40v212q0 238 -12 304q44 84 56 84v8h-8l4 4v12l-20 -20h4l-52 -80l-8 76h16v12l-8 8h-4l-4 -4h-4q-16 108 -64 108l-60 -8v4l-8 40q71 0 80 48v156l8 12l-8 12q12 104 28 104l-4 4h12v4h-8q15 31 36 44l8 -16l12 4v8q-16 0 -16 8zM501 951v-4q-8 -18 -16 -20v20z M225 947h12v-8h-20zM517 943l12 -92h-4l4 -4v-4q0 -144 -80 -200q0 16 -12 16h-20q-8 0 -8 -16h-12v-8q24 0 24 -12l-4 -4h-40q-25 0 -56 12q100 165 108 168q58 0 76 120h-4q9 24 16 24zM149 931v-8h8v8h-8zM117 903l8 -8v8h-8zM129 899v-4h8v4h-8zM101 883l4 -4h4l4 4v8 h-4zM-71 855h8v-8h-8v8zM329 855h16q7 0 16 -28l-12 -4q-20 8 -20 32zM97 839v-4h8v4h-8zM69 827v-8h4v8h-4zM-179 823h8v-4h-8v4zM77 815v-4h8v4h-8zM-47 787h8v-4l-8 -8v12zM505 779v-4h8v4h-8zM133 771h4v-12h-4v12zM577 747h8v-8l4 4h12l-4 -12h-12l-8 8v8zM69 735v-12 h4v12h-4zM129 739h8l8 -8l-8 -8h-12zM165 727h4l4 -12h-8v12zM449 691v-8l4 -12h8v4l-8 16h-4zM69 687v-8h4v8h-4zM97 671v-8h8v8h-8zM309 623l12 -4v-4h-12v8zM401 603h4v-8h-4v8zM21 539h8v8zM105 527v-12l12 -4l12 4v20h-16zM209 467h8q8 0 24 40h-4q-17 -8 -28 -40z M93 475v-4l8 -8h8l8 8v4l-8 8h-8zM261 375v-8h4v8h-4zM233 279v-8h4v8h-4zM149 231v-4h8v4h-8zM389 167h4v-8h-4v8zM397 163h4v-8h-4v8zM-199 -1h4v-8h-4v8zM189 -5v-16h8v16h-8zM265 -57h8v-8zM105 -81h4v-8h-4v8zM269 -81l16 -12v-4l-8 -8h-16l8 12l-4 12h4zM337 -81 q6 0 12 -16l-4 -4h-4l-12 12zM305 -85h8v-4h-8v4z" />
<glyph unicode="g" horiz-adv-x="472" d="M292 668h4q11 0 52 -92q48 -47 112 -60l-4 -4v-4h16v-8q-72 -15 -72 -72l-4 -24q0 -69 44 -240l-4 -4q22 0 36 -164q0 -216 -188 -292l-40 -12v8l-20 -12l-4 4v4q12 3 16 16h8v4h-4q-20 -2 -20 -12h-4q0 12 -16 12v-8l4 -4v-4l-12 -4l-4 4v-8l-4 4h-4l-4 -4l-4 4l-4 -4v8 h-4v-8l-4 4h-12l4 -4v-4h-8v16l4 -4h4l20 4l4 -4v4l-4 4h8v20l-8 8l-4 -4l-20 8l-4 -4h-8v8h-8l-4 -12l4 -12h-8q0 20 -8 20l-8 -8v8l-12 -8h-4v8l-8 -8q27 -9 36 -24l-8 -8q-28 11 -28 28l-4 -4h-4l-12 16v4q12 0 12 8v8q0 8 -32 12q-14 10 -24 32v4h4l4 -4l20 4v12l-4 16 l4 12l-12 -8l-4 4h-12l-4 -4h-4l4 -4v-16h-4l-8 36q19 96 84 96h4q39 0 48 -56q0 -51 -60 -76h-12v-4l44 -52h-4l-4 4h-4l-4 -4v-16h16l4 12l-4 4h4q16 -12 48 -20v-4l4 4h4l12 -4l12 4l-4 -4v-8l8 -8l12 8l-4 4v12q62 0 112 84v8q-12 82 -52 248v8q-91 -92 -156 -92l-44 12 v4q2 8 20 16l-16 28l-4 -4h-4l-12 4l-8 -8h-8q-28 76 -28 180q0 233 112 288q188 66 188 108l-12 20v16zM344 536v-8h8v8h-8zM300 524l8 -8v8h-8zM368 508v-4h8v4h-8zM140 240l8 -72l-4 4h-4l-8 -8v-4l8 -8l8 8h4l4 -20l-4 -16l4 -4h4q11 13 44 20q72 57 72 196v40 q0 48 -84 124q-18 -23 -44 -156zM344 500v-4h8v4h-8zM280 496v-8h8v8h-8zM324 456v-12l8 8v4h-8zM92 432v-8h8v8h-8zM384 384v-8h4v8h-4zM332 292v-8l8 -8h4v8l-8 8h-4zM296 280v-4l4 -4h8v4zM316 260v-8h8v8h-8zM364 232v-8h8zM16 200v-4h8v4h-8zM96 200v-8l8 -8l4 4v12 h-12zM68 172l-4 -12h12v4zM376 156v-8l8 8h-8zM432 156v-8h8v8h-8zM336 144v-8h8v8h-8zM84 140v-8l8 8h-8zM404 120v-4l16 -4v8h-16zM436 120v-8h4v8h-4zM148 116v-4h8v4h-8zM56 108v-8h4v8h-4zM420 -20v-8h4v8h-4zM60 -96l-12 8l-4 -4v-16h4q12 0 12 12h4q0 -14 28 -20l4 4 v48h-4q-32 -5 -32 -32zM40 -72v-8h4v8h-4zM20 -100v-8q8 0 8 -12h8l4 12l-4 4h-4l-4 -4h-4v8h-4zM96 -124v-8h4v8h-4zM16 -136v-4l8 -8l8 8l-4 4h-12zM12 -180h4v-12h-4v12zM44 -204v-8h4v8h-4zM236 -252v-4h8v4h-8zM292 -264v-12h4v12h-4zM144 -264h4l8 -24l-8 -8l-4 20v12 zM212 -268v-4h8v4h-8zM132 -280l8 -8l-4 -4l4 -4v-12l-4 4l-4 -4h-8l4 4l-4 4v12zM116 -300h8v-4h-8v4z" />
<glyph unicode="h" horiz-adv-x="534" d="M278 973q40 0 84 -72l4 -20v-4l-8 -8q-5 17 -36 44q0 25 -56 36q-71 0 -96 -76l-4 -36v-28l-4 -4q20 -134 72 -224l-140 -104v8h-4l-12 -4v4l4 12l-4 12l4 4v4l-4 16l12 4l-4 12l-4 -4h-4l-8 48l4 12h-4l-24 52l4 4v8h-4v-8l-60 72v4l4 -4h8l8 8v4l-24 -8q-28 32 -52 32 q0 16 -16 16l-20 20l4 4h12l52 -16q21 0 136 112q115 68 180 68zM106 881l4 -4h4v12zM94 861v-4l8 -8v4zM126 845v-8h12l-8 8h-4zM78 829v-8h8zM-82 797v-4l12 -4v8h-12zM-46 777v-4h8v4h-8zM110 773v-8h4v8h-4zM26 741l8 -8v8h-8zM18 713l16 -8v16h-8zM426 713l28 -28 l-4 -4v-8q31 0 64 -116h-8v-20q16 0 16 -8q12 -55 12 -108l-8 -152l-4 4h-4v-4l4 -4h4l-8 -96h-4l-8 32h-4v-8q0 -24 12 -24v-4l-4 -4l4 -4v-4q0 -126 -168 -320q-91 -83 -120 -88q119 111 140 184q32 86 32 140q0 164 -40 304h8l-4 4v8h8l4 -4l4 4h16v-8h4v8l16 -8l12 4 l24 -4l12 4l4 -28h4q-7 48 -16 48v-4l4 -12l-4 -4l-64 24h-4l-40 -4q-16 36 -28 44h-4l-28 -24v16l-4 -4h-4l-52 12l-4 -4l-4 4l-4 -4v4l-4 -4h-8v8h-8l-24 -16l-4 4h-4l-12 -8q-7 32 -24 32q0 12 -16 12v4l132 96l28 -40q68 29 112 100zM38 697l4 -12h4l8 8v8h-8l-4 -4h-4z M122 677h8v8zM102 673v-52h4l12 8l-8 16l4 12h-4l-4 16h-4zM74 637v-8h8v8h-8zM66 629v-8h4v8h-4zM394 609v-12q0 -8 12 -8l12 4v12l-4 4v4l4 4h-4v-4l-4 4h-8zM134 601v-4l4 -4h8v4zM418 589v-16l4 4h4l-4 12h-4zM438 573v-12h12l8 8v8l-4 4v4zM174 497v-8h8zM150 489 l-4 -4v-4h4l4 4v4h-4zM438 481v-8h4v8h-4zM438 461l4 -4h4v12zM98 465h8v-8zM114 461h8v-4h-8v4zM106 457h4v-8h-4v8zM158 453v-8l4 -4h4l-4 12h-4zM110 437h8l-8 -8v8zM234 433l48 -16q-64 -144 -64 -252h-12v-12q20 0 20 -20q5 0 20 -60h-4l-16 -4v-4l12 -12l12 8l4 -4v-8 q-56 -43 -76 -68h-4l4 -4q-34 -88 -48 -88h-4q-28 85 -44 112q12 0 12 8v4h-8v-8h-8q-28 51 -48 72q12 0 12 8h-4l-12 -4l-44 52l24 24v-12l-8 -12l4 -4h4v12l12 -8h4l20 4v4q0 24 -28 24v8l4 -4h4v4h-4l20 40l4 -4h4v4l-4 4l8 8q16 0 16 12v8h-4q0 -16 -12 -16v4l32 88h-4 l4 12h8l-4 -4v-4l4 -4h4q4 12 24 12l4 -4v4l-8 8v8l4 4v4h-8q0 -12 -12 -12l-4 4l-4 -12h-4v8l4 4l-4 20v32q16 0 16 8l-4 4l24 8l8 -8l20 4l-4 -4v-4h8q0 20 8 20v-8h12v8h4v-4l-4 -20l4 -4h4q12 20 28 20l12 -4zM114 429h8v-4h-8v4zM450 417v-8h8zM134 409v-12h4v12h-4z M406 397h4v-8h-4v8zM478 385v-4h8v4h-8zM178 381v-12h8v4zM134 349v-16h-4v8h-4v-8l12 -8l4 20l-4 4h-4zM470 341v-8h4v8h-4zM162 329v-8h4v8h-4zM122 321l-4 -12h4l4 4v8h-4zM478 313l-4 -4v-4h4l4 4v4h-4zM478 297v-8l4 -12h4v8l-4 12h-4zM486 273v-8h4v8h-4zM78 257v-8h4 v8h-4zM494 241v-8h4v8h-4zM422 233v-4l8 -8v12h-8zM42 197v-4h8v4h-8zM194 133l8 -8l4 4v4h-12zM14 129v-8h8v8h-8zM74 97q16 -24 40 -24l12 20v8q-8 20 -28 20h-12q-12 -4 -12 -24zM34 109v-4l4 -4h4v4l-4 4h-4zM46 85v-8h8v8h-8zM146 -23v-4h8v4h-8z" />
<glyph unicode="i" horiz-adv-x="268" d="M132 841h12q25 0 40 -29l-8 -22v-3q0 -8 12 -8v-7q0 -48 -40 -91q-14 -25 -20 -25q-40 49 -40 83l4 4h-4l-4 -4l-12 26v3q20 0 20 8l-4 11l-12 -8h-4v18q0 38 60 44zM92 805v-4l8 -7l4 3v15h-4zM156 801v-7h4v7h-4zM136 761v-7h4v7h-4zM144 743v-4l8 -7v18zM132 703v-7h4 v7h-4zM132 645q2 -20 24 -36l60 -91l-4 -4v-4q8 -18 24 -18l28 -36v-7q-47 0 -60 -138v-26q0 -178 64 -178v-3q-19 -30 -96 -106q0 -10 -24 -32l-4 3h-4l4 -3v-15h-12l-44 73l4 18v14h-4l-12 -3v3q-32 93 -32 211v7l4 4l-4 4l4 36v22l8 7l-4 4v18l4 29q-11 65 -56 65 q32 37 44 37q19 71 88 145zM120 612v-14h12v7l-8 7h-4zM168 496q0 -11 -8 -11l-12 4l-4 -4v-15l8 -7h4v7q17 0 20 26h-8zM184 489v-4h8v4h-8zM32 460v-4h8v4h-8zM80 431v-8l8 8h-8zM200 409v-8l8 -7v15h-8zM76 398l4 -4h4v11zM180 394v-14h4l8 7v14h-4zM148 372v-11h8v11h-8 zM128 358v-11h4v11h-4zM100 332l4 -3h4v11zM52 318v-11l8 7v4h-8zM184 303v-11h8l4 19h-4zM136 282q6 -15 12 -15l8 25l-4 11h-4q-12 -3 -12 -21zM84 263v-3l4 -11l8 7v7h-12zM144 242l4 -4h4l4 4v14q-6 0 -12 -14zM172 245l-8 -14v-11q3 -22 12 -22h8l4 18v22l-8 7h-8z M56 223v-3l12 -11h4l8 7v11l-8 7zM124 227v-14l8 7v7h-8zM136 216l8 -7v14zM144 205v-3h8v3h-8zM56 194l4 -3h4v11zM144 194v-21h8v21h-8zM104 180l-4 -18q12 0 12 -15l4 -3h4l8 7v3q0 20 -16 26h-8zM156 136v-7h4v7h-4zM192 133v-8h4v8h-4zM136 104v-22l8 -7q7 0 12 18 q-5 18 -12 18zM232 93l4 -4h4l4 4v7h-4zM160 67v-7h8v7h-8zM136 64v-11l4 -4h4l-4 15h-4z" />
<glyph unicode="j" horiz-adv-x="316" d="M150 871q56 -16 56 -58l4 -32q0 -24 -36 -102h-8q-24 0 -60 109v40q4 43 44 43zM162 654h8q40 -108 96 -152l40 -51q-64 -61 -64 -116l4 -58v-14q0 -199 -16 -199l4 -25q0 -31 -24 -120l28 -98q-44 12 -44 44h-12q-9 -2 -20 -29l-124 -87q-35 -18 -56 -18h-48v4 q0 28 52 68l24 51v4h-4l4 11l-12 21l4 11l-8 33q0 18 12 18v14q0 36 -12 36v19l8 7h8q12 0 12 -47v-33l4 -3l-4 -4v-22l4 -14l-4 -15l4 -11l-4 -14v-11h4l28 65l-8 40l4 4l-4 25v18l16 18l-12 203l4 32v37l-4 3l4 4v18l-4 4l4 3v36l4 4l-4 4v14l4 4l-4 3v4l4 4v3h-4l4 4v3 q-9 29 -32 55v3q28 0 96 105l4 -3h4l-4 3v4q16 21 36 76zM238 401v-4l8 -7l4 3v8h-12zM166 372l8 -8v8h-8zM74 368v-11h4v11h-4zM130 339v-11l8 -7h4l4 14l-4 11h-4zM70 332l4 -4v-3l-4 -33h4l-4 -4v-32l4 -4l-8 -40l8 -65h-4l4 -3v-8q0 -65 8 -108h8l8 97v19q0 60 -20 191 l-4 -3h-4zM154 303v-7h8v7h-8zM150 245v-4h12v8zM218 205v-7h4v7h-4zM178 165v-7l8 -7l4 18v4h-4zM-78 42h12v-11h-4l-8 8v3zM210 -1v-11h8v11h-8zM102 -12v-7h4v7h-4zM90 -41v-4l12 -39h12l4 18q-16 19 -16 32h-4zM146 -48v-4l8 -7h4v11h-12zM50 -142v-8h4v8h-4zM2 -222v-4 h8v4h-8zM54 -222v-4h12v4h-12zM-30 -229v-7l8 7h-8zM-46 -240v-11h8v11h-8zM-66 -240l-4 -25h-4l-36 -4q-18 7 -20 14z" />
<glyph unicode="k" horiz-adv-x="470" d="M230 999q69 0 107 -48v-12q-61 24 -89 24q-40 -47 -40 -68l-4 -32l4 -16l9 -236h-5l5 -12l-5 -28h5q42 26 138 108q9 0 75 -128q-24 -42 -89 -104q-57 34 -57 72h-18l-5 -16h-4l-120 76l4 4v4q-26 0 -102 64h9v4l-13 16l9 8q0 21 -14 24l9 12l14 -4v8l-27 16v12q9 8 9 36 q10 0 13 20q-13 4 -13 24v4l4 4v4q-7 0 -13 24h9v4l-5 4l5 4v4l-5 4v4h5l-5 4v20q46 18 147 80l22 -4q15 0 31 12zM190 963v-8h5v8h-5zM230 963v-8h9zM106 895h4l9 8h-4zM124 903l9 -8v8h-9zM-94 903h18l9 -8v-8l-9 -8l-18 20v4zM195 871v-8h4v8h-4zM168 847v-12l13 -12 q0 8 14 8l-9 24h-9zM119 819v-4l5 -20h4q9 0 9 12l-4 12h-14zM164 815v-8h4v8h-4zM115 783v-8h9v8h-9zM48 779v-8h5v8h-5zM155 747v-4h9v4h-9zM110 735v-8h5v8h-5zM106 715v-12h4v12h-4zM75 691l9 -8v8h-9zM53 667v-8h4v8h-4zM110 651v-4h5l13 4v8h-9zM84 635l4 -4h5v12z M323 635v-12h9v4zM39 635q30 -24 40 -24l-4 -4v-16l9 -8v20h4l151 -100l-53 -64h9q39 0 93 32q32 -15 40 -36q80 -25 80 -228q0 -86 71 -180l31 -20q-61 -63 -93 -132q-5 -40 -14 -40l5 -4v-12l-9 -8q-36 88 -44 92q-48 67 -134 156v4q31 40 31 96v16q0 91 -75 224l-5 4h-4 l-4 -56q0 -192 44 -192h4q-44 -78 -79 -172h-5q-102 82 -102 108l4 4v4l-9 20l5 4q-9 0 -13 48l4 16l-9 20l5 4l4 12h4l-4 4v4l4 44l-8 24v8l8 8l-4 4v20l4 24l-4 16l4 24l-8 8v4l17 48l-9 24v48l5 16l-5 4v4l9 12l-4 12q0 19 18 40zM359 623v-8h4v8h-4zM57 595v-12l9 8v4 h-9zM79 579v-4h9v4h-9zM221 559v-8h5v8h-5zM239 559v-16h13v16h-13zM133 547h13v8h-5zM341 539v-8h5v8h-5zM377 511l9 -8h4l-9 8h-4zM44 479v-8l9 8h-9zM124 407l9 -8v8h-9zM315 407v-4h8v4h-8zM221 403l9 -8h5v8h-14zM204 387h8v8zM346 363v-4h9v4h-9z" />
<glyph unicode="l" horiz-adv-x="252" d="M210 935h12q25 0 52 -41q-19 0 -60 -59l-4 4h-12q-9 0 -12 -23l4 -4h12l4 4h4v-4q-9 -32 -16 -32l4 -5v-13h-8v-10h4l-12 -105h-4l-8 124q12 0 12 9l-4 -5h-8l-12 137l20 9l12 -4v9l-4 -5h-4v9zM202 921v-4l8 9v4zM198 908v-10h8v10h-8zM150 898l8 -86h-8q16 0 28 -320 v-87q0 -91 40 -319l8 -78q-28 -35 -56 -150v-5h-4l-4 5h-4l4 4v9q-32 100 -60 128l12 5v22h-16l-4 -4l-4 -14h-4q-25 17 -68 23v5q32 0 56 127l8 37q0 490 -60 644l4 -5h8v9q-32 0 -32 28l-4 4v9h4l52 -36l-4 -5v-9h4v9h32l32 23l4 -4h4v4l-4 5zM-10 894h8v-5h-8v5zM238 889 l-4 -4v-5h4l4 5v4h-4zM178 871v-9h8v9h-8zM114 830v9h-12v-4h8v-5l-4 -14l24 5l-4 4v5h4l12 -5l-8 23q-8 0 -8 -13zM118 752h8v10zM98 743h8v9zM146 752l8 -9v9h-8zM150 214v-5h8v5h-8zM150 104v-9h12l-8 9h-4zM222 90h4l20 -59l-20 -14v41l-4 28v4zM190 45v-5h8v5h-8z M194 26v-4l4 -5h4v5l-4 4h-4zM174 -47v-4h8v4h-8zM162 -74l-4 -5v-4l4 -5h8v5z" />
<glyph unicode="m" horiz-adv-x="799" d="M392 644q68 -28 88 -76l32 -68h4q75 24 140 124q0 16 8 16h4q15 -9 52 -76l68 -84q-54 -36 -56 -160v-12l-216 -88l12 96q-11 112 -20 112q-26 0 -32 -116v-108q-30 -22 -208 -92l-4 4q0 -14 -88 -44v-4l-40 -16l-16 4l-4 -4q-13 22 -108 92v8q12 0 12 8l4 -4h8v4h-8 q56 62 56 104l-4 12l4 4l-24 120l4 4q-7 0 -28 96h-4l-4 -4h-4l-20 4v4l12 12q0 -12 8 -12v8l-4 12l28 28l4 -4q13 38 52 52v4h-8l36 36q57 -11 124 -140q49 32 80 76zM80 584v-8h8l8 8v4zM160 580v-4h8v4h-8zM176 580v-8h4v8h-4zM96 572l-4 -12h4l8 8v4h-8zM60 548v-4h8v4 h-8zM40 524h8v8zM96 520v-4l28 -4l-4 4v4l8 8v4h-4q-9 -12 -28 -12zM1012 528h12v-4h-12v4zM28 516v-8h8v8h-8zM152 512l8 -8v8h-8zM180 504v-4h8v4h-8zM192 500v-8h12l-8 8h-4zM1180 504h4v-12h-4v12zM124 496v-12h4l8 8v4h-12zM404 492l8 -8v8h-8zM44 472h8v8zM216 480 l-4 -4v-4l8 -8h4v8zM68 472v-4l20 -20l8 8v8l-8 8h-4l-4 -4l-4 4h-8zM228 460v-4l8 -8l4 4v8h-12zM164 456v-8h8v8h-8zM208 444l-4 -12h8v12h-4zM124 428v-12l16 -4v8h-8v8l4 4v4h-4zM72 428l-8 -12l4 -12h8q8 0 8 16l12 -8l4 4v4l-16 4l-4 -4zM240 420v-84q-12 0 -12 -8v-4 l8 -8l4 4v-76q0 -52 12 -92h-8v-4h8l4 4l4 -16q17 0 28 104v28q0 88 -40 152h-8zM64 400v-4h8v4h-8zM128 392v-4h8v4h-8zM100 372v-4h8v4h-8zM164 368v-4h8v4h-8zM148 360l-4 -4l4 -12l8 8zM364 356v-8h8v8h-8zM224 352v-4h8v4h-8zM132 332v-8h8v8h-8zM316 312l4 -28l4 4h4 l4 -4l12 16q-3 12 -16 16zM92 304h8v8zM140 312l4 -16h12v12zM120 304v-12h12l4 12h-16zM732 304v-88l8 -60l-4 -16l4 -4h4l4 4h4v-8l40 8v-4l4 -4v-4q-27 -45 -60 -64q0 -9 -84 -80h-4q-75 34 -108 100q-15 26 -24 76l4 4v4l-4 24v4q0 9 216 108zM368 280v-12h16v4l-8 8h-8 zM164 276v-8h8zM228 272l-4 -4v-4l4 -4h8v4zM336 260v-4h8v4h-8zM148 252v-12h4v12h-4zM372 240h8v8zM652 232v-8h4l8 8v8h-4zM424 216v-4h8v4h-8zM84 204v-8h8zM224 180h8v8zM60 184v-4h8v4h-8zM208 168v-4h8v12zM480 180l20 -64l-28 -20v-4l4 -4v-4q-23 -26 -36 -28 l-24 -64h-16q-36 47 -100 100v4l48 20v-4q0 -12 8 -12h4v20q0 8 120 60zM784 180h4v-8h-4v8zM76 172l-4 -12h4l4 4v8h-4zM140 172v-4l4 -12h20v8h-4l-4 -4h-4q0 12 -12 12zM40 164v-8h4l8 8v4zM108 164v-8h8v8h-8zM52 156v-4h8v4h-8zM32 152v-4h8v4h-8zM180 152v-8h8v8h-8z M312 148v-8h8v8h-8zM424 148v-4h8v4h-8zM208 144l-8 -12v-4h8l4 16h-4zM540 144v-4h8v4h-8zM608 144v-8h4v8h-4zM696 144v-12l8 8l-4 4h-4zM528 140v-8h4v8h-4zM116 136l-4 -4v-12h8l4 12l-4 4h-4zM692 116v-4l8 -8h4v20h-4zM228 116v-4l8 -8l8 12v4zM408 112v-4l8 -8v20z M88 104l8 -8l4 4v12h-4zM632 108v-8h4v8h-4zM640 104v-8h4v8h-4zM144 96v-8h4v8h-4zM164 92v-4h8v4h-8zM188 84h8v8zM460 92v-8h4v8h-4zM420 88v-8h8v8h-8zM604 88l4 -28h4l4 4h4l4 -4l-8 28h-4v-8h-4v8h-4zM116 84v-4h8v4h-8zM152 84v-8h8v8h-8zM988 80v-8h-8zM216 52h4v-4 l-40 -76h-4l-28 44l48 28l4 -4h8q0 12 8 12zM588 44l-4 -4v-8l12 -4v4l-8 8h8v4h-8zM868 20h8v-4h-8v4zM164 4v-8h8v8h-8zM636 4v-8h4v8h-4zM872 -44v-4l-8 -8v4z" />
<glyph unicode="n" horiz-adv-x="529" d="M617 1025h4v-8h-4v8zM597 1001h8v-4h-8v4zM633 929h8v-8zM625 925h4v-8h-4v8zM629 897l8 -8v-4h-12zM161 873h8v-4h-8v4zM597 853h4v-8h-4v8zM37 833h8v-4l-4 -12h-4v16zM-275 801v-4l-8 -8v4zM-131 801h8v-4h-8v4zM493 737h4v-8h-4v8zM585 733h4v-12h-4v12zM581 693h8 v-4h-8v4zM545 661h4v-8h-4v8zM133 641h4q46 0 92 -88l8 -20h-8v-4l-4 4h-8v-8l4 4h4v-8l12 8l12 -44q-12 -9 -28 -56l12 -12l-8 -24l4 -12q0 -96 12 -192q-12 0 -12 -8q16 -15 16 -28l-4 -16q8 0 16 -40q-104 -69 -104 -132h-8v8q0 41 -52 80l4 16q-20 0 -20 8l-4 -4h-4v-8 h-4l-68 48v4q66 0 76 164l-4 48v4l-4 4l4 4l-32 152h-36l-8 8q140 112 140 140zM125 593v-4l12 -4v4l-4 4h-8zM-263 593h4v-8h-4v8zM365 593q0 -25 36 -84h-12l24 -16v-8q0 -8 -12 -8v-4h28q0 -27 100 -40v-8q-72 -19 -72 -128l-4 4h-8v-4q0 -8 12 -8v-44q0 -119 52 -168v-4 q-43 -7 -116 -120q-27 0 -76 72q-32 57 -48 180h4q-12 29 -12 152v28l-20 60q34 68 72 68v4h-12l36 48l4 -4h4v4l-4 4zM-111 589h4v-8h-4v8zM157 569v-8h4v8h-4zM301 565h8v-4h-8v4zM309 557h4v-12h-4v12zM369 541v-8h4v8h-4zM345 529h8v8zM161 529q0 -9 20 -12v8zM329 513 v-4h8v-4l12 4v4h-12l4 4v4h-4zM353 509v-4h8v4h-8zM181 501v-8h8v8h-8zM205 497v-16h24v8zM461 501v-8h-12v4zM145 493v-4h8v4h-8zM369 493l-4 -12l4 -4h4v16h-4zM137 473l4 -4h4v12zM641 469h4v-8h-4v8zM341 457v-8h8v8h-8zM377 453v-8h12l-8 8h-4zM409 445h4l36 -12h4v4 l-28 12h-12zM201 425v-4h8v4h-8zM361 421v-8h4v8h-4zM437 421v-4l32 -8v4l-24 8h-8zM209 417v-4h8v4h-8zM-67 401l8 -8l-4 -4h-4v12zM337 381v-4h8v4h-8zM69 365v-4h20l-4 4v4zM397 365v-8h8v8h-8zM389 341v-8h4v8h-4zM333 281v-8l8 8h-8zM413 273v-4h8v4h-8zM377 269v-8h8 v8h-8zM433 265v-4l4 -12h4v4l-4 12h-4zM329 253l8 -8v8h-8zM377 209v-4h8v4h-8zM309 197h8v8zM-279 205v-8h-8zM181 201v-8l16 -4l-12 12h-4zM425 201v-4l8 -8h4l-4 12h-8zM333 181v-8h8zM61 169q7 -16 28 -16l4 4v8l-12 12h-4zM109 169v-12h8l4 12h-12zM197 165v-8h8v8h-8z M185 157v-8h4v8h-4zM553 149h4v-8h-4v8zM-295 137h4v-8h-4v8zM421 125h8v8zM201 121v-8l8 8h-8zM189 117v-4h8v4h-8zM161 93l4 -4l-4 -4h12l12 12q-6 16 -12 16q-9 0 -12 -20zM-159 97h12v-12q-8 0 -8 -12l-4 -4h-4l-12 4v4l16 16v4zM461 85h4l8 8h-4zM217 89v-4h8v4h-8z M441 69h12v8h-4zM189 73v-16l4 4h4l-4 12h-4zM37 73v-8h-8zM397 37v-8h4v8h-4zM101 9h4l8 -8h-12v8zM361 5v-4l8 -8v12h-8zM-631 -35h4l-8 -8h-4zM557 -99h8v-4h-8v4zM517 -127h4v-8h-4v8zM-247 -131h4v-8h-4v8z" />
<glyph unicode="o" horiz-adv-x="490" d="M347 630h4q111 -50 111 -248l9 -176q0 -89 -133 -136q-58 -67 -65 -116h-4l-51 60l-74 24l5 20h-9v-16l-143 16v4q18 33 41 48q37 58 37 156v88q0 46 -27 140v12q10 24 105 24q142 26 180 72zM246 462q-37 -48 -37 -104l9 -160q-9 -65 -32 -104h9l14 36l64 -28 q37 56 37 244q0 64 -64 116zM43 82l18 12h-4zM89 86l5 -12h9v12h-14z" />
<glyph unicode="p" horiz-adv-x="556" d="M140 760h20q24 -10 24 -44q-34 32 -44 32v12zM136 756v-8l-28 -12l-4 4v4zM104 736h4q-28 -24 -28 -48q0 -49 112 -104q12 -32 28 -32l4 -16q28 0 28 20h8v-20l20 4q8 0 12 -24q75 9 192 100q72 -80 72 -224q-15 -211 -44 -244l-8 -12l20 -124l-28 -28q-7 0 -28 28v32 l-4 24l12 24l-12 20l-44 -28l-16 8q-10 -28 -24 -28l4 4v16h-4l-12 -12v-12l4 -16q-8 -21 -8 -84l12 -12q0 -12 -12 -12v-8q0 -34 8 -52l-4 -16l8 -12q0 -8 -12 -8v-20l-20 -32q-15 0 -40 24l4 4v4l-4 24l4 12l-4 4v4l4 16q-8 0 -8 12l12 40v16h-8v4l4 20h-4l12 32v24 q0 21 -32 48q-8 0 -12 -24l-4 4h-4v-8h8q-4 -27 -20 -40l8 -8l-4 -28l-4 4h-8l-4 -4h-4q0 -12 16 -12v-4q-33 -247 -44 -260l-4 -4h-4l-28 104h-4l4 4v4q-32 241 -32 288v28l-48 12q-55 0 -72 -56l20 -48h-4q-36 26 -36 64v16q0 71 116 108h36v44q0 95 -68 140 q-27 17 -44 52q-20 41 -20 76v36q3 88 20 88l-4 4v4q34 76 68 76zM68 656v-4h8v4h-8zM72 580v-8h4v8h-4zM52 548v-4l4 -4h4v4l-4 4h-4zM28 528v-8h8zM76 516v-8h4v8h-4zM292 420l8 -196l-4 -12q13 -30 56 -68v-4h12v8h-8v4q88 142 88 272q-4 64 -12 64zM144 380v-8h4v8h-4z M88 348l16 -16q0 -35 -32 -52l-8 -8h-4v8l8 8l-4 20v8l16 4l-4 4v12zM468 296v-4h8v4h-8zM512 260v-8l4 -12h8v4l-8 16h-4zM128 240h4v-8l-8 -8h-4v8zM80 236h8v-8h-8v8zM460 212v-8h16v-4h-8v-8h8l4 4l4 -4h16l12 12v12l-12 12h-20q-8 0 -8 -16h-12zM184 96v-12l12 -4l12 4 v20h-16zM384 96v-4l8 -8l8 12h-16zM108 76l8 -12v-8l-8 -8h-4l-12 12v4q0 6 16 12zM396 68h4v-8h-4v8zM176 52l-4 -4v-8l8 -8h8l8 8v8zM404 40l4 -4v-8h-4l-8 8l4 4h4zM172 -28l12 -8h12v12l-8 8h-4zM128 -80h16v-12l-8 -8h-12zM336 -184l-4 -4v-12h16v4zM132 -192 q16 -21 16 -36l-40 -20l-8 12v8q0 22 32 36zM212 -200v-4h8v4h-8zM120 -224v-8h4v8h-4zM156 -348l24 -4l-4 -4v-4l-4 4h-4l-12 -4v12zM156 -408h4v-8h-4v8z" />
<glyph unicode="q" horiz-adv-x="472" d="M224 657l16 -16v-4h-32q8 18 16 20zM236 629h12q75 -72 208 -72h16q-36 -47 -36 -64l8 -252q0 -153 -36 -420l-12 -4v-4h8l4 4v-4l-12 -76l4 -4l-20 -8v4l-28 84l4 4v8h-4v-8h-4v12h8v4q-16 0 -16 32l4 4l-16 24h-4v4l4 12l-8 56h4q-8 16 -8 44v20h-4l-4 -4h-4l-4 4v4 q12 3 12 32v8l-4 20h-8v-8h8v-4l-60 -44l-12 -8h-4l-4 4h-4q0 -16 -8 -16v4l12 60h-8q0 -40 -12 -40l4 -4v-24l-56 -12l-8 8v-8h-4q-48 0 -84 24l-8 12h8v4q-36 0 -56 136h4l-8 24v8h4l-4 20v12l4 16l-4 16v8l4 4l-4 4v12l4 12l-4 16q0 86 24 180h4q0 -16 8 -16v8l-8 12 q0 43 152 88q11 28 56 28zM216 593v-4h8v4h-8zM252 569l-4 -4v-4l8 -8h4v8zM116 561v-8h-4l12 -16l8 8v8l-8 8h-8zM264 549v-4l8 -8l4 4v8h-12zM200 545v-8h8v8h-8zM60 541v-4l8 -8v12h-8zM244 533l-4 -12h8v12h-4zM160 517v-12h8l4 20h-4zM108 517l-8 -12l4 -12h8 q7 0 12 20h-4l-4 -4zM200 497l-8 -100h-8l-4 4h-4l4 -20l4 4h4v-20l-4 -36l4 -4l-4 -20v-48l-4 4h-4v-4l28 -96q30 -20 52 -20h4l4 4h4v-4l-8 -24h8q0 24 36 52l8 48l-4 4l4 20v60l-4 68h4l-4 4v36h12v16h-8v-8h-4l-4 16l4 4v4l-16 24v8l-12 -8zM164 481v-4h8v4h-8zM44 473 l-32 -40v-12h4l32 52h-4zM68 473v-8h4v8h-4zM136 461v-4h8v4h-8zM48 457v-16h8l4 16h-12zM184 449l-4 -4l4 -12l8 8zM400 445v-8h8v8h-8zM32 429l-4 -4v-4h4l4 4v4h-4zM44 425q0 -8 -12 -8v-8h12l4 12v4h-4zM88 421v-8h4v8h-4zM168 421v-8h8v8h-8zM28 405l-8 -12v-8 q20 5 20 12v4zM352 401l4 -28l4 4h4l4 -4l12 16q-3 12 -16 16zM128 393h8v8zM56 393l8 -8v8h-8zM156 393v-12h12l4 12h-16zM76 377v-8h12v4zM92 369v-8h12v16h-4zM108 377v-8h4v8h-4zM404 369v-12h16v4l-8 8h-8zM68 357v-12l8 8v4h-8zM44 341v-4h8v12zM372 349v-4h8v4h-8z M76 345v-16l8 -8h4l4 4h4l4 -4q-5 24 -12 24h-12zM408 329h8v8zM64 301l-4 -4v-4l4 -4h4l4 4v4l-4 4h-4zM8 297v-8h4v8h-4zM120 293v-8h8zM56 277v-8h4v8h-4zM96 273v-4h8v4h-8zM12 265v-8h4v8h-4zM112 261l-4 -12h4l4 4v8h-4zM76 253v-8h4l8 8v4zM24 241v-4h8v8q12 0 12 8 h-4q-16 -6 -16 -12zM144 253v-8h8v8h-8zM60 249v-4h8v4h-8zM88 245v-4h8v4h-8zM68 241v-4h8v4h-8zM348 237v-8h8v8h-8zM152 225l-4 -4v-12h8l4 12l-4 4h-4zM124 193l8 -8l4 4v12h-4zM48 197v-8h4v8h-4zM60 197l-4 -12h8l4 12h-8zM180 185v-8h4v8h-4zM152 173v-4h8v4h-8z M188 173v-8h8v8h-8zM12 169v-8h8v8h-8zM52 169v-4h8v4h-8zM120 161v-8h12l4 12h-4zM352 165v-8h4v8h-4zM24 157v-8h4v8h-4zM312 149v-8h4v8h-4zM24 137v-4h8v4h-8zM52 125v-4h8v12zM72 133v-8h4v8h-4zM96 133v-8h8zM120 133v-8l12 4v4h-12zM236 133v-4h8v4h-8zM124 121 l-4 -16l12 12v4h-8zM136 113v-4l8 -8v4l-4 4q12 0 12 8h-4zM52 113l-4 -20v-4h4l16 16v4zM176 109v-4l8 -8h4v12h-12zM292 109v-12h8v4zM88 105v-8h8v8h-8zM116 101v-8l8 8h-8zM200 93v-8h8v8h-8zM80 81v-8h8v8h-8zM280 81v-8h4v8h-4zM48 77l12 -12l4 4v4zM88 65v-4h4l12 4 v8h-8zM156 73v-4h8v4h-8zM260 73q0 -12 -8 -12v-4h4l12 4v12h-8zM112 69v-4h8v4h-8zM72 61v-4h8v4h-8zM60 57v-4l4 -4h4v4l-4 4h-4zM84 53l-4 -12h4l12 4l-8 8h-4zM396 49v-4h8v4h-8zM108 45v-8l8 8h-8zM156 45l-4 -4v-8h4l4 12h-4zM160 29v-8l8 -8l12 4v12l-8 8h-4zM88 33 v-8h12v8h-12zM192 25v-4h4l12 4v4h-4zM332 17v-4l4 -4h8v4zM396 5v-8h4v8h-4zM256 5q6 0 12 -16q-2 -20 -12 -20l4 -4v-4q-16 -7 -16 -16h-12v4l4 20h-4q4 16 20 16v4h-8v4zM324 -27l12 -8v16h-4zM336 -63l4 -16h8l4 16l-4 4h-4l-4 -4h-4zM284 -75l8 -8l-8 -8h-8v8zM352 -87 l4 -4h4v12zM248 -79h12v-8h-12v8zM336 -87v-8h8v8h-8zM384 -87v-16h4v16h-4zM396 -99v-8h8v8h-8zM256 -99l8 -8v-4l-8 -8q-8 0 -8 12v4h4v-8h4v12zM400 -123v-8l8 8h-8zM256 -123h12l8 -8v-4l-12 -12l-8 12v12zM392 -127v-8h4v8h-4zM284 -147l4 -4v-4l-4 -4h-4l-4 4v4l4 4h4 zM324 -163l8 -8v-4h-8v12zM380 -203h8v8zM268 -199l12 -12l-4 -12h-12l4 4v4l-4 -4h-8v8zM372 -207l-4 -12v-4h4v8l12 -8l16 8l-8 8l-8 -8h-8v8h-4zM324 -227h4v-8h-4v8zM320 -283h8v-4h-8v4zM324 -299l4 -4v-4l-8 -8l-4 4v4zM288 -315h12v-16l-16 -4l-4 4v8zM284 -399 l12 -4v-8h-8v-8l12 8v-8l-4 -4v-4l4 -4l-32 -12l-4 4v24q0 8 20 8v8zM268 -415v-8h8zM272 -427v-8h8v8h-8zM304 -515h16v-4l-4 -4v-4l-12 4v8z" />
<glyph unicode="r" horiz-adv-x="440" d="M108 645h12q45 0 104 -100h8q8 0 8 12l4 -4h8v4h-8v4l48 64q53 -35 124 -136l20 -32l4 -4v-4l-76 -92l-120 96h-4l-8 -88q0 -172 28 -252l4 4h4l24 -8q23 0 84 40h4v-4q-9 -24 -16 -24v-4q-70 -73 -148 -108l-4 4q-12 -28 -40 -28h-8q-107 76 -120 76v4h8v4q-6 16 -12 16 q-8 0 -8 -16q-28 10 -28 16q31 0 40 20l4 -4h8q12 0 36 16q-10 28 -20 28l-4 -4v4q28 88 28 148v76q0 111 -44 128l-52 20v8q108 101 108 120zM180 573v-4l8 -8v4zM120 533v-8h4v8h-4zM80 529v-8h8zM220 449v-8h4v8h-4zM376 449l8 -8v8h-8zM400 429l4 -4h4l4 4v8h-4z M204 417v-4h8v4h-8zM376 417v-4h8v4h-8zM376 401v-4h8v4h-8zM208 381v-4h8v4h-8zM164 373l-4 -12h4l4 4v8h-4zM132 365v-8h12l-8 8h-4zM104 281v-8l8 -8l4 4v12h-12zM132 257l-4 -4v-4q12 0 12 -12l4 -4h4l8 12q0 8 -24 12zM92 221v-8l8 8h-8zM160 213v-4l8 -8l8 8v12h-8z M156 197v-4h8v4h-8zM96 149l12 -12l12 4v8l-8 8h-8zM172 105v-8h8v8h-8zM196 105l8 -8v8h-8zM184 85h8v8zM148 73v-8l8 -8l16 12l-4 12h-12zM284 69l4 -4h8v12h-4zM100 73l8 -8l4 4v4h-12zM204 69v-8h8zM120 45v-8h8zM124 33l8 -8h12v4l-4 4v4zM180 33v-8h8v8h-8z" />
<glyph unicode="s" horiz-adv-x="529" d="M1292 1260h8v-4h-8v4zM328 708q133 0 200 -232v-36q0 -32 -60 -76q24 -58 24 -88v-64q0 -109 -160 -196l-12 -16l-4 4h-4l4 -12l-4 -20h-4l-100 76v4l-4 -4h-4l-124 52l12 16h-4v-4l-4 4h-8v-8l-72 32v16q24 0 136 100h4l4 -4h4v4l-12 24l4 4v8q-12 0 -44 92h8 q-20 19 -20 44v20q0 31 28 68l4 -4h8l-4 4v4q0 18 96 52v-8h4q0 12 60 16l36 28h8v-32q0 -46 76 -76l36 -4q29 0 40 60q-39 108 -72 108q-38 32 -88 32h-8l-48 -4l-4 4v4zM256 696v-4q-36 -31 -36 -64h-8l-4 28q16 40 48 40zM228 544v-4h8v4h-8zM212 540v-8h8v8h-8zM156 524 l-4 -4v-8h4l8 8l-4 4h-4zM136 516l8 -8v8h-8zM200 508h12v8h-4zM176 500v-8h8zM244 500l4 -4v-4q-16 0 -24 -68q0 -92 144 -124h12q37 0 72 52v4l-28 -4q-126 0 -176 136l4 12h-8zM132 488v-4l8 -8v12h-8zM200 472v-8h4v8h-4zM200 428v-8h4v8h-4zM108 412v-8l12 -4l4 4v8 l-8 8zM476 400v-8l8 8h-8zM184 384l8 -8l4 4v4h-12zM152 352v-8h8zM132 320v-8h4v8h-4zM220 312v-4h8v4h-8zM308 308l8 -8v8h-8zM164 244l4 -4l-4 -12h-8l-4 4h-4l-4 -20l4 4h4q27 -43 116 -68l92 -16h12v12l-8 8l8 32v36l-4 28l16 4v20h-16l-12 -8q-14 24 -64 24h-24 q-53 0 -96 -44h-8zM104 224v-8h8zM444 208v-4h8v4h-8zM456 192v-8h4v8h-4zM432 184l-4 -4v-4l4 -4h8v4zM148 180v-4h8v4h-8zM44 164q5 -24 12 -24h4l8 8v12l-20 4h-4zM104 160v-8h8v8h-8zM80 156l-4 -4v-4l16 -4v8zM412 140l4 -12h16v8l-8 8h-4l-4 -4h-4zM60 124l4 -4h12v4 l-8 8zM96 128v-8h8v8h-8zM108 112h8l8 8v4h-4zM164 96v-8h4v8h-4zM200 96l8 -8v8h-8zM212 88h8v8zM164 84v-8h8v8h-8zM176 76v-4h8v4h-8zM232 64v-12h4v12h-4zM344 52v-8h4v8h-4zM300 24v-8l8 8h-8zM280 12v-4h12v8zM1272 436h4v-8h-4v8z" />
<glyph unicode="t" horiz-adv-x="307" d="M108 1010h8v-8h-8v8zM96 1006h8v-8h-8v8zM72 998h12v-8h-20zM-224 906h8v-8h-8v8zM192 906q9 0 16 -32l-4 -4h-16l4 4v4q-16 0 -16 24l4 4h12zM-200 838h8v-4l-8 -8v12zM-20 822h4v-12h-4v12zM172 822l36 -12q0 -8 -12 -8l-4 -12l4 -4h4v12l8 -8l-4 -4l4 -4v-8h-16l4 -4 v-4h-12v-20l4 -4v-4l-4 -4h-4l-4 4h-4v-8l-28 4l-20 -16h-4v8q30 40 52 96zM176 810v-8h4v8h-4zM172 794v-4h12v4h-12zM424 798h8v-8l4 4h12l-4 -12h-12l-8 8v8zM-24 790h8l8 -8l-8 -8h-12zM164 778v-4h4l12 4v4h-4zM184 782v-8l8 8h-8zM156 762l-4 -16h4l8 8l-4 4h8v4h-12z M200 762h8v-4l-4 -4v-4h4l-8 -16l4 -4h-4l-4 4h-4l-4 -4v4zM168 754v-8h8v8h-8zM196 726l12 -4v-4l-4 -20h4l-4 -4v-4l4 -4v-4h-4q7 -36 36 -36h4l4 4v4l4 -4h80l4 4h4l4 -4v-4q0 -48 -120 -48h-12l-8 -8v-156l-4 -4l4 -4v-100l-4 -16l12 -92v-4h-4l-144 236l16 132h4v-8h8 v8h-8v24l4 4v4l-32 8h-32l-4 28h8v4h-12v8l20 4l-4 -4v-4h4q0 8 36 28h4v-8l4 4h4l-4 4v8l24 12v-12l-4 -4v-4h4q20 0 20 24h8v-8h8q16 13 56 24zM192 718v-4h8v4h-8zM148 702v-16h4v16h-4zM176 698l-4 -4v-4h12zM140 682v-8h4v8h-4zM60 666l-4 -4v-4l12 4v4h-8zM132 650v-8 h8v8h-8zM52 646q0 -8 -12 -8l-4 -4v-8l20 20h-4zM268 634v-4h8v4h-8zM112 630l8 -8v8h-8zM216 622l8 -8h4l-4 16zM188 590v-8h8v8h-8zM188 574l4 -12h4v8l-4 4h-4zM112 566v-4l16 -8v8l-12 4h-4zM96 554l4 -4h8l-4 12zM192 558v-12h4v12h-4zM164 542v-8h16v4zM64 534v-4 l-8 -8v4zM36 530h12q0 -12 20 -12q0 -8 -12 -8l-4 -4v-4h4q0 -16 -16 -16v-4l4 -4v-4h-8l-8 16h8v4h-8l-4 12q6 16 12 16l12 -4q0 8 -12 8v4zM120 514v-8h4v8h-4zM92 486v-8h8v8h-8zM84 482v-8h4v8h-4zM52 478h4l8 -8v-4h-12v12zM92 454l4 -4h4v12zM48 450l140 -232 q8 -58 76 -120l12 -24q-48 -100 -48 -160l-8 8l4 4v4h-4l-4 -4q-24 85 -64 112l-24 36l4 4v4h-4l-4 -4q-81 111 -92 184h4l4 -4l12 4v4l-8 8l-4 -4h-4v8l4 4v4h-8v4l-4 48q6 112 20 112zM52 450h4v-8h-4v8zM164 422v-8h8v8h-8zM52 414v-8h4v8h-4zM192 402l8 -8v8h-8z M168 390v-8l8 8h-8zM48 346l-4 -4v-4l12 4v4h-8zM76 322l4 -4v-4l16 4v8zM100 326v-4h8v4h-8zM88 314v-4h8v4h-8zM96 306v-8l8 -8l4 16h-12zM72 294v-4h8v4h-8zM128 294v-8h4v8h-4zM52 214v-8h4v8h-4zM236 218h4v-8h-4v8zM244 214h4v-8h-4v8zM168 182v-4h8v4h-8zM128 178v-8 h8v8h-8zM100 134v-8h8v8h-8zM124 102v-8h4v8h-4zM284 98l24 -4l-4 -20h-4q-7 0 -16 24zM-4 54q16 -4 16 -28l-24 24l4 4h4zM16 54h8v-8h-8v8zM112 -6h8v-8zM8 -10v-20l-8 8v4zM212 -26v-8h4v8h-4zM-48 -30h4v-8h-4v8zM116 -30q16 -6 16 -12v-4l-8 -8h-16l8 12l-4 12h4z M184 -30q6 0 12 -16l-4 -4h-4l-12 12z" />
<glyph unicode="u" horiz-adv-x="488" d="M119 638h8q88 0 104 -180v-12q-28 -205 -28 -252v-4q0 -60 84 -76l8 156v80q0 107 -24 144v4q54 19 96 100l4 24q15 0 44 -84q34 -47 44 -48l-24 -80l8 -36q-12 -19 -12 -44l12 -116h-4l4 -4v-32l4 -80h28v-8l-24 -32l8 -60l-12 -108l4 -4h-4l4 -4v-4l-4 -4l4 -28v-28 l-12 -12h-4q-14 5 -20 76l8 92l-4 4v4q8 11 12 52h-4q-13 0 -20 -128h-4l4 -20v-28l-4 -20h-8q-16 0 -20 76l4 16l-4 12l4 24q-59 20 -88 64q-5 20 -12 20l-64 -40q0 12 -8 12q0 -27 -28 -40l-8 -8h-8l-4 12h4l-4 4v4l8 12v4l-8 16h-8l-20 -4q-7 20 -32 28l-16 20l4 4h-4 l-4 -4l-44 48l-4 16q35 0 48 16v4l12 32h4l4 -4h4v8q-12 0 -12 12l4 4q-24 244 -88 244l-20 4v4q91 99 120 172zM407 518v-4h8v4h-8zM431 482v-4h8v4h-8zM407 434v-4h8v4h-8zM339 410v-8h4v8h-4zM399 374v-8l8 8h-8zM143 278v-8h4v8h-4zM431 266v-8h4v8h-4zM183 238v-8h8v8 h-8zM335 198v-4h8v4h-8zM127 170v-4h8v4h-8zM159 134l8 -8h4l8 8v4zM375 138v-4h8v4h-8zM95 134l4 -12h8zM199 134l8 -8v8h-8zM43 130v-4l16 -16h8v8h4q0 -12 8 -12l12 12q0 8 -12 8l-12 -4l4 4v4l-20 -8v8h-8zM147 114l-4 -4v-4l4 -12l4 4h4l4 -4v4q-6 16 -12 16zM191 106 l16 -8v16h-8zM103 106v-4h8v4h-8zM95 102l-4 -12l4 -4h8v8zM211 90l4 -12h4l8 8v8h-8l-4 -4h-4zM159 90v-8h8v8h-8zM91 82v-8l8 8h-8zM295 70h8v8zM171 70v-8h8v8h-8zM219 62v-8h4v8h-4zM183 46h16v8h-8zM171 42v-8h16l-8 8h-8z" />
<glyph unicode="v" horiz-adv-x="412" d="M141 728l4 -4v-4q-72 -25 -72 -64v-16q1 -25 100 -116l12 -36q38 15 132 100h12q80 -74 80 -200l-12 -108h-4l4 -4v-4q0 -39 -20 -100h-4q0 12 -8 12v-12h8v-4l-52 -56v-4l-40 -60l-12 8l-4 -4v-8q0 -8 12 -8v-8h-8l4 -4q-5 -24 -16 -24v-4l4 -4l-8 -16q-10 0 -44 60 q-18 8 -20 16h-4q-39 30 -92 48v4l16 16v4l-12 -8l-4 4l-4 -4v-4h4l-4 -12q-64 12 -64 20l36 28h4v-8h8l-8 8q28 44 28 100l4 -4h4l-4 4v48l4 16l-28 92q-23 32 -56 40v12q16 0 16 12v4q-12 18 -80 60l-8 40q0 47 88 120q54 31 108 36zM77 708v-4h8v4h-8zM1 660v-8h8z M57 632v-8h4v8h-4zM325 580v-12h8v4zM129 548v-12l8 8l-4 4h-4zM69 500v-12l8 -8h8v12l-8 16zM281 480l-4 -24h4l12 4v8zM189 460v-156q0 -8 -12 -8v-8q20 0 20 -72l4 -16l8 -12q20 0 40 -28l-16 -12v-4h4v8h4q0 -17 16 -52h-4l-8 -12l20 8q8 -24 20 -24v8q-20 16 -28 48 l4 12h-12v4q9 76 20 76l-4 12q0 20 12 20l-8 8q16 57 16 120q-12 88 -80 88h-8zM141 444v-8h8zM281 444v-12h8l-4 12h-4zM393 400v-8h4v8h-4zM145 388v-4h8v4h-8zM349 360l4 -12h8v4l-8 8h-4zM297 352l8 -8v8h-8zM129 348l8 -8h4l-8 8h-4zM349 344v-8h4v8h-4zM373 344v-4h8 v4h-8zM289 324l8 -8v8h-8zM369 316v-12h12v4l-8 8h-4zM141 300v-8l8 8h-8zM289 292l8 -8h4v8h-12zM353 280v-4l8 -8h4l-4 12h-8zM161 268v-4h8v4h-8zM325 248v-4h8v4h-8zM285 244l-4 -4v-8l8 -8l8 8zM321 236v-8h8v8h-8zM141 216l8 -8h8v8l-8 8zM309 224v-16l-4 4h-8l32 -24 h8l4 4h4l4 -4l4 20l-8 8l-4 -4h-16zM129 192l12 -12v4l-8 8h-4zM113 180v-8l8 8h-8zM269 164v-8h4v8h-4zM185 160v-4l8 -8l4 4h4v-8h8v4q0 8 -24 12zM157 144l-4 4l-4 -4v-4l20 -8l8 20zM265 144v-8l8 -8h4v8l-8 8h-4zM185 136v-4l12 -12v4zM121 132v-8h4v8h-4zM165 128v-8 l8 -8h4v16h-12zM61 120v-4h8v4h-8zM229 120v-12h12v4l-8 8h-4zM113 112v-4l16 -4v8h-16zM201 104l4 -12h4v8l-4 4h-4zM273 104v-4l8 -8v12h-8zM181 96v-8h4v8h-4zM289 92v-8h8zM221 80l8 -8v8h-8zM261 80v-4h8v4h-8zM245 56v-8h12v4zM229 48v-8h4v8h-4zM249 28v-4 q6 -16 12 -16v4l-4 4l4 4v8h-12zM233 8l8 -8v8h-8z" />
<glyph unicode="w" horiz-adv-x="716" d="M92 734q27 -11 32 -24h-8l-36 12q-24 0 -24 -28v-12h-12v-12q20 0 36 -28q132 -48 132 -108l4 -16q-32 -111 -32 -180v-36q0 -72 56 -132v-4h8q32 18 32 132v48q0 99 -48 164l-4 12q114 52 128 52q26 0 80 -64l-4 -92q0 -248 44 -248l8 -8h4l4 4h4l4 -4q28 60 28 160v4 q0 65 -52 184q67 23 104 60l4 -4v8h4q108 -117 108 -232q0 -23 -32 -120l-4 4h-4v-4l4 -4l-28 -68q0 -12 -52 -52l-8 8l-8 -12l4 -4v-4l-4 -4h-4l-4 4h-4v-4l4 -4q-24 0 -56 -64l-24 -52h-4q-7 0 -24 64q-51 76 -108 76h-28q-72 0 -80 -48l-8 -72h-8l-4 -4l-4 4 q0 97 -176 156l-4 4v4q44 33 44 76v72q0 68 -60 188l-8 8l8 12h-8v-8q-22 32 -32 32l4 20h-4q-7 0 -12 72q0 31 80 104zM36 694v-8h8v8h-8zM16 642l4 -4h4l8 8l-4 4h-4zM-20 622v-4h8v4h-8zM-28 618v-8h4v8h-4zM-8 610v-8h4v8h-4zM-8 598v-12q3 -48 12 -48v4l-8 56h-4z M108 598v-8h4v8h-4zM-28 574v-4h8v4h-8zM16 566v-8h4v8h-4zM16 550l-4 -4v-8h8l-4 4v4l4 4h-4zM32 538v-8h4v8h-4zM0 530v-8h8v8h-8zM20 494v-12h4l8 8l-4 4h-8zM128 354v-8h8v8h-8zM560 342l8 -8v8h-8zM684 342v-4h8v4h-8zM404 322v-8h8v8h-8zM172 298v-12h8v12h-8z M348 262v-8l8 8h-8zM364 246v-8h4l20 4v4l-4 4l4 4v8h-8zM528 246v-8l8 -8l4 4v12h-12zM564 222v-4h8v4h-8zM596 214l-4 -20l4 -4h8l20 8l-12 12v4h-16zM628 202v-8h4v8h-4zM564 186v-8h4v8h-4zM184 158v-8q16 0 28 -12h12l12 12v12l-12 12h-20q-8 0 -8 -16h-12zM404 166 l12 -4l4 4v4l-4 4h-4zM464 170v-12l4 -4h8v8l-8 8h-4zM256 154v-12l8 -8h12v12l-8 8h-12zM540 154v-16h16v8l-8 8h-8zM80 150v-8h4v8h-4zM508 146v-12l8 -8l4 4v8l-8 8h-4zM592 138v-8h8l4 16h-4zM404 110v-4l16 -8h8l12 12q0 10 -20 24q-16 -4 -16 -24zM292 118v-4h12 l-4 12zM192 122v-8h4v8h-4zM360 122v-4h8v4h-8zM464 122v-8l8 -8l4 4h4l-4 12h-12zM480 74q0 -12 16 -12l12 4v8l-8 8h-12zM512 82v-4h8v4h-8zM424 66l4 -4l12 4l-8 8zM476 34l-8 -12l8 -8l8 8v4z" />
<glyph unicode="x" horiz-adv-x="632" d="M167 636q38 0 76 -60v-4h-8v-8l12 8l28 -64h-8v-8q20 0 20 -40q20 -83 32 -92h4q38 58 68 212v16l12 -8v4l-8 16l4 4h4q16 0 28 -16l36 -12q11 11 64 28q22 24 36 24v-24l-12 -16l8 -16q0 -40 -32 -60q0 -23 -24 -32h-8q0 12 -8 12h-4q0 -20 -8 -20h-16l4 4v8l-8 8h-8 q0 -19 -32 -68l-52 -112q23 -47 104 -156l-108 -40q-67 87 -80 128h-4q-68 -49 -96 -144q-13 -72 -36 -72l-212 -80h-4q0 63 64 128q40 31 136 52q54 124 96 176l-24 56l8 16l-4 -4h-12q-24 66 -108 152q-12 0 -12 12q-26 0 -40 12l-4 -4h-12v16q11 0 92 56zM167 620h12v8 h-4zM195 604v-8h4v8h-4zM207 596v-4l4 -4h12v4zM491 592v-8h4v8h-4zM59 584v-8h4v8h-4zM115 568l-4 -16h4l12 12v4h-12zM147 564v-4h8v4h-8zM511 552v-8l20 -8h4v8l-4 20h-8zM135 560v-4h8v4h-8zM443 552v-8h8v16zM499 548v-8h4v8h-4zM175 540v-8h4v8h-4zM251 532v-8h4v8h-4 zM475 524v-8h8l8 8l-8 8zM379 496v-12h12l8 8v8l-4 4v4q-16 -6 -16 -12zM187 492v-4h4l12 12v4q-16 -6 -16 -12zM203 452l8 -8v8h-8zM231 416v-12h8v12h-8zM215 360v-8h8v8h-8zM363 348v-4h8v4h-8zM283 344v-8h8v8h-8zM295 316v-8h4v8h-4zM263 308v-4l8 -8h8v12h-16z M231 304v-8h4v8h-4zM295 296l-4 -4v-4l8 -8l4 4v4zM287 280v-8h4v8h-4zM215 272v-8h4v8h-4zM327 248v-8h4v8h-4zM403 212v-8h8v8h-8zM323 192v-4h8v4h-8zM483 152q33 -40 72 -40l64 16v-8q-3 -15 -88 -84v8h-12v-4q12 0 12 -8q-8 0 -8 -12l-44 -44q-16 11 -60 76h8v4h-8 l-4 -4l-40 60zM171 108v-8h4v8h-4zM399 92v-4h8v4h-8zM163 84v-8h4v8h-4zM547 68h12v8h-4zM63 28v-8h4v8h-4zM75 28l8 -8h4l-8 8h-4zM163 32h4v-4q-12 0 -12 -8h8v-4l-4 -4l4 -4v-4l-8 -32h-12q-38 26 -64 28v4zM487 8v-8h4v8h-4zM71 0h8v-4h-8v4zM-41 -40h8v-4h-8v4z M-41 -44q-4 -12 -24 -12h-4v4z" />
<glyph unicode="y" horiz-adv-x="498" d="M111 836h9v-4q-33 0 -39 -60v-26q0 -23 39 -64l-171 -64q-26 52 -26 72q0 99 188 146zM69 819v-9h8zM-17 733v-8h13l-9 8h-4zM-47 678v-9h9zM381 656q107 -135 107 -248q0 -118 -98 -501q-54 -111 -133 -202q-52 -48 -116 -77v9h-4l-17 -13h-4v4l73 47q59 77 72 133l5 -4 h4q34 6 34 34q0 18 -26 30q39 156 39 296q-58 -28 -86 -107q-27 -95 -42 -95h-5q0 24 -13 43l9 9h-4l-5 -5h-4q-10 31 -154 176l34 21h4v-12h9v4l-9 13h9l-4 4v4q16 0 21 65v8q0 178 -98 278l-5 5v4l197 69q30 -45 30 -78l-4 -4v-4l4 -22q21 0 129 78v-9q27 34 34 34h4v-8h5 v8l-5 5zM146 592v-9h8v9h-8zM86 588v-5h8v5h-8zM377 523v-8h9v8h-9zM197 489v-4l-13 -219q0 -61 90 -68h26l21 4v86q0 133 -107 197zM416 386v-8h8zM377 352v-9h4v9h-4zM445 245v-9h5v9h-5zM368 185l9 -9v9h-9zM398 44v-9l5 -13h8v5l-8 17h-5zM343 -8v-8q17 0 30 -13h13 l12 13v13l-12 12h-22q-8 0 -8 -17h-13zM308 -200v-5h9v5h-9z" />
<glyph unicode="z" horiz-adv-x="402" d="M242 659h4q11 -1 24 -36q9 0 24 -48l-4 -4q15 0 20 -56l12 -12v-12q-20 0 -20 -16l4 -4h12l4 4h4l4 -60v-4l-4 -4v-4l8 -8v-44l-12 8h-8l-8 -8l4 -20l4 4h4l4 -4v-4q-31 -56 -52 -56l4 -4v-4l-64 -52v-4q16 0 40 -32h12q63 32 88 32l4 -16q-81 -19 -84 -32 q112 -166 112 -308h-8l8 -12v-16q0 -142 -132 -196q0 12 -16 12v4q-16 -4 -16 -24h-56q-48 0 -48 16l-4 -4h-4q-24 4 -24 12h8v4l-4 20q-16 0 -16 -20q-15 1 -28 36q-36 0 -48 56v12l4 28l-8 64q0 108 200 280l-12 24q8 8 32 8q0 12 24 12l4 12q-43 -20 -72 -20l-28 8 l-100 -28l-28 28v36l108 28q32 30 32 88q0 70 -80 152q0 9 96 96zM242 643l-4 -4v-4l12 4v4h-8zM230 619v-8h12l-8 8h-4zM146 531v-8h8v8h-8zM250 507l8 -8v8h-8zM182 483v-8h8v8h-8zM278 471v-8l8 8h-8zM202 463l-4 -12h12l-4 12h-4zM254 443q-5 -16 -20 -16l4 -20l20 20 l-4 4l8 8l-4 4h-4zM338 435h4v-36h-4v36zM282 411v-8h4v8h-4zM314 387v-16h8l4 12l-4 4h-8zM298 375l-4 -4v-4h4l4 4v4h-4zM286 355v-4l8 8v4zM254 355v-24h4q21 0 24 12v4l-16 4l-4 -4v8h-8zM226 327v-8h4v8h-4zM402 223l-4 -4v-4h12l-4 4v4h52l48 -8v-32h4l16 12l8 -36v-4 q-8 -44 -40 -44h-8q-30 0 -48 44l4 12h-8v4h8v8q0 13 -64 16h-12l-4 -4h-4v24zM450 211v-8h8l8 8l-8 8zM462 187v-16h12v8l-8 8h-4zM482 187l8 -8v8h-8zM494 123v-4h16v4h-16zM198 111l-16 -16l-4 4h-4v-4l4 -4q-176 -161 -176 -268q0 -82 56 -128l4 4q32 -3 32 -8 q109 0 136 244v40q0 61 -28 136h-4zM286 -217v-8h8v8h-8zM274 -237v-8h4v8h-4zM342 -245v-8l8 -8l4 4v12h-12zM286 -285l8 -8v8h-8zM138 -309v-4h8v4h-8zM218 -325l12 -4l4 4v4l-4 4h-4zM290 -329v-8h4v8h-4zM174 -369v-4h8v4h-8z" />
<glyph unicode="&#x25fc;" horiz-adv-x="635" d="M0 635h635v-635h-635v635z" />
</font>
</defs>
</svg>
